<svg xmlns="http://www.w3.org/2000/svg" viewBox="0 0 500 500"><g id="freepik--background-simple--inject-113"><path d="M485.64,265.12c.09-1.08.17-2.15.31-3.22,1.5-11.49,8.48-97.87-100-206.5C269.31-61.36,141.86,69.78,119.85,104.06S91.42,191,74.43,156.34c-10.5-21.42,16.88-48.23-21.91-37-24.88,7.19-71.1,70.78-33.21,180S163.61,492,265.88,485.88c131.52-7.81,209-103.19,202.81-110.28s-55.13,14.06-44.37-.67C434.91,360.42,482.55,305.66,485.64,265.12Z" style="fill:#8D68A6"></path><path d="M485.64,265.12c.09-1.08.17-2.15.31-3.22,1.5-11.49,8.48-97.87-100-206.5C269.31-61.36,141.86,69.78,119.85,104.06S91.42,191,74.43,156.34c-10.5-21.42,16.88-48.23-21.91-37-24.88,7.19-71.1,70.78-33.21,180S163.61,492,265.88,485.88c131.52-7.81,209-103.19,202.81-110.28s-55.13,14.06-44.37-.67C434.91,360.42,482.55,305.66,485.64,265.12Z" style="fill:#fff;opacity:0.8"></path></g><g id="freepik--Shapes--inject-113"><path d="M145.27,182,98,169.2a10.6,10.6,0,0,1-6.39-15.56h0a10.6,10.6,0,0,1,15.89-2.84Z" style="fill:#8D68A6"></path><path d="M134.41,87.42l54.14,44.52L152.16,72A11.91,11.91,0,0,0,135,68.55h0A11.93,11.93,0,0,0,134.41,87.42Z" style="fill:#8D68A6"></path><path d="M243.32,54.56l11.05,68,15.81-67a13.7,13.7,0,0,0-12.79-16.84h0A13.71,13.71,0,0,0,243.32,54.56Z" style="fill:#8D68A6"></path><path d="M346.31,68.29c-6.46,17.73-16.49,46.16-16.49,46.16l36.82-32.22a12.72,12.72,0,0,0-2.27-20.74h0A12.72,12.72,0,0,0,346.31,68.29Z" style="fill:#8D68A6"></path><path d="M399.58,137.16l-36,36.64,48.7-16.43a12.26,12.26,0,0,0,6.14-18.63h0A12.27,12.27,0,0,0,399.58,137.16Z" style="fill:#8D68A6"></path><circle cx="348.08" cy="139" r="7.73" transform="translate(3.66 286.84) rotate(-45)" style="fill:#8D68A6"></circle><circle cx="314.83" cy="57.04" r="7.73" transform="translate(208.21 358.71) rotate(-80.8)" style="fill:#8D68A6"></circle><circle cx="417.67" cy="84.1" r="14.31" transform="translate(-0.09 167.76) rotate(-22.71)" style="fill:#8D68A6"></circle><circle cx="212.76" cy="88.74" r="7.73" style="fill:#8D68A6"></circle><circle cx="87.5" cy="110.39" r="15.73" transform="translate(-40.05 170.19) rotate(-76.72)" style="fill:#8D68A6"></circle><path d="M137,138.23A6.19,6.19,0,1,1,130.8,132,6.19,6.19,0,0,1,137,138.23Z" style="fill:#8D68A6"></path><circle cx="58.89" cy="187.72" r="10.05" transform="translate(-137.34 201.9) rotate(-76.72)" style="fill:#8D68A6"></circle><circle cx="432.36" cy="180.76" r="11.6" transform="translate(156.66 559.7) rotate(-76.65)" style="fill:#8D68A6"></circle></g><g id="freepik--Plants--inject-113"><path d="M465.85,261c0,.06,4.07-.41,4.32-.46,2.94-.69,8.22-3.73,8.5-7.1a4,4,0,0,0-4.19-4.22c-2.39,0-4.59,2-5.92,3.82C467,255.15,465.85,261,465.85,261Z" style="fill:#8D68A6"></path><path d="M445.59,204.49c-.12,2.64,2.13,8.13,2.13,8.14s3.17-2.58,3.35-2.77c2.08-2.19,4.8-7.64,3.18-10.61a4,4,0,0,0-5.83-1.2C446.45,199.4,445.7,202.24,445.59,204.49Z" style="fill:#8D68A6"></path><path d="M430.28,212.55c.56,2.48,3.89,6.87,4.15,7.22a70.63,70.63,0,0,0-7.14,6.18c-1.32,1.28-2.6,2.62-3.87,4,.49-.7.92-1.34,1-1.43,1.43-2.66,2.61-8.64.27-11.07a4,4,0,0,0-5.94.38c-1.54,1.82-1.52,4.76-1,7s3.26,6,4,7l-1.45,1.56c-2.3,2.53-4.59,5.06-6.9,7.47-.82.85-1.66,1.66-2.49,2.47.43-.63.79-1.16.84-1.25,1.42-2.66,2.61-8.63.27-11.07a4,4,0,0,0-5.94.38c-1.55,1.82-1.53,4.76-1,7s3,5.66,3.87,6.85c-.87.81-1.75,1.61-2.64,2.35-.61.5-1.17,1-1.82,1.47l-1.88,1.39c-1.22.84-2.48,1.72-3.69,2.51l-2.47,1.59c.82-.84,2.4-2.51,2.51-2.67,1.81-2.41,3.89-8.14,1.94-10.9a4,4,0,0,0-5.93-.52c-1.8,1.56-2.22,4.47-2.07,6.72.18,2.47,2.68,7.14,3,7.72-1.35.86-2.68,1.68-3.94,2.43-3.46,2.08-6.51,3.77-8.94,5.07l1.06,2c2.43-1.37,5.48-3.14,8.93-5.32,1.38-.86,2.83-1.81,4.32-2.8a41.22,41.22,0,0,0,3.68,3.53c-1.13,2.29-1.59,7.21-1.65,7.85-1.6,0-3.15-.08-4.62-.15-3.59-.16-6.74-.39-9.33-.62l1.23,2.29c2.33.14,5,.27,8,.33,1.63,0,3.36.05,5.15,0,.1.65,1,5.88,2.36,7.95,1.25,1.87,3.36,3.91,5.74,4.06a4,4,0,0,0,4.37-4c-.14-3.38-5.28-6.64-8.19-7.45-.17-.05-2.09-.35-3.31-.52l2.19,0c1.48,0,3-.08,4.56-.15l2.33-.17c.77,0,1.59-.19,2.4-.28,1.86-.25,3.74-.59,5.62-1,0,1.3.17,5.91,1.12,8s2.74,4.38,5.07,4.88a4,4,0,0,0,4.93-3.33c.37-3.36-4.22-7.36-7-8.6-.18-.08-2.25-.74-3.4-1.08,1.13-.24,2.26-.48,3.4-.76,3.27-.81,6.57-1.73,9.86-2.64,1-.28,2-.54,3-.81,0,.46.05,5.95,1.12,8.25,1,2,2.74,4.38,5.07,4.88a4,4,0,0,0,4.93-3.33c.37-3.36-4.22-7.37-7-8.6-.21-.1-3.2-1-4-1.25,2.22-.59,4.43-1.16,6.64-1.64a71,71,0,0,1,9-1.37c0,.21,0,5.94,1.13,8.3.95,2,2.73,4.38,5.07,4.88a4,4,0,0,0,4.93-3.33c.37-3.36-4.22-7.37-7-8.6-.18-.08-2.45-.81-3.54-1.13,0-.11,0-.09,0-.19a51.38,51.38,0,0,1,9.18.27c1.68.18,3.27.45,4.82.74-.1,1.07-.52,5.95.23,8.18s2.23,4.65,4.5,5.41a4,4,0,0,0,5.27-2.77c.73-3.3-3.39-7.78-6-9.31-.14-.09-1.68-.77-2.8-1.26.7.14,1.42.28,2.08.43,2.5.56,4.75,1.22,6.73,1.83,1.13.35,2.14.69,3.09,1,.44,1.1,2.29,5.51,3.95,7.12s4.13,3.1,6.49,2.72a4,4,0,0,0,3.4-4.88c-.87-3.27-6.6-5.35-9.61-5.51-.26,0-4.36.24-4.33.3l0,.06c-.9-.33-1.87-.68-2.94-1-2-.65-4.22-1.37-6.71-2a69.69,69.69,0,0,0-8.13-1.6,51.74,51.74,0,0,0-9.26-.48h-.11c.93-.34,3.5-1.37,3.69-1.48,2.65-1.43,6.94-5.76,6.32-9.08a4,4,0,0,0-5.16-3c-2.29.67-3.89,3.13-4.69,5.23-.91,2.38-.55,7.88-.52,8.32a69.69,69.69,0,0,0-9.37,1.21c-1.81.34-3.61.75-5.42,1.18.8-.32,1.51-.61,1.6-.66,2.66-1.44,6.94-5.77,6.33-9.09a4,4,0,0,0-5.16-3c-2.29.67-3.9,3.13-4.7,5.24s-.61,6.83-.53,8.07l-2.08.51c-3.31.84-6.61,1.69-9.87,2.42-1.15.26-2.3.47-3.44.69.71-.29,1.3-.53,1.39-.58,2.65-1.43,6.94-5.76,6.33-9.08a4,4,0,0,0-5.17-3c-2.29.66-3.89,3.13-4.69,5.23s-.63,6.38-.55,7.86c-1.18.18-2.35.37-3.5.5-.79.07-1.54.19-2.33.22l-2.33.12c-1.49,0-3,.06-4.47.05-1,0-2,0-2.93,0,1.14-.25,3.38-.77,3.56-.84a15.41,15.41,0,0,0,6.31-4.65,4.22,4.22,0,0,0,.81-.37,4,4,0,0,0,1.41-5.78c-2-2.73-8.07-2.62-10.94-1.68-.17.05-1.94.86-3,1.38l1.82-1.22c1.22-.84,2.42-1.71,3.72-2.64.6-.48,1.22-.95,1.84-1.43s1.23-1,1.85-1.56c1.42-1.23,2.79-2.55,4.15-3.92.74,1.08,3.4,4.85,5.33,6s4.7,2.15,6.92,1.28a4,4,0,0,0,2.28-5.5c-1.55-3-7.59-3.82-10.56-3.33-.19,0-2.29.62-3.43,1,.81-.83,1.62-1.64,2.41-2.5,2.29-2.49,4.52-5.07,6.77-7.64.68-.79,1.38-1.57,2.07-2.35.26.38,3.33,4.93,5.49,6.26,1.92,1.18,4.7,2.15,6.92,1.28a4,4,0,0,0,2.27-5.5c-1.54-3-7.58-3.82-10.56-3.33-.22,0-3.24.89-4,1.15,1.53-1.72,3.06-3.42,4.64-5a71.62,71.62,0,0,1,6.78-6.13c.11.18,3.3,4.94,5.51,6.3,1.92,1.18,4.7,2.15,6.92,1.28a4,4,0,0,0,2.28-5.5c-1.55-3-7.59-3.81-10.56-3.33-.2,0-2.5.69-3.59,1l-.08-.17a51.54,51.54,0,0,1,7.81-4.84c1.5-.77,3-1.43,4.43-2,.5.95,2.84,5.25,4.7,6.69s4.43,2.65,6.73,2a4,4,0,0,0,2.87-5.21c-1.2-3.16-7.12-4.63-10.13-4.47-.17,0-1.82.28-3,.5.66-.27,1.34-.55,2-.79,2.38-.91,4.63-1.6,6.62-2.19,1.13-.33,2.17-.6,3.13-.85,1,.67,5,3.34,7.23,3.75s5.15.31,6.91-1.3a4,4,0,0,0,.14-5.95c-2.52-2.25-8.45-.82-11.05.71-.22.13-3.5,2.6-3.45,2.64l.06,0c-.94.21-1.94.46-3,.75-2,.55-4.27,1.19-6.69,2.05a69.66,69.66,0,0,0-7.67,3.15,52.61,52.61,0,0,0-8,4.71l-.08.07c.59-.8,2.16-3.08,2.26-3.27,1.43-2.66,2.61-8.64.27-11.07a4,4,0,0,0-5.94.38C429.77,207.41,429.79,210.35,430.28,212.55Z" style="fill:#8D68A6"></path><path d="M445.59,204.49c-.12,2.64,2.13,8.13,2.13,8.14s3.17-2.58,3.35-2.77c2.08-2.19,4.8-7.64,3.18-10.61a4,4,0,0,0-5.83-1.2C446.45,199.4,445.7,202.24,445.59,204.49Z" style="fill:#8D68A6;opacity:0.30000000000000004"></path><path d="M465.85,261c0,.06,4.07-.41,4.32-.46,2.94-.69,8.22-3.73,8.5-7.1a4,4,0,0,0-4.19-4.22c-2.39,0-4.59,2-5.92,3.82C467,255.15,465.85,261,465.85,261Z" style="fill:#8D68A6;opacity:0.30000000000000004"></path><path d="M430.28,212.55c.56,2.48,3.89,6.87,4.15,7.22a70.63,70.63,0,0,0-7.14,6.18c-1.32,1.28-2.6,2.62-3.87,4,.49-.7.92-1.34,1-1.43,1.43-2.66,2.61-8.64.27-11.07a4,4,0,0,0-5.94.38c-1.54,1.82-1.52,4.76-1,7s3.26,6,4,7l-1.45,1.56c-2.3,2.53-4.59,5.06-6.9,7.47-.82.85-1.66,1.66-2.49,2.47.43-.63.79-1.16.84-1.25,1.42-2.66,2.61-8.63.27-11.07a4,4,0,0,0-5.94.38c-1.55,1.82-1.53,4.76-1,7s3,5.66,3.87,6.85c-.87.81-1.75,1.61-2.64,2.35-.61.5-1.17,1-1.82,1.47l-1.88,1.39c-1.22.84-2.48,1.72-3.69,2.51l-2.47,1.59c.82-.84,2.4-2.51,2.51-2.67,1.81-2.41,3.89-8.14,1.94-10.9a4,4,0,0,0-5.93-.52c-1.8,1.56-2.22,4.47-2.07,6.72.18,2.47,2.68,7.14,3,7.72-1.35.86-2.68,1.68-3.94,2.43-3.46,2.08-6.51,3.77-8.94,5.07l1.06,2c2.43-1.37,5.48-3.14,8.93-5.32,1.38-.86,2.83-1.81,4.32-2.8a41.22,41.22,0,0,0,3.68,3.53c-1.13,2.29-1.59,7.21-1.65,7.85-1.6,0-3.15-.08-4.62-.15-3.59-.16-6.74-.39-9.33-.62l1.23,2.29c2.33.14,5,.27,8,.33,1.63,0,3.36.05,5.15,0,.1.65,1,5.88,2.36,7.95,1.25,1.87,3.36,3.91,5.74,4.06a4,4,0,0,0,4.37-4c-.14-3.38-5.28-6.64-8.19-7.45-.17-.05-2.09-.35-3.31-.52l2.19,0c1.48,0,3-.08,4.56-.15l2.33-.17c.77,0,1.59-.19,2.4-.28,1.86-.25,3.74-.59,5.62-1,0,1.3.17,5.91,1.12,8s2.74,4.38,5.07,4.88a4,4,0,0,0,4.93-3.33c.37-3.36-4.22-7.36-7-8.6-.18-.08-2.25-.74-3.4-1.08,1.13-.24,2.26-.48,3.4-.76,3.27-.81,6.57-1.73,9.86-2.64,1-.28,2-.54,3-.81,0,.46.05,5.95,1.12,8.25,1,2,2.74,4.38,5.07,4.88a4,4,0,0,0,4.93-3.33c.37-3.36-4.22-7.37-7-8.6-.21-.1-3.2-1-4-1.25,2.22-.59,4.43-1.16,6.64-1.64a71,71,0,0,1,9-1.37c0,.21,0,5.94,1.13,8.3.95,2,2.73,4.38,5.07,4.88a4,4,0,0,0,4.93-3.33c.37-3.36-4.22-7.37-7-8.6-.18-.08-2.45-.81-3.54-1.13,0-.11,0-.09,0-.19a51.38,51.38,0,0,1,9.18.27c1.68.18,3.27.45,4.82.74-.1,1.07-.52,5.95.23,8.18s2.23,4.65,4.5,5.41a4,4,0,0,0,5.27-2.77c.73-3.3-3.39-7.78-6-9.31-.14-.09-1.68-.77-2.8-1.26.7.14,1.42.28,2.08.43,2.5.56,4.75,1.22,6.73,1.83,1.13.35,2.14.69,3.09,1,.44,1.1,2.29,5.51,3.95,7.12s4.13,3.1,6.49,2.72a4,4,0,0,0,3.4-4.88c-.87-3.27-6.6-5.35-9.61-5.51-.26,0-4.36.24-4.33.3l0,.06c-.9-.33-1.87-.68-2.94-1-2-.65-4.22-1.37-6.71-2a69.69,69.69,0,0,0-8.13-1.6,51.74,51.74,0,0,0-9.26-.48h-.11c.93-.34,3.5-1.37,3.69-1.48,2.65-1.43,6.94-5.76,6.32-9.08a4,4,0,0,0-5.16-3c-2.29.67-3.89,3.13-4.69,5.23-.91,2.38-.55,7.88-.52,8.32a69.69,69.69,0,0,0-9.37,1.21c-1.81.34-3.61.75-5.42,1.18.8-.32,1.51-.61,1.6-.66,2.66-1.44,6.94-5.77,6.33-9.09a4,4,0,0,0-5.16-3c-2.29.67-3.9,3.13-4.7,5.24s-.61,6.83-.53,8.07l-2.08.51c-3.31.84-6.61,1.69-9.87,2.42-1.15.26-2.3.47-3.44.69.71-.29,1.3-.53,1.39-.58,2.65-1.43,6.94-5.76,6.33-9.08a4,4,0,0,0-5.17-3c-2.29.66-3.89,3.13-4.69,5.23s-.63,6.38-.55,7.86c-1.18.18-2.35.37-3.5.5-.79.07-1.54.19-2.33.22l-2.33.12c-1.49,0-3,.06-4.47.05-1,0-2,0-2.93,0,1.14-.25,3.38-.77,3.56-.84a15.41,15.41,0,0,0,6.31-4.65,4.22,4.22,0,0,0,.81-.37,4,4,0,0,0,1.41-5.78c-2-2.73-8.07-2.62-10.94-1.68-.17.05-1.94.86-3,1.38l1.82-1.22c1.22-.84,2.42-1.71,3.72-2.64.6-.48,1.22-.95,1.84-1.43s1.23-1,1.85-1.56c1.42-1.23,2.79-2.55,4.15-3.92.74,1.08,3.4,4.85,5.33,6s4.7,2.15,6.92,1.28a4,4,0,0,0,2.28-5.5c-1.55-3-7.59-3.82-10.56-3.33-.19,0-2.29.62-3.43,1,.81-.83,1.62-1.64,2.41-2.5,2.29-2.49,4.52-5.07,6.77-7.64.68-.79,1.38-1.57,2.07-2.35.26.38,3.33,4.93,5.49,6.26,1.92,1.18,4.7,2.15,6.92,1.28a4,4,0,0,0,2.27-5.5c-1.54-3-7.58-3.82-10.56-3.33-.22,0-3.24.89-4,1.15,1.53-1.72,3.06-3.42,4.64-5a71.62,71.62,0,0,1,6.78-6.13c.11.18,3.3,4.94,5.51,6.3,1.92,1.18,4.7,2.15,6.92,1.28a4,4,0,0,0,2.28-5.5c-1.55-3-7.59-3.81-10.56-3.33-.2,0-2.5.69-3.59,1l-.08-.17a51.54,51.54,0,0,1,7.81-4.84c1.5-.77,3-1.43,4.43-2,.5.95,2.84,5.25,4.7,6.69s4.43,2.65,6.73,2a4,4,0,0,0,2.87-5.21c-1.2-3.16-7.12-4.63-10.13-4.47-.17,0-1.82.28-3,.5.66-.27,1.34-.55,2-.79,2.38-.91,4.63-1.6,6.62-2.19,1.13-.33,2.17-.6,3.13-.85,1,.67,5,3.34,7.23,3.75s5.15.31,6.91-1.3a4,4,0,0,0,.14-5.95c-2.52-2.25-8.45-.82-11.05.71-.22.13-3.5,2.6-3.45,2.64l.06,0c-.94.21-1.94.46-3,.75-2,.55-4.27,1.19-6.69,2.05a69.66,69.66,0,0,0-7.67,3.15,52.61,52.61,0,0,0-8,4.71l-.08.07c.59-.8,2.16-3.08,2.26-3.27,1.43-2.66,2.61-8.64.27-11.07a4,4,0,0,0-5.94.38C429.77,207.41,429.79,210.35,430.28,212.55Z" style="fill:#8D68A6;opacity:0.30000000000000004"></path><path d="M473.93,400.47s1.66-3,1.74-3.2c.92-2.35,1.33-7.44-.85-9.23a3.35,3.35,0,0,0-4.91.89c-1.1,1.66-.8,4.1-.18,5.89C470.46,396.91,473.93,400.47,473.93,400.47Z" style="fill:#8D68A6"></path><path d="M425.34,387.58c1.77,1.34,6.62,2.4,6.63,2.4s-.27-3.41-.32-3.62c-.52-2.48-3-6.95-5.8-7.24a3.35,3.35,0,0,0-3.6,3.45C422.24,384.57,423.84,386.44,425.34,387.58Z" style="fill:#8D68A6"></path><path d="M423.62,402c2,.8,6.59.59,7,.57a58.06,58.06,0,0,0,.86,7.87c.26,1.51.57,3,.9,4.55-.25-.67-.49-1.27-.53-1.35-1.15-2.24-4.71-5.91-7.5-5.44a3.34,3.34,0,0,0-2.57,4.27c.53,1.93,2.56,3.32,4.31,4s5.72.62,6.76.58l.39,1.74c.65,2.79,1.3,5.57,1.86,8.31.2,1,.36,1.93.53,2.89-.23-.6-.43-1.1-.46-1.17-1.16-2.25-4.72-5.91-7.51-5.45a3.35,3.35,0,0,0-2.56,4.28c.52,1.93,2.56,3.31,4.31,4s5.33.62,6.56.58c.14,1,.28,2,.37,2.94.05.66.13,1.29.14,2s.05,1.31.07,1.95c0,1.24,0,2.53,0,3.74,0,.85-.05,1.65-.08,2.46-.18-1-.59-2.85-.64-3-.8-2.4-3.76-6.56-6.59-6.52a3.34,3.34,0,0,0-3.18,3.84c.22,2,2,3.66,3.65,4.62,1.79,1.06,6.19,1.55,6.75,1.61-.06,1.34-.12,2.65-.2,3.87-.22,3.38-.5,6.28-.76,8.58l1.85.2c.22-2.32.44-5.27.58-8.69.06-1.36.1-2.81.12-4.31a36.1,36.1,0,0,0,4.19-.85c1,1.86,4.22,4.52,4.63,4.86-.78,1.09-1.56,2.14-2.3,3.12-1.82,2.4-3.48,4.46-4.87,6.13l2.17.24c1.2-1.53,2.57-3.33,4.05-5.37.8-1.1,1.63-2.3,2.47-3.53.49.23,4.52,2.12,6.6,2.15,1.89,0,4.3-.46,5.53-2a3.35,3.35,0,0,0-.71-4.94c-2.39-1.51-7.09.49-9,2.11-.11.1-1.23,1.28-1.93,2,.34-.5.68-1,1-1.52.7-1,1.35-2.08,2.07-3.21l1-1.69c.34-.56.63-1.19,1-1.79.71-1.4,1.37-2.86,2-4.34.9.6,4.15,2.7,6,3s4.32.2,5.78-1.17a3.35,3.35,0,0,0,.05-5c-2.14-1.86-7.09-.59-9.25.72-.14.08-1.58,1.2-2.36,1.82.37-.89.74-1.78,1.09-2.7,1-2.64,1.93-5.35,2.87-8.05.28-.83.58-1.65.87-2.47.32.22,4.13,2.79,6.23,3.14,1.86.32,4.32.2,5.77-1.17a3.35,3.35,0,0,0,.05-5c-2.14-1.86-7.09-.59-9.25.72-.16.1-2.24,1.7-2.74,2.14.64-1.81,1.3-3.61,2-5.36a58.41,58.41,0,0,1,3.34-6.88c.15.1,4.11,2.81,6.26,3.17,1.86.31,4.32.2,5.77-1.17a3.35,3.35,0,0,0,.05-5c-2.14-1.85-7.08-.59-9.24.72-.15.09-1.73,1.31-2.47,1.91l-.12-.1a42.45,42.45,0,0,1,4.56-6.2c.92-1.08,1.86-2.05,2.8-3,.68.58,3.85,3.19,5.75,3.73s4.27.68,5.86-.53a3.34,3.34,0,0,0,.6-4.95c-1.92-2.07-7-1.36-9.27-.3-.12.06-1.33.79-2.19,1.34.43-.42.86-.85,1.28-1.24,1.57-1.45,3.1-2.68,4.46-3.77.78-.61,1.5-1.14,2.17-1.64,1,.22,4.89,1,6.79.66s4.1-1.38,5-3.18a3.35,3.35,0,0,0-1.75-4.67c-2.66-.95-6.82,2-8.36,4-.14.17-1.91,3.12-1.86,3.13h.06c-.66.47-1.36,1-2.12,1.54-1.39,1.05-2.95,2.26-4.56,3.68a58.94,58.94,0,0,0-5,4.85,44.29,44.29,0,0,0-4.73,6.16.56.56,0,0,0-.05.08c.21-.81.72-3.07.74-3.25.27-2.51-.67-7.53-3.26-8.68a3.34,3.34,0,0,0-4.49,2.15c-.63,1.9.3,4.18,1.38,5.73,1.21,1.75,5.17,4.12,5.48,4.31a59,59,0,0,0-3.62,7c-.62,1.41-1.2,2.84-1.76,4.29.16-.7.3-1.32.31-1.41.27-2.52-.68-7.53-3.26-8.69a3.36,3.36,0,0,0-4.5,2.15c-.63,1.9.31,4.18,1.38,5.73s4.43,3.67,5.32,4.21c-.21.56-.43,1.11-.64,1.67-1,2.68-2,5.36-3,8-.37.92-.76,1.81-1.16,2.7.14-.62.26-1.15.27-1.23.27-2.51-.68-7.53-3.26-8.69a3.36,3.36,0,0,0-4.5,2.16c-.63,1.89.31,4.17,1.38,5.73s4.1,3.46,5.16,4.11c-.43.9-.86,1.8-1.32,2.65-.33.57-.6,1.15-1,1.71l-1,1.67c-.69,1-1.39,2.11-2.09,3.1-.48.69-1,1.35-1.42,2,.38-.91,1.08-2.7,1.12-2.86a13,13,0,0,0-.21-6.56,3.6,3.6,0,0,0,.13-.73,3.35,3.35,0,0,0-3.31-3.73c-2.83.07-5.65,4.33-6.37,6.75,0,.14-.33,1.74-.49,2.76,0-.61,0-1.21,0-1.83,0-1.25,0-2.49-.06-3.82,0-.65-.07-1.3-.11-2s-.13-1.33-.19-2c-.17-1.57-.43-3.14-.72-4.73,1.08,0,4.95,0,6.68-.81s3.72-2.22,4.17-4.16a3.35,3.35,0,0,0-2.7-4.19c-2.81-.36-6.24,3.42-7.32,5.71-.07.14-.66,1.87-1,2.82-.19-.95-.36-1.9-.58-2.85-.63-2.76-1.35-5.53-2.05-8.3-.22-.85-.43-1.7-.64-2.55.39,0,5,.05,6.93-.81,1.73-.76,3.71-2.21,4.17-4.16a3.35,3.35,0,0,0-2.71-4.18c-2.81-.37-6.23,3.41-7.31,5.7-.08.17-.93,2.66-1.11,3.3-.46-1.87-.9-3.73-1.26-5.59a59.76,59.76,0,0,1-1-7.58c.18,0,5,.07,7-.81,1.72-.77,3.71-2.22,4.17-4.17a3.35,3.35,0,0,0-2.71-4.18c-2.81-.37-6.24,3.42-7.32,5.7-.07.15-.71,2-1,2.95l-.16,0a42.79,42.79,0,0,1,.38-7.68c.18-1.41.42-2.74.7-4,.89.11,5,.54,6.85-.06s3.93-1.79,4.6-3.68a3.36,3.36,0,0,0-2.23-4.46c-2.75-.67-6.58,2.72-7.9,4.87-.07.12-.67,1.39-1.1,2.32.14-.58.26-1.18.4-1.73.5-2.08,1.1-4,1.64-5.61.31-.94.61-1.78.9-2.57.93-.35,4.66-1.83,6-3.2s2.67-3.4,2.39-5.38a3.35,3.35,0,0,0-4-2.93c-2.75.67-4.59,5.44-4.77,8,0,.22.13,3.65.18,3.63l.05,0c-.29.75-.6,1.56-.92,2.45-.57,1.64-1.21,3.51-1.76,5.59a60.66,60.66,0,0,0-1.48,6.78,44.07,44.07,0,0,0-.55,7.75s0,.06,0,.09c-.27-.78-1.09-2.95-1.18-3.11-1.15-2.25-4.71-5.91-7.5-5.45a3.35,3.35,0,0,0-2.57,4.28C419.84,399.88,421.87,401.27,423.62,402Z" style="fill:#8D68A6"></path><path d="M425.34,387.58c1.77,1.34,6.62,2.4,6.63,2.4s-.27-3.41-.32-3.62c-.52-2.48-3-6.95-5.8-7.24a3.35,3.35,0,0,0-3.6,3.45C422.24,384.57,423.84,386.44,425.34,387.58Z" style="fill:#8D68A6;opacity:0.30000000000000004"></path><path d="M473.93,400.47s1.66-3,1.74-3.2c.92-2.35,1.33-7.44-.85-9.23a3.35,3.35,0,0,0-4.91.89c-1.1,1.66-.8,4.1-.18,5.89C470.46,396.91,473.93,400.47,473.93,400.47Z" style="fill:#8D68A6;opacity:0.30000000000000004"></path><path d="M423.62,402c2,.8,6.59.59,7,.57a58.06,58.06,0,0,0,.86,7.87c.26,1.51.57,3,.9,4.55-.25-.67-.49-1.27-.53-1.35-1.15-2.24-4.71-5.91-7.5-5.44a3.34,3.34,0,0,0-2.57,4.27c.53,1.93,2.56,3.32,4.31,4s5.72.62,6.76.58l.39,1.74c.65,2.79,1.3,5.57,1.86,8.31.2,1,.36,1.93.53,2.89-.23-.6-.43-1.1-.46-1.17-1.16-2.25-4.72-5.91-7.51-5.45a3.35,3.35,0,0,0-2.56,4.28c.52,1.93,2.56,3.31,4.31,4s5.33.62,6.56.58c.14,1,.28,2,.37,2.94.05.66.13,1.29.14,2s.05,1.31.07,1.95c0,1.24,0,2.53,0,3.74,0,.85-.05,1.65-.08,2.46-.18-1-.59-2.85-.64-3-.8-2.4-3.76-6.56-6.59-6.52a3.34,3.34,0,0,0-3.18,3.84c.22,2,2,3.66,3.65,4.62,1.79,1.06,6.19,1.55,6.75,1.61-.06,1.34-.12,2.65-.2,3.87-.22,3.38-.5,6.28-.76,8.58l1.85.2c.22-2.32.44-5.27.58-8.69.06-1.36.1-2.81.12-4.31a36.1,36.1,0,0,0,4.19-.85c1,1.86,4.22,4.52,4.63,4.86-.78,1.09-1.56,2.14-2.3,3.12-1.82,2.4-3.48,4.46-4.87,6.13l2.17.24c1.2-1.53,2.57-3.33,4.05-5.37.8-1.1,1.63-2.3,2.47-3.53.49.23,4.52,2.12,6.6,2.15,1.89,0,4.3-.46,5.53-2a3.35,3.35,0,0,0-.71-4.94c-2.39-1.51-7.09.49-9,2.11-.11.1-1.23,1.28-1.93,2,.34-.5.68-1,1-1.52.7-1,1.35-2.08,2.07-3.21l1-1.69c.34-.56.63-1.19,1-1.79.71-1.4,1.37-2.86,2-4.34.9.6,4.15,2.7,6,3s4.32.2,5.78-1.17a3.35,3.35,0,0,0,.05-5c-2.14-1.86-7.09-.59-9.25.72-.14.08-1.58,1.2-2.36,1.82.37-.89.74-1.78,1.09-2.7,1-2.64,1.93-5.35,2.87-8.05.28-.83.58-1.65.87-2.47.32.22,4.13,2.79,6.23,3.14,1.86.32,4.32.2,5.77-1.17a3.35,3.35,0,0,0,.05-5c-2.14-1.86-7.09-.59-9.25.72-.16.1-2.24,1.7-2.74,2.14.64-1.81,1.3-3.61,2-5.36a58.41,58.41,0,0,1,3.34-6.88c.15.1,4.11,2.81,6.26,3.17,1.86.31,4.32.2,5.77-1.17a3.35,3.35,0,0,0,.05-5c-2.14-1.85-7.08-.59-9.24.72-.15.09-1.73,1.31-2.47,1.91l-.12-.1a42.45,42.45,0,0,1,4.56-6.2c.92-1.08,1.86-2.05,2.8-3,.68.58,3.85,3.19,5.75,3.73s4.27.68,5.86-.53a3.34,3.34,0,0,0,.6-4.95c-1.92-2.07-7-1.36-9.27-.3-.12.06-1.33.79-2.19,1.34.43-.42.86-.85,1.28-1.24,1.57-1.45,3.1-2.68,4.46-3.77.78-.61,1.5-1.14,2.17-1.64,1,.22,4.89,1,6.79.66s4.1-1.38,5-3.18a3.35,3.35,0,0,0-1.75-4.67c-2.66-.95-6.82,2-8.36,4-.14.17-1.91,3.12-1.86,3.13h.06c-.66.47-1.36,1-2.12,1.54-1.39,1.05-2.95,2.26-4.56,3.68a58.94,58.94,0,0,0-5,4.85,44.29,44.29,0,0,0-4.73,6.16.56.56,0,0,0-.05.08c.21-.81.72-3.07.74-3.25.27-2.51-.67-7.53-3.26-8.68a3.34,3.34,0,0,0-4.49,2.15c-.63,1.9.3,4.18,1.38,5.73,1.21,1.75,5.17,4.12,5.48,4.31a59,59,0,0,0-3.62,7c-.62,1.41-1.2,2.84-1.76,4.29.16-.7.3-1.32.31-1.41.27-2.52-.68-7.53-3.26-8.69a3.36,3.36,0,0,0-4.5,2.15c-.63,1.9.31,4.18,1.38,5.73s4.43,3.67,5.32,4.21c-.21.56-.43,1.11-.64,1.67-1,2.68-2,5.36-3,8-.37.92-.76,1.81-1.16,2.7.14-.62.26-1.15.27-1.23.27-2.51-.68-7.53-3.26-8.69a3.36,3.36,0,0,0-4.5,2.16c-.63,1.89.31,4.17,1.38,5.73s4.1,3.46,5.16,4.11c-.43.9-.86,1.8-1.32,2.65-.33.57-.6,1.15-1,1.71l-1,1.67c-.69,1-1.39,2.11-2.09,3.1-.48.69-1,1.35-1.42,2,.38-.91,1.08-2.7,1.12-2.86a13,13,0,0,0-.21-6.56,3.6,3.6,0,0,0,.13-.73,3.35,3.35,0,0,0-3.31-3.73c-2.83.07-5.65,4.33-6.37,6.75,0,.14-.33,1.74-.49,2.76,0-.61,0-1.21,0-1.83,0-1.25,0-2.49-.06-3.82,0-.65-.07-1.3-.11-2s-.13-1.33-.19-2c-.17-1.57-.43-3.14-.72-4.73,1.08,0,4.95,0,6.68-.81s3.72-2.22,4.17-4.16a3.35,3.35,0,0,0-2.7-4.19c-2.81-.36-6.24,3.42-7.32,5.71-.07.14-.66,1.87-1,2.82-.19-.95-.36-1.9-.58-2.85-.63-2.76-1.35-5.53-2.05-8.3-.22-.85-.43-1.7-.64-2.55.39,0,5,.05,6.93-.81,1.73-.76,3.71-2.21,4.17-4.16a3.35,3.35,0,0,0-2.71-4.18c-2.81-.37-6.23,3.41-7.31,5.7-.08.17-.93,2.66-1.11,3.3-.46-1.87-.9-3.73-1.26-5.59a59.76,59.76,0,0,1-1-7.58c.18,0,5,.07,7-.81,1.72-.77,3.71-2.22,4.17-4.17a3.35,3.35,0,0,0-2.71-4.18c-2.81-.37-6.24,3.42-7.32,5.7-.07.15-.71,2-1,2.95l-.16,0a42.79,42.79,0,0,1,.38-7.68c.18-1.41.42-2.74.7-4,.89.11,5,.54,6.85-.06s3.93-1.79,4.6-3.68a3.36,3.36,0,0,0-2.23-4.46c-2.75-.67-6.58,2.72-7.9,4.87-.07.12-.67,1.39-1.1,2.32.14-.58.26-1.18.4-1.73.5-2.08,1.1-4,1.64-5.61.31-.94.61-1.78.9-2.57.93-.35,4.66-1.83,6-3.2s2.67-3.4,2.39-5.38a3.35,3.35,0,0,0-4-2.93c-2.75.67-4.59,5.44-4.77,8,0,.22.13,3.65.18,3.63l.05,0c-.29.75-.6,1.56-.92,2.45-.57,1.64-1.21,3.51-1.76,5.59a60.66,60.66,0,0,0-1.48,6.78,44.07,44.07,0,0,0-.55,7.75s0,.06,0,.09c-.27-.78-1.09-2.95-1.18-3.11-1.15-2.25-4.71-5.91-7.5-5.45a3.35,3.35,0,0,0-2.57,4.28C419.84,399.88,421.87,401.27,423.62,402Z" style="fill:#8D68A6;opacity:0.30000000000000004"></path><path d="M71.93,393.82s0-3.42-.05-3.64c-.34-2.51-2.47-7.14-5.26-7.64a3.34,3.34,0,0,0-3.84,3.17c-.15,2,1.31,4,2.72,5.23C67.16,392.41,71.93,393.82,71.93,393.82Z" style="fill:#8D68A6"></path><path d="M23.25,406.35c2.2.31,7-1.14,7-1.15s-1.91-2.84-2.06-3c-1.66-1.9-6-4.6-8.6-3.47a3.35,3.35,0,0,0-1.45,4.76C19.07,405.24,21.38,406.09,23.25,406.35Z" style="fill:#8D68A6"></path><path d="M28.79,419.74c2.12-.27,6-2.71,6.35-2.9a57.52,57.52,0,0,0,4.6,6.43c1,1.2,2,2.37,3,3.54-.55-.47-1-.87-1.12-.92-2.11-1.4-7-2.85-9.21-1.08a3.35,3.35,0,0,0-.14,5c1.4,1.43,3.85,1.64,5.72,1.4s5.29-2.26,6.18-2.8l1.19,1.33c1.93,2.11,3.86,4.21,5.69,6.33.65.75,1.26,1.51,1.87,2.26-.49-.4-.9-.75-1-.79-2.11-1.39-7-2.85-9.21-1.08a3.35,3.35,0,0,0-.15,5c1.4,1.42,3.86,1.63,5.73,1.39s5-2.06,6-2.7c.6.79,1.21,1.58,1.76,2.38.36.55.75,1.06,1.08,1.64l1,1.67c.6,1.08,1.24,2.2,1.8,3.27.4.75.76,1.47,1.14,2.19-.64-.75-1.91-2.2-2-2.31-1.88-1.69-6.49-3.87-9-2.46a3.36,3.36,0,0,0-.89,4.91c1.17,1.62,3.56,2.2,5.45,2.24,2.07.05,6.16-1.67,6.67-1.89.61,1.19,1.19,2.36,1.72,3.47,1.47,3,2.64,5.72,3.54,7.85l1.71-.73c-1-2.13-2.2-4.81-3.74-7.86-.62-1.22-1.3-2.5-2-3.82a34.77,34.77,0,0,0,3.24-2.8c1.81,1.12,5.89,1.89,6.41,2-.15,1.33-.31,2.63-.48,3.85-.41,3-.85,5.59-1.24,7.73l2-.85c.29-1.93.61-4.17.9-6.67.15-1.35.3-2.8.43-4.29.54,0,5-.36,6.81-1.35,1.66-.9,3.52-2.51,3.82-4.48a3.34,3.34,0,0,0-3-4c-2.82-.14-5.94,3.9-6.84,6.26,0,.14-.46,1.72-.69,2.72,0-.61.1-1.2.15-1.83.09-1.24.15-2.48.22-3.81,0-.65,0-1.3,0-2s0-1.34,0-2c-.06-1.58-.2-3.17-.38-4.77,1.09.08,4.95.32,6.73-.32s3.87-1.94,4.46-3.85a3.34,3.34,0,0,0-2.39-4.37C80,425.31,76.26,428.83,75,431c-.08.14-.79,1.82-1.17,2.75-.11-1-.22-1.92-.37-2.89-.42-2.79-.94-5.61-1.44-8.42-.15-.87-.3-1.73-.44-2.59.38,0,5,.42,7-.3,1.78-.64,3.87-1.94,4.47-3.85a3.35,3.35,0,0,0-2.4-4.37c-2.77-.57-6.47,2.95-7.71,5.15-.1.17-1.12,2.59-1.35,3.22-.32-1.9-.63-3.79-.85-5.67a58.59,58.59,0,0,1-.45-7.64c.18,0,5,.44,7-.3,1.78-.63,3.86-1.94,4.46-3.84a3.36,3.36,0,0,0-2.4-4.38c-2.77-.56-6.47,3-7.71,5.16-.08.14-.86,2-1.21,2.87l-.16,0a42.91,42.91,0,0,1,.94-7.64c.28-1.39.62-2.7,1-4,.88.16,4.92.89,6.83.44s4.06-1.51,4.86-3.34a3.35,3.35,0,0,0-1.9-4.61c-2.69-.87-6.75,2.23-8.23,4.28-.08.11-.77,1.34-1.26,2.23.17-.57.34-1.16.52-1.7.65-2,1.38-3.86,2-5.47.38-.91.74-1.73,1.09-2.49,1-.29,4.78-1.49,6.24-2.75s2.91-3.21,2.77-5.2a3.34,3.34,0,0,0-3.81-3.21c-2.79.46-5,5.08-5.33,7.58,0,.22-.14,3.66-.09,3.64l.06,0c-.35.73-.72,1.51-1.1,2.38-.69,1.6-1.46,3.41-2.17,5.44a59.4,59.4,0,0,0-2,6.66,43,43,0,0,0-1.12,7.69v.09c-.21-.8-.87-3-.94-3.19-1-2.33-4.27-6.24-7.09-6a3.35,3.35,0,0,0-2.87,4.08c.38,2,2.31,3.49,4,4.32,1.91.93,6.52,1.06,6.89,1.07a58.71,58.71,0,0,0,.29,7.91c.14,1.53.34,3.07.56,4.61-.2-.69-.39-1.3-.43-1.39-1-2.32-4.27-6.23-7.09-6a3.35,3.35,0,0,0-2.86,4.08c.38,2,2.31,3.49,4,4.32s5.65,1,6.7,1.07c.09.59.17,1.18.26,1.77.44,2.83.89,5.65,1.25,8.42.13,1,.22,1.95.31,2.92-.18-.61-.34-1.12-.37-1.2-1-2.32-4.27-6.24-7.09-6a3.36,3.36,0,0,0-2.87,4.08c.38,2,2.31,3.49,4,4.32s5.27,1,6.5,1.06c.07,1,.14,2,.15,3,0,.66,0,1.3,0,2s-.06,1.31-.08,2c-.09,1.24-.18,2.52-.3,3.72-.08.84-.17,1.64-.26,2.45-.12-1-.38-2.88-.42-3a13.05,13.05,0,0,0-3.39-5.62,3.66,3.66,0,0,0-.25-.7,3.34,3.34,0,0,0-4.71-1.63c-2.43,1.44-2.81,6.53-2.25,9,0,.14.57,1.68.92,2.65-.29-.54-.57-1.06-.88-1.61-.6-1.09-1.24-2.15-1.92-3.31-.34-.54-.69-1.09-1.05-1.64s-.77-1.11-1.15-1.67c-.92-1.28-1.92-2.53-2.95-3.76.95-.53,4.3-2.47,5.44-4s2.15-3.76,1.6-5.67A3.35,3.35,0,0,0,56.9,426c-2.63,1.06-3.77,6-3.59,8.55,0,.16.34,2,.54,2.94-.62-.74-1.24-1.48-1.9-2.21-1.9-2.1-3.88-4.16-5.85-6.23l-1.8-1.91c.34-.19,4.38-2.4,5.65-4.1,1.13-1.51,2.15-3.75,1.6-5.67A3.35,3.35,0,0,0,47.14,415c-2.63,1-3.77,6-3.59,8.55,0,.19.49,2.77.64,3.42-1.31-1.4-2.61-2.81-3.83-4.25a57.88,57.88,0,0,1-4.59-6.13c.16-.08,4.38-2.37,5.68-4.11,1.13-1.51,2.15-3.75,1.6-5.67a3.35,3.35,0,0,0-4.41-2.33c-2.63,1.06-3.77,6-3.59,8.56,0,.16.38,2.13.57,3.06l-.15.06A43.75,43.75,0,0,1,32,409.31c-.53-1.31-1-2.59-1.36-3.85.83-.34,4.6-2,6-3.4s2.55-3.49,2.21-5.46a3.35,3.35,0,0,0-4.13-2.8c-2.73.76-4.4,5.58-4.51,8.11,0,.14.1,1.54.18,2.56-.17-.57-.35-1.16-.5-1.71-.58-2.06-1-4-1.32-5.69-.18-1-.33-1.85-.46-2.68.64-.76,3.16-3.87,3.69-5.74s.65-4.27-.56-5.86a3.35,3.35,0,0,0-4.95-.58c-2.07,1.93-1.34,7-.26,9.27.09.2,1.9,3.13,1.93,3.09l0-.05c.11.8.24,1.65.39,2.58.31,1.72.66,3.66,1.2,5.74a58,58,0,0,0,2,6.64,44.5,44.5,0,0,0,3.31,7l0,.07c-.62-.55-2.4-2-2.54-2.14-2.11-1.39-7-2.84-9.22-1.07a3.35,3.35,0,0,0-.14,5C24.47,419.78,26.92,420,28.79,419.74Z" style="fill:#8D68A6"></path><path d="M23.25,406.35c2.2.31,7-1.14,7-1.15s-1.91-2.84-2.06-3c-1.66-1.9-6-4.6-8.6-3.47a3.35,3.35,0,0,0-1.45,4.76C19.07,405.24,21.38,406.09,23.25,406.35Z" style="fill:#8D68A6;opacity:0.30000000000000004"></path><path d="M71.93,393.82s0-3.42-.05-3.64c-.34-2.51-2.47-7.14-5.26-7.64a3.34,3.34,0,0,0-3.84,3.17c-.15,2,1.31,4,2.72,5.23C67.16,392.41,71.93,393.82,71.93,393.82Z" style="fill:#8D68A6;opacity:0.30000000000000004"></path><path d="M28.79,419.74c2.12-.27,6-2.71,6.35-2.9a57.52,57.52,0,0,0,4.6,6.43c1,1.2,2,2.37,3,3.54-.55-.47-1-.87-1.12-.92-2.11-1.4-7-2.85-9.21-1.08a3.35,3.35,0,0,0-.14,5c1.4,1.43,3.85,1.64,5.72,1.4s5.29-2.26,6.18-2.8l1.19,1.33c1.93,2.11,3.86,4.21,5.69,6.33.65.75,1.26,1.51,1.87,2.26-.49-.4-.9-.75-1-.79-2.11-1.39-7-2.85-9.21-1.08a3.35,3.35,0,0,0-.15,5c1.4,1.42,3.86,1.63,5.73,1.39s5-2.06,6-2.7c.6.79,1.21,1.58,1.76,2.38.36.55.75,1.06,1.08,1.64l1,1.67c.6,1.08,1.24,2.2,1.8,3.27.4.75.76,1.47,1.14,2.19-.64-.75-1.91-2.2-2-2.31-1.88-1.69-6.49-3.87-9-2.46a3.36,3.36,0,0,0-.89,4.91c1.17,1.62,3.56,2.2,5.45,2.24,2.07.05,6.16-1.67,6.67-1.89.61,1.19,1.19,2.36,1.72,3.47,1.47,3,2.64,5.72,3.54,7.85l1.71-.73c-1-2.13-2.2-4.81-3.74-7.86-.62-1.22-1.3-2.5-2-3.82a34.77,34.77,0,0,0,3.24-2.8c1.81,1.12,5.89,1.89,6.41,2-.15,1.33-.31,2.63-.48,3.85-.41,3-.85,5.59-1.24,7.73l2-.85c.29-1.93.61-4.17.9-6.67.15-1.35.3-2.8.43-4.29.54,0,5-.36,6.81-1.35,1.66-.9,3.52-2.51,3.82-4.48a3.34,3.34,0,0,0-3-4c-2.82-.14-5.94,3.9-6.84,6.26,0,.14-.46,1.72-.69,2.72,0-.61.1-1.2.15-1.83.09-1.24.15-2.48.22-3.81,0-.65,0-1.3,0-2s0-1.34,0-2c-.06-1.58-.2-3.17-.38-4.77,1.09.08,4.95.32,6.73-.32s3.87-1.94,4.46-3.85a3.34,3.34,0,0,0-2.39-4.37C80,425.31,76.26,428.83,75,431c-.08.14-.79,1.82-1.17,2.75-.11-1-.22-1.92-.37-2.89-.42-2.79-.94-5.61-1.44-8.42-.15-.87-.3-1.73-.44-2.59.38,0,5,.42,7-.3,1.78-.64,3.87-1.94,4.47-3.85a3.35,3.35,0,0,0-2.4-4.37c-2.77-.57-6.47,2.95-7.71,5.15-.1.17-1.12,2.59-1.35,3.22-.32-1.9-.63-3.79-.85-5.67a58.59,58.59,0,0,1-.45-7.64c.18,0,5,.44,7-.3,1.78-.63,3.86-1.94,4.46-3.84a3.36,3.36,0,0,0-2.4-4.38c-2.77-.56-6.47,3-7.71,5.16-.08.14-.86,2-1.21,2.87l-.16,0a42.91,42.91,0,0,1,.94-7.64c.28-1.39.62-2.7,1-4,.88.16,4.92.89,6.83.44s4.06-1.51,4.86-3.34a3.35,3.35,0,0,0-1.9-4.61c-2.69-.87-6.75,2.23-8.23,4.28-.08.11-.77,1.34-1.26,2.23.17-.57.34-1.16.52-1.7.65-2,1.38-3.86,2-5.47.38-.91.74-1.73,1.09-2.49,1-.29,4.78-1.49,6.24-2.75s2.91-3.21,2.77-5.2a3.34,3.34,0,0,0-3.81-3.21c-2.79.46-5,5.08-5.33,7.58,0,.22-.14,3.66-.09,3.64l.06,0c-.35.73-.72,1.51-1.1,2.38-.69,1.6-1.46,3.41-2.17,5.44a59.4,59.4,0,0,0-2,6.66,43,43,0,0,0-1.12,7.69v.09c-.21-.8-.87-3-.94-3.19-1-2.33-4.27-6.24-7.09-6a3.35,3.35,0,0,0-2.87,4.08c.38,2,2.31,3.49,4,4.32,1.91.93,6.52,1.06,6.89,1.07a58.71,58.71,0,0,0,.29,7.91c.14,1.53.34,3.07.56,4.61-.2-.69-.39-1.3-.43-1.39-1-2.32-4.27-6.23-7.09-6a3.35,3.35,0,0,0-2.86,4.08c.38,2,2.31,3.49,4,4.32s5.65,1,6.7,1.07c.09.59.17,1.18.26,1.77.44,2.83.89,5.65,1.25,8.42.13,1,.22,1.95.31,2.92-.18-.61-.34-1.12-.37-1.2-1-2.32-4.27-6.24-7.09-6a3.36,3.36,0,0,0-2.87,4.08c.38,2,2.31,3.49,4,4.32s5.27,1,6.5,1.06c.07,1,.14,2,.15,3,0,.66,0,1.3,0,2s-.06,1.31-.08,2c-.09,1.24-.18,2.52-.3,3.72-.08.84-.17,1.64-.26,2.45-.12-1-.38-2.88-.42-3a13.05,13.05,0,0,0-3.39-5.62,3.66,3.66,0,0,0-.25-.7,3.34,3.34,0,0,0-4.71-1.63c-2.43,1.44-2.81,6.53-2.25,9,0,.14.57,1.68.92,2.65-.29-.54-.57-1.06-.88-1.61-.6-1.09-1.24-2.15-1.92-3.31-.34-.54-.69-1.09-1.05-1.64s-.77-1.11-1.15-1.67c-.92-1.28-1.92-2.53-2.95-3.76.95-.53,4.3-2.47,5.44-4s2.15-3.76,1.6-5.67A3.35,3.35,0,0,0,56.9,426c-2.63,1.06-3.77,6-3.59,8.55,0,.16.34,2,.54,2.94-.62-.74-1.24-1.48-1.9-2.21-1.9-2.1-3.88-4.16-5.85-6.23l-1.8-1.91c.34-.19,4.38-2.4,5.65-4.1,1.13-1.51,2.15-3.75,1.6-5.67A3.35,3.35,0,0,0,47.14,415c-2.63,1-3.77,6-3.59,8.55,0,.19.49,2.77.64,3.42-1.31-1.4-2.61-2.81-3.83-4.25a57.88,57.88,0,0,1-4.59-6.13c.16-.08,4.38-2.37,5.68-4.11,1.13-1.51,2.15-3.75,1.6-5.67a3.35,3.35,0,0,0-4.41-2.33c-2.63,1.06-3.77,6-3.59,8.56,0,.16.38,2.13.57,3.06l-.15.06A43.75,43.75,0,0,1,32,409.31c-.53-1.31-1-2.59-1.36-3.85.83-.34,4.6-2,6-3.4s2.55-3.49,2.21-5.46a3.35,3.35,0,0,0-4.13-2.8c-2.73.76-4.4,5.58-4.51,8.11,0,.14.1,1.54.18,2.56-.17-.57-.35-1.16-.5-1.71-.58-2.06-1-4-1.32-5.69-.18-1-.33-1.85-.46-2.68.64-.76,3.16-3.87,3.69-5.74s.65-4.27-.56-5.86a3.35,3.35,0,0,0-4.95-.58c-2.07,1.93-1.34,7-.26,9.27.09.2,1.9,3.13,1.93,3.09l0-.05c.11.8.24,1.65.39,2.58.31,1.72.66,3.66,1.2,5.74a58,58,0,0,0,2,6.64,44.5,44.5,0,0,0,3.31,7l0,.07c-.62-.55-2.4-2-2.54-2.14-2.11-1.39-7-2.84-9.22-1.07a3.35,3.35,0,0,0-.14,5C24.47,419.78,26.92,420,28.79,419.74Z" style="fill:#8D68A6;opacity:0.30000000000000004"></path><path d="M39,323.42c0,.06-4.07-.4-4.32-.46-2.94-.68-8.22-3.73-8.51-7.1a4,4,0,0,1,4.2-4.21c2.39,0,4.59,2,5.91,3.81C37.82,317.6,39,323.42,39,323.42Z" style="fill:#8D68A6"></path><path d="M59.24,266.93c.12,2.64-2.13,8.13-2.13,8.14s-3.17-2.58-3.35-2.77c-2.08-2.19-4.8-7.64-3.18-10.61a4,4,0,0,1,5.83-1.2C58.37,261.84,59.13,264.68,59.24,266.93Z" style="fill:#8D68A6"></path><path d="M74.55,275c-.56,2.48-3.89,6.88-4.16,7.22a70.73,70.73,0,0,1,7.15,6.18c1.31,1.28,2.6,2.62,3.87,4-.49-.7-.92-1.34-1-1.43-1.43-2.66-2.62-8.64-.27-11.07a4,4,0,0,1,5.94.38c1.54,1.82,1.52,4.76,1,7s-3.27,6-4,7c.48.52,1,1,1.45,1.57,2.3,2.52,4.58,5.05,6.9,7.46.82.85,1.65,1.66,2.49,2.47-.44-.63-.8-1.16-.84-1.24-1.43-2.66-2.61-8.64-.27-11.07a4,4,0,0,1,5.94.37c1.54,1.83,1.52,4.76,1,7s-3,5.67-3.88,6.85c.88.81,1.76,1.62,2.65,2.36.61.49,1.17,1,1.82,1.46l1.87,1.39c1.23.84,2.49,1.72,3.7,2.51l2.47,1.59c-.82-.84-2.4-2.51-2.51-2.67-1.81-2.41-3.89-8.14-1.94-10.9a4,4,0,0,1,5.93-.52c1.79,1.56,2.22,4.47,2.06,6.72-.17,2.48-2.67,7.14-3,7.73,1.35.85,2.67,1.67,3.94,2.42,3.45,2.08,6.51,3.77,8.94,5.07l-1.06,2c-2.43-1.37-5.48-3.14-8.93-5.32-1.38-.86-2.83-1.81-4.32-2.8a44.42,44.42,0,0,1-3.68,3.53c1.13,2.29,1.59,7.21,1.64,7.85,1.6,0,3.16-.08,4.63-.15,3.59-.16,6.74-.39,9.33-.62l-1.24,2.29c-2.32.14-5,.27-8,.33-1.63,0-3.37.05-5.15.05-.1.64-1,5.87-2.36,7.94-1.25,1.87-3.36,3.92-5.75,4.06a4,4,0,0,1-4.37-4c.14-3.38,5.29-6.64,8.2-7.45.17,0,2.09-.35,3.31-.52l-2.19,0c-1.49,0-3-.09-4.56-.16l-2.33-.17c-.78,0-1.59-.19-2.4-.28-1.86-.24-3.74-.59-5.62-1,0,1.3-.17,5.91-1.13,8s-2.73,4.38-5.06,4.88a4,4,0,0,1-4.93-3.33c-.38-3.36,4.22-7.36,7-8.6.17-.07,2.25-.74,3.4-1.08-1.13-.24-2.26-.48-3.4-.76-3.28-.81-6.57-1.73-9.86-2.64l-3-.81c0,.46,0,5.95-1.13,8.25-1,2-2.73,4.38-5.06,4.88a4,4,0,0,1-4.93-3.33c-.38-3.36,4.22-7.37,7-8.6.21-.09,3.2-1,4-1.25-2.22-.59-4.44-1.16-6.64-1.63a69.33,69.33,0,0,0-9-1.38c0,.22,0,5.94-1.13,8.3-1,2-2.73,4.38-5.07,4.88A4,4,0,0,1,43,332.68c-.37-3.36,4.22-7.37,7-8.6.18-.08,2.45-.81,3.54-1.13,0-.11,0-.09,0-.19a52.33,52.33,0,0,0-9.18.27c-1.68.18-3.28.45-4.82.74.1,1.07.52,6-.23,8.18s-2.24,4.66-4.5,5.41a4,4,0,0,1-5.27-2.77c-.74-3.3,3.39-7.78,6-9.31.14-.09,1.67-.77,2.8-1.26-.7.15-1.42.28-2.08.43-2.5.56-4.75,1.22-6.74,1.83-1.12.35-2.13.69-3.08,1-.44,1.1-2.29,5.52-4,7.12s-4.12,3.1-6.48,2.72a4,4,0,0,1-3.4-4.88c.86-3.27,6.59-5.35,9.61-5.51.26,0,4.36.24,4.33.3l0,.06c.9-.33,1.87-.68,2.94-1,2-.65,4.22-1.37,6.71-2a71.83,71.83,0,0,1,8.13-1.6,51.74,51.74,0,0,1,9.26-.48h.11c-.93-.34-3.5-1.37-3.69-1.48-2.65-1.43-6.94-5.76-6.33-9.08a4,4,0,0,1,5.17-3c2.29.67,3.89,3.13,4.69,5.24.9,2.37.55,7.87.52,8.31a69.69,69.69,0,0,1,9.37,1.21c1.8.35,3.61.75,5.42,1.18-.8-.32-1.51-.61-1.6-.66-2.66-1.43-6.95-5.77-6.33-9.09a4,4,0,0,1,5.16-3c2.29.67,3.9,3.13,4.7,5.24s.6,6.83.53,8.07l2.07.51c3.32.84,6.62,1.69,9.88,2.42,1.15.26,2.29.47,3.44.69-.71-.28-1.3-.53-1.39-.58-2.65-1.43-6.94-5.76-6.33-9.08a4,4,0,0,1,5.17-3c2.29.67,3.89,3.13,4.69,5.23s.62,6.38.55,7.86c1.17.18,2.35.37,3.5.5.78.07,1.54.19,2.33.22l2.33.12c1.49,0,3,.06,4.47,0,1,0,2,0,2.93,0-1.15-.25-3.38-.77-3.56-.84A15.41,15.41,0,0,1,95,324.5a4.88,4.88,0,0,1-.81-.36,4,4,0,0,1-1.42-5.78c2-2.74,8.08-2.62,10.95-1.69.17.05,1.94.86,3,1.38-.6-.4-1.19-.79-1.81-1.22-1.22-.84-2.42-1.71-3.72-2.64l-1.84-1.43c-.63-.47-1.23-1-1.85-1.56-1.42-1.23-2.8-2.55-4.15-3.91-.74,1.07-3.41,4.84-5.34,6s-4.69,2.15-6.91,1.28a4,4,0,0,1-2.28-5.5c1.54-3,7.58-3.82,10.56-3.33.19,0,2.29.62,3.43,1-.81-.82-1.62-1.64-2.41-2.5-2.29-2.49-4.53-5.07-6.77-7.64l-2.07-2.35c-.26.39-3.33,4.93-5.49,6.26-1.92,1.18-4.7,2.15-6.92,1.28a4,4,0,0,1-2.28-5.5c1.55-3,7.59-3.81,10.57-3.33.22,0,3.24.89,4,1.15-1.52-1.72-3-3.41-4.63-5a71.62,71.62,0,0,0-6.78-6.13c-.12.18-3.3,4.95-5.52,6.3-1.92,1.18-4.69,2.15-6.91,1.28a4,4,0,0,1-2.28-5.5c1.54-3,7.58-3.81,10.56-3.32.2,0,2.5.68,3.58,1l.09-.17a52,52,0,0,0-7.81-4.84c-1.5-.77-3-1.43-4.43-2-.5.95-2.84,5.25-4.7,6.7s-4.43,2.64-6.74,2a4,4,0,0,1-2.86-5.21c1.2-3.16,7.12-4.62,10.13-4.47.16,0,1.82.29,3,.5-.66-.26-1.33-.55-2-.79-2.39-.91-4.63-1.6-6.62-2.19-1.13-.33-2.17-.6-3.14-.85-1,.68-4.95,3.34-7.22,3.75s-5.16.31-6.91-1.3a4,4,0,0,1-.15-5.95c2.53-2.25,8.45-.82,11.06.71.22.13,3.5,2.6,3.45,2.64l-.06,0c.94.22,1.94.46,3,.75,2,.55,4.27,1.19,6.69,2.05A71.55,71.55,0,0,1,62,277.21a52.13,52.13,0,0,1,8,4.71l.09.07c-.59-.8-2.16-3.08-2.26-3.27-1.43-2.66-2.62-8.63-.27-11.07a4,4,0,0,1,5.94.38C75.06,269.85,75,272.79,74.55,275Z" style="fill:#8D68A6"></path><path d="M59.24,266.93c.12,2.64-2.13,8.13-2.13,8.14s-3.17-2.58-3.35-2.77c-2.08-2.19-4.8-7.64-3.18-10.61a4,4,0,0,1,5.83-1.2C58.37,261.84,59.13,264.68,59.24,266.93Z" style="fill:#8D68A6;opacity:0.30000000000000004"></path><path d="M39,323.42c0,.06-4.07-.4-4.32-.46-2.94-.68-8.22-3.73-8.51-7.1a4,4,0,0,1,4.2-4.21c2.39,0,4.59,2,5.91,3.81C37.82,317.6,39,323.42,39,323.42Z" style="fill:#8D68A6;opacity:0.30000000000000004"></path><path d="M74.55,275c-.56,2.48-3.89,6.88-4.16,7.22a70.73,70.73,0,0,1,7.15,6.18c1.31,1.28,2.6,2.62,3.87,4-.49-.7-.92-1.34-1-1.43-1.43-2.66-2.62-8.64-.27-11.07a4,4,0,0,1,5.94.38c1.54,1.82,1.52,4.76,1,7s-3.27,6-4,7c.48.52,1,1,1.45,1.57,2.3,2.52,4.58,5.05,6.9,7.46.82.85,1.65,1.66,2.49,2.47-.44-.63-.8-1.16-.84-1.24-1.43-2.66-2.61-8.64-.27-11.07a4,4,0,0,1,5.94.37c1.54,1.83,1.52,4.76,1,7s-3,5.67-3.88,6.85c.88.81,1.76,1.62,2.65,2.36.61.49,1.17,1,1.82,1.46l1.87,1.39c1.23.84,2.49,1.72,3.7,2.51l2.47,1.59c-.82-.84-2.4-2.51-2.51-2.67-1.81-2.41-3.89-8.14-1.94-10.9a4,4,0,0,1,5.93-.52c1.79,1.56,2.22,4.47,2.06,6.72-.17,2.48-2.67,7.14-3,7.73,1.35.85,2.67,1.67,3.94,2.42,3.45,2.08,6.51,3.77,8.94,5.07l-1.06,2c-2.43-1.37-5.48-3.14-8.93-5.32-1.38-.86-2.83-1.81-4.32-2.8a44.42,44.42,0,0,1-3.68,3.53c1.13,2.29,1.59,7.21,1.64,7.85,1.6,0,3.16-.08,4.63-.15,3.59-.16,6.74-.39,9.33-.62l-1.24,2.29c-2.32.14-5,.27-8,.33-1.63,0-3.37.05-5.15.05-.1.64-1,5.87-2.36,7.94-1.25,1.87-3.36,3.92-5.75,4.06a4,4,0,0,1-4.37-4c.14-3.38,5.29-6.64,8.2-7.45.17,0,2.09-.35,3.31-.52l-2.19,0c-1.49,0-3-.09-4.56-.16l-2.33-.17c-.78,0-1.59-.19-2.4-.28-1.86-.24-3.74-.59-5.62-1,0,1.3-.17,5.91-1.13,8s-2.73,4.38-5.06,4.88a4,4,0,0,1-4.93-3.33c-.38-3.36,4.22-7.36,7-8.6.17-.07,2.25-.74,3.4-1.08-1.13-.24-2.26-.48-3.4-.76-3.28-.81-6.57-1.73-9.86-2.64l-3-.81c0,.46,0,5.95-1.13,8.25-1,2-2.73,4.38-5.06,4.88a4,4,0,0,1-4.93-3.33c-.38-3.36,4.22-7.37,7-8.6.21-.09,3.2-1,4-1.25-2.22-.59-4.44-1.16-6.64-1.63a69.33,69.33,0,0,0-9-1.38c0,.22,0,5.94-1.13,8.3-1,2-2.73,4.38-5.07,4.88A4,4,0,0,1,43,332.68c-.37-3.36,4.22-7.37,7-8.6.18-.08,2.45-.81,3.54-1.13,0-.11,0-.09,0-.19a52.33,52.33,0,0,0-9.18.27c-1.68.18-3.28.45-4.82.74.1,1.07.52,6-.23,8.18s-2.24,4.66-4.5,5.41a4,4,0,0,1-5.27-2.77c-.74-3.3,3.39-7.78,6-9.31.14-.09,1.67-.77,2.8-1.26-.7.15-1.42.28-2.08.43-2.5.56-4.75,1.22-6.74,1.83-1.12.35-2.13.69-3.08,1-.44,1.1-2.29,5.52-4,7.12s-4.12,3.1-6.48,2.72a4,4,0,0,1-3.4-4.88c.86-3.27,6.59-5.35,9.61-5.51.26,0,4.36.24,4.33.3l0,.06c.9-.33,1.87-.68,2.94-1,2-.65,4.22-1.37,6.71-2a71.83,71.83,0,0,1,8.13-1.6,51.74,51.74,0,0,1,9.26-.48h.11c-.93-.34-3.5-1.37-3.69-1.48-2.65-1.43-6.94-5.76-6.33-9.08a4,4,0,0,1,5.17-3c2.29.67,3.89,3.13,4.69,5.24.9,2.37.55,7.87.52,8.31a69.69,69.69,0,0,1,9.37,1.21c1.8.35,3.61.75,5.42,1.18-.8-.32-1.51-.61-1.6-.66-2.66-1.43-6.95-5.77-6.33-9.09a4,4,0,0,1,5.16-3c2.29.67,3.9,3.13,4.7,5.24s.6,6.83.53,8.07l2.07.51c3.32.84,6.62,1.69,9.88,2.42,1.15.26,2.29.47,3.44.69-.71-.28-1.3-.53-1.39-.58-2.65-1.43-6.94-5.76-6.33-9.08a4,4,0,0,1,5.17-3c2.29.67,3.89,3.13,4.69,5.23s.62,6.38.55,7.86c1.17.18,2.35.37,3.5.5.78.07,1.54.19,2.33.22l2.33.12c1.49,0,3,.06,4.47,0,1,0,2,0,2.93,0-1.15-.25-3.38-.77-3.56-.84A15.41,15.41,0,0,1,95,324.5a4.88,4.88,0,0,1-.81-.36,4,4,0,0,1-1.42-5.78c2-2.74,8.08-2.62,10.95-1.69.17.05,1.94.86,3,1.38-.6-.4-1.19-.79-1.81-1.22-1.22-.84-2.42-1.71-3.72-2.64l-1.84-1.43c-.63-.47-1.23-1-1.85-1.56-1.42-1.23-2.8-2.55-4.15-3.91-.74,1.07-3.41,4.84-5.34,6s-4.69,2.15-6.91,1.28a4,4,0,0,1-2.28-5.5c1.54-3,7.58-3.82,10.56-3.33.19,0,2.29.62,3.43,1-.81-.82-1.62-1.64-2.41-2.5-2.29-2.49-4.53-5.07-6.77-7.64l-2.07-2.35c-.26.39-3.33,4.93-5.49,6.26-1.92,1.18-4.7,2.15-6.92,1.28a4,4,0,0,1-2.28-5.5c1.55-3,7.59-3.81,10.57-3.33.22,0,3.24.89,4,1.15-1.52-1.72-3-3.41-4.63-5a71.62,71.62,0,0,0-6.78-6.13c-.12.18-3.3,4.95-5.52,6.3-1.92,1.18-4.69,2.15-6.91,1.28a4,4,0,0,1-2.28-5.5c1.54-3,7.58-3.81,10.56-3.32.2,0,2.5.68,3.58,1l.09-.17a52,52,0,0,0-7.81-4.84c-1.5-.77-3-1.43-4.43-2-.5.95-2.84,5.25-4.7,6.7s-4.43,2.64-6.74,2a4,4,0,0,1-2.86-5.21c1.2-3.16,7.12-4.62,10.13-4.47.16,0,1.82.29,3,.5-.66-.26-1.33-.55-2-.79-2.39-.91-4.63-1.6-6.62-2.19-1.13-.33-2.17-.6-3.14-.85-1,.68-4.95,3.34-7.22,3.75s-5.16.31-6.91-1.3a4,4,0,0,1-.15-5.95c2.53-2.25,8.45-.82,11.06.71.22.13,3.5,2.6,3.45,2.64l-.06,0c.94.22,1.94.46,3,.75,2,.55,4.27,1.19,6.69,2.05A71.55,71.55,0,0,1,62,277.21a52.13,52.13,0,0,1,8,4.71l.09.07c-.59-.8-2.16-3.08-2.26-3.27-1.43-2.66-2.62-8.63-.27-11.07a4,4,0,0,1,5.94.38C75.06,269.85,75,272.79,74.55,275Z" style="fill:#8D68A6;opacity:0.30000000000000004"></path></g><g id="freepik--Floor--inject-113"><line x1="11.12" y1="458.99" x2="490.8" y2="458.99" style="fill:none;stroke:#263238;stroke-linecap:round;stroke-linejoin:round"></line></g><g id="freepik--Device--inject-113"><path d="M86.31,208.81h338.1a10.46,10.46,0,0,1,10.46,10.46V441.85a0,0,0,0,1,0,0h-359a0,0,0,0,1,0,0V219.27A10.46,10.46,0,0,1,86.31,208.81Z" style="fill:#969696;stroke:#263238;stroke-miterlimit:10"></path><rect x="90.53" y="224.65" width="329.58" height="194.94" style="fill:#fff;stroke:#263238;stroke-linecap:round;stroke-linejoin:round"></rect><rect x="132.82" y="430.63" width="246.73" height="12.16" style="fill:#263238;stroke:#263238;stroke-linecap:round;stroke-linejoin:round"></rect><rect x="132.82" y="436.48" width="246.73" height="6.3" style="fill:#fff;stroke:#263238;stroke-linecap:round;stroke-linejoin:round"></rect><path d="M46.82,450s4,4.95,16.21,9H449.34s9-2.25,13.06-8.55Z" style="fill:#263238;stroke:#263238;stroke-linecap:round;stroke-linejoin:round"></path><rect x="46" y="441.12" width="417.27" height="9.47" rx="1.89" style="fill:#969696;stroke:#263238;stroke-miterlimit:10"></rect><path d="M258.44,215.86a3.16,3.16,0,1,0-3.15,3.15A3.15,3.15,0,0,0,258.44,215.86Z" style="fill:#263238;stroke:#263238;stroke-linecap:round;stroke-linejoin:round"></path><path d="M79.24,274.39h0a.9.9,0,0,1-.9-.9V247.38a.9.9,0,0,1,.9-.9h0a.9.9,0,0,1,.9.9v26.11A.9.9,0,0,1,79.24,274.39Z" style="fill:#263238"></path></g><g id="freepik--Letter--inject-113"><rect x="139.82" y="241.08" width="230.23" height="142.28" style="fill:#263238;stroke:#263238;stroke-linecap:round;stroke-linejoin:round"></rect><path d="M139.82,241.08l109.15-81a6.66,6.66,0,0,1,7.86-.07l113.22,81.08Z" style="fill:#263238;stroke:#263238;stroke-linecap:round;stroke-linejoin:round"></path><rect x="170.33" y="163.72" width="173.74" height="185.96" style="fill:#fff;stroke:#263238;stroke-linecap:round;stroke-linejoin:round"></rect><line x1="190.21" y1="249.01" x2="322.02" y2="249.01" style="fill:none;stroke:#263238;stroke-linecap:round;stroke-linejoin:round"></line><line x1="190.21" y1="259.27" x2="322.02" y2="259.27" style="fill:none;stroke:#263238;stroke-linecap:round;stroke-linejoin:round"></line><line x1="190.21" y1="269.54" x2="322.02" y2="269.54" style="fill:none;stroke:#263238;stroke-linecap:round;stroke-linejoin:round"></line><line x1="190.21" y1="279.8" x2="322.02" y2="279.8" style="fill:none;stroke:#263238;stroke-linecap:round;stroke-linejoin:round"></line><line x1="190.21" y1="290.06" x2="322.02" y2="290.06" style="fill:none;stroke:#263238;stroke-linecap:round;stroke-linejoin:round"></line><rect x="183.9" y="188.49" width="146.61" height="44.83" rx="5.4" style="fill:#8D68A6"></rect><polygon points="139.82 241.08 254.57 302.95 370.05 241.08 370.05 383.36 139.82 383.36 139.82 241.08" style="fill:#8D68A6;stroke:#263238;stroke-linecap:round;stroke-linejoin:round"></polygon><path d="M139.82,383.36l111.63-78.22a5.44,5.44,0,0,1,6.25,0l112.35,78.23" style="fill:none;stroke:#263238;stroke-linecap:round;stroke-linejoin:round"></path><path d="M191.42,222.54l5.43-25.9h5.3l5.43,25.9H203l-1.07-6h-4.73l-1.11,6Zm6.27-9h3.69l-1.85-10.87Z" style="fill:#263238"></path><path d="M217.31,222.89a8.48,8.48,0,0,1-4.68-1.11,5.85,5.85,0,0,1-2.36-3.06,13.5,13.5,0,0,1-.67-4.46V205a14.08,14.08,0,0,1,.67-4.6,5.51,5.51,0,0,1,2.36-3,11,11,0,0,1,9.09-.14,5,5,0,0,1,2.26,2.6,10.59,10.59,0,0,1,.67,3.94V206h-4.76v-2.24a15,15,0,0,0-.12-2,2,2,0,0,0-2.43-1.95,2.29,2.29,0,0,0-2.61,2.06,11.49,11.49,0,0,0-.17,2.13v11.25a9.9,9.9,0,0,0,.23,2.32,2.39,2.39,0,0,0,.86,1.38,2.76,2.76,0,0,0,1.69.46,2.32,2.32,0,0,0,1.76-.56,2.67,2.67,0,0,0,.66-1.49,14.58,14.58,0,0,0,.13-2.08V213h4.76V215a12.22,12.22,0,0,1-.63,4.08,5.38,5.38,0,0,1-2.23,2.78A8.43,8.43,0,0,1,217.31,222.89Z" style="fill:#263238"></path><path d="M235.42,222.89a8.48,8.48,0,0,1-4.68-1.11,5.91,5.91,0,0,1-2.37-3.06,13.76,13.76,0,0,1-.67-4.46V205a14.35,14.35,0,0,1,.67-4.6,5.57,5.57,0,0,1,2.37-3,11,11,0,0,1,9.09-.14,5,5,0,0,1,2.26,2.6,10.59,10.59,0,0,1,.67,3.94V206H238v-2.24a15,15,0,0,0-.12-2,2.38,2.38,0,0,0-.64-1.42,2.41,2.41,0,0,0-1.79-.53,2.63,2.63,0,0,0-1.86.56,2.69,2.69,0,0,0-.76,1.5,12.49,12.49,0,0,0-.16,2.13v11.25a9.39,9.39,0,0,0,.23,2.32,2.39,2.39,0,0,0,.86,1.38,2.74,2.74,0,0,0,1.69.46,2.33,2.33,0,0,0,1.76-.56,2.59,2.59,0,0,0,.65-1.49,14.49,14.49,0,0,0,.14-2.08V213h4.76V215a12,12,0,0,1-.64,4.08,5.28,5.28,0,0,1-2.23,2.78A8.36,8.36,0,0,1,235.42,222.89Z" style="fill:#263238"></path><path d="M246.21,222.54v-25.9h11.41V200h-6.44v7.45h5.06v3.29h-5.06v8.57h6.5v3.26Z" style="fill:#263238"></path><path d="M260.57,222.54v-25.9h8a8,8,0,0,1,4,.87,5.15,5.15,0,0,1,2.25,2.51,9.86,9.86,0,0,1,.72,4,7.94,7.94,0,0,1-.91,4.07,5.25,5.25,0,0,1-2.53,2.26,9.58,9.58,0,0,1-3.84.7h-2.68v11.51Zm5-14.83h1.88a4.92,4.92,0,0,0,2.09-.37,2,2,0,0,0,1-1.18,6.86,6.86,0,0,0,.29-2.19,9.57,9.57,0,0,0-.22-2.29,2,2,0,0,0-.94-1.3,4.78,4.78,0,0,0-2.26-.41h-1.88Z" style="fill:#263238"></path><path d="M281,222.54V200.13h-4.33v-3.49h13.55v3.49h-4.26v22.41Z" style="fill:#263238"></path><path d="M292.66,222.54v-25.9h11.4V200h-6.44v7.45h5.07v3.29h-5.07v8.57h6.51v3.26Z" style="fill:#263238"></path><path d="M307,222.54v-25.9h6.41a12.5,12.5,0,0,1,5.18.87,5.15,5.15,0,0,1,2.65,2.65,11.41,11.41,0,0,1,.79,4.54v9.47a12.22,12.22,0,0,1-.79,4.68,5.35,5.35,0,0,1-2.62,2.78,11.35,11.35,0,0,1-5,.91Zm5-3.29h1.5a4,4,0,0,0,2.45-.58,2.5,2.5,0,0,0,.91-1.68,18.47,18.47,0,0,0,.17-2.7v-9.91a10.82,10.82,0,0,0-.24-2.53,2.19,2.19,0,0,0-1-1.4,4.76,4.76,0,0,0-2.38-.45H312Z" style="fill:#263238"></path></g></svg>
