<?xml version="1.0" encoding="UTF-8" standalone="no" ?>
<!DOCTYPE svg PUBLIC "-//W3C//DTD SVG 1.1//EN" "http://www.w3.org/Graphics/SVG/1.1/DTD/svg11.dtd">
<svg xmlns="http://www.w3.org/2000/svg" xmlns:xlink="http://www.w3.org/1999/xlink" version="1.1" width="1080" height="1080" viewBox="0 0 1080 1080" xml:space="preserve">
<desc>Created with Fabric.js 5.2.4</desc>
<defs>
</defs>
<rect x="0" y="0" width="100%" height="100%" fill="transparent"></rect>
<g transform="matrix(1 0 0 1 540 540)" id="69066449-c181-44c9-ae04-3111ee165864"  >
<rect style="stroke: none; stroke-width: 1; stroke-dasharray: none; stroke-linecap: butt; stroke-dashoffset: 0; stroke-linejoin: miter; stroke-miterlimit: 4; fill: rgb(255,255,255); fill-rule: nonzero; opacity: 1; visibility: hidden;" vector-effect="non-scaling-stroke"  x="-540" y="-540" rx="0" ry="0" width="1080" height="1080" />
</g>
<g transform="matrix(1 0 0 1 540 540)" id="4a8ddad8-08ec-4622-bfb1-7bd4a8cd5171"  >
</g>
<g transform="matrix(1.58 0 0 1.58 540 540)"  >
<g style="" vector-effect="non-scaling-stroke"   >
		<g transform="matrix(1 0 0 1 -490 -490)"  >
<rect style="stroke: none; stroke-width: 1; stroke-dasharray: none; stroke-linecap: butt; stroke-dashoffset: 0; stroke-linejoin: miter; stroke-miterlimit: 4; fill: rgb(255,255,255); fill-opacity: 0; fill-rule: nonzero; opacity: 1;" vector-effect="non-scaling-stroke"  x="-50" y="-50" rx="0" ry="0" width="100" height="100" />
</g>
		<g transform="matrix(1 0 0 1 0 0)"  >
<rect style="stroke: none; stroke-width: 1; stroke-dasharray: none; stroke-linecap: butt; stroke-dashoffset: 0; stroke-linejoin: miter; stroke-miterlimit: 4; fill: rgb(255,255,255); fill-rule: nonzero; opacity: 1; visibility: hidden;" vector-effect="non-scaling-stroke"  x="-540" y="-540" rx="0" ry="0" width="1080" height="1080" />
</g>
		<g transform="matrix(1 0 0 1 -17.12 294.56)"  >
<path style="stroke: none; stroke-width: 1; stroke-dasharray: none; stroke-linecap: butt; stroke-dashoffset: 0; stroke-linejoin: miter; stroke-miterlimit: 4; fill: rgb(63,61,86); fill-rule: nonzero; opacity: 1;" vector-effect="non-scaling-stroke"  transform=" translate(-582.88, -744.56)" d="M 892.88171 744.55677 C 892.88171 770.23677 754.09171 791.05677 582.88171 791.05677 C 411.67170999999996 791.05677 272.88171 770.23677 272.88171 744.55677 C 272.88171 726.3767700000001 342.45171 710.6267700000001 443.84171000000003 702.98677 C 485.65171000000004 699.82677 532.89171 698.05677 582.88171 698.05677 C 603.43171 698.05677 623.51171 698.35677 642.93171 698.92677 C 785.40173 703.12678 892.88171 721.95673 892.88171 744.55677 Z" stroke-linecap="round" />
</g>
		<g transform="matrix(1 0 0 1 -57.12 289.56)"  >
<ellipse style="stroke: none; stroke-width: 1; stroke-dasharray: none; stroke-linecap: butt; stroke-dashoffset: 0; stroke-linejoin: miter; stroke-miterlimit: 4; fill: rgb(0,0,0); fill-rule: nonzero; opacity: 0.1;" vector-effect="non-scaling-stroke"  cx="0" cy="0" rx="119" ry="14.5" />
</g>
		<g transform="matrix(1 0 0 1 -57.62 180.06)"  >
<ellipse style="stroke: none; stroke-width: 1; stroke-dasharray: none; stroke-linecap: butt; stroke-dashoffset: 0; stroke-linejoin: miter; stroke-miterlimit: 4; fill: rgb(63,61,86); fill-rule: nonzero; opacity: 1;" vector-effect="non-scaling-stroke"  cx="0" cy="0" rx="112.5" ry="120" />
</g>
		<g transform="matrix(1 0 0 1 -57.12 283.06)"  >
<rect style="stroke: none; stroke-width: 1; stroke-dasharray: none; stroke-linecap: butt; stroke-dashoffset: 0; stroke-linejoin: miter; stroke-miterlimit: 4; fill: rgb(94,63,115); fill-rule: nonzero; opacity: 1;" vector-effect="non-scaling-stroke"  x="-35" y="-32" rx="0" ry="0" width="70" height="64" />
</g>
		<g transform="matrix(1 0 0 1 86.88 279.56)"  >
<polygon style="stroke: none; stroke-width: 1; stroke-dasharray: none; stroke-linecap: butt; stroke-dashoffset: 0; stroke-linejoin: miter; stroke-miterlimit: 4; fill: rgb(87,90,137); fill-rule: nonzero; opacity: 1;" vector-effect="non-scaling-stroke"  points="-17.5,-13 -21.5,9 4.5,13 21.5,3 20.5,-13 -17.5,-13 " />
</g>
		<g transform="matrix(1 0 0 1 -42.1 -114.23)"  >
<path style="stroke: none; stroke-width: 1; stroke-dasharray: none; stroke-linecap: butt; stroke-dashoffset: 0; stroke-linejoin: miter; stroke-miterlimit: 4; fill: rgb(160,97,106); fill-rule: nonzero; opacity: 1;" vector-effect="non-scaling-stroke"  transform=" translate(-557.9, -335.77)" d="M 538.38171 303.55677 C 538.38171 303.55677 536.38171 326.55677 531.38171 327.55677 C 526.38171 328.55677 542.38171 368.55677 542.38171 368.55677 L 566.38171 368.55677 L 585.38171 363.55677 L 576.38171 341.55677 C 576.38171 341.55677 564.38171 325.55677 573.38171 312.55677 C 582.38171 299.55677 538.38171 303.55677 538.38171 303.55677 Z" stroke-linecap="round" />
</g>
		<g transform="matrix(1 0 0 1 -42.1 -114.23)"  >
<path style="stroke: none; stroke-width: 1; stroke-dasharray: none; stroke-linecap: butt; stroke-dashoffset: 0; stroke-linejoin: miter; stroke-miterlimit: 4; fill: rgb(0,0,0); fill-rule: nonzero; opacity: 0.1;" vector-effect="non-scaling-stroke"  transform=" translate(-557.9, -335.77)" d="M 538.38171 303.55677 C 538.38171 303.55677 536.38171 326.55677 531.38171 327.55677 C 526.38171 328.55677 542.38171 368.55677 542.38171 368.55677 L 566.38171 368.55677 L 585.38171 363.55677 L 576.38171 341.55677 C 576.38171 341.55677 564.38171 325.55677 573.38171 312.55677 C 582.38171 299.55677 538.38171 303.55677 538.38171 303.55677 Z" stroke-linecap="round" />
</g>
		<g transform="matrix(1 0 0 1 0.12 150.08)"  >
<path style="stroke: none; stroke-width: 1; stroke-dasharray: none; stroke-linecap: butt; stroke-dashoffset: 0; stroke-linejoin: miter; stroke-miterlimit: 4; fill: rgb(47,46,65); fill-rule: nonzero; opacity: 1;" vector-effect="non-scaling-stroke"  transform=" translate(-600.12, -600.08)" d="M 488.38171 479.55677 C 488.38171 479.55677 462.38171 529.5567699999999 483.38171 539.5567699999999 C 504.38171 549.5567699999999 509.38171 548.5567699999999 509.38171 551.5567699999999 C 509.38171 554.5567699999999 505.38171 553.5567699999999 507.38171 558.5567699999999 C 509.38171 563.5567699999999 503.38171 583.5567699999999 509.38171 595.5567699999999 C 515.38171 607.5567699999999 513.38171 616.5567699999999 513.38171 616.5567699999999 C 513.38171 616.5567699999999 513.38171 617.5567699999999 515.38171 621.5567699999999 C 517.38171 625.5567699999999 518.38171 628.5567699999999 517.38171 630.5567699999999 C 516.38171 632.5567699999999 510.38171 645.5567699999999 516.38171 648.5567699999999 C 522.38171 651.5567699999999 553.38171 653.5567699999999 556.38171 648.5567699999999 C 559.38171 643.5567699999999 553.38171 640.5567699999999 556.38171 637.5567699999999 C 559.38171 634.5567699999999 561.38171 633.5567699999999 559.38171 631.5567699999999 C 557.38171 629.5567699999999 555.38171 604.5567699999999 555.38171 604.5567699999999 C 555.38171 604.5567699999999 560.38171 575.5567699999999 558.38171 571.5567699999999 C 556.38171 567.5567699999999 553.38171 563.5567699999999 555.38171 560.5567699999999 C 557.38171 557.5567699999999 559.38171 558.5567699999999 560.38171 554.5567699999999 C 561.38171 550.5567699999999 563.38171 541.5567699999999 563.38171 541.5567699999999 L 574.38171 540.5567699999999 L 600.38171 545.5567699999999 C 600.38171 545.5567699999999 629.38171 577.5567699999999 661.38171 587.5567699999999 C 661.38171 587.5567699999999 670.38171 596.5567699999999 673.38171 596.5567699999999 C 676.38171 596.5567699999999 676.38171 596.5567699999999 675.38171 598.5567699999999 C 674.38171 600.5567699999999 671.38171 600.5567699999999 673.38171 602.5567699999999 C 675.38171 604.5567699999999 678.38171 601.5567699999999 676.38171 604.5567699999999 C 674.38171 607.5567699999999 672.38171 607.5567699999999 674.38171 609.5567699999999 C 676.38171 611.5567699999999 673.38171 622.5567699999999 673.38171 623.5567699999999 C 673.38171 624.5567699999999 664.38171 718.5567699999999 667.38171 720.5567699999999 C 670.38171 722.5567699999999 712.38171 728.5567699999999 715.38171 720.5567699999999 C 718.38171 712.5567699999999 713.38171 702.5567699999999 713.38171 702.5567699999999 C 713.38171 702.5567699999999 728.38171 582.5567699999999 724.38171 574.5567699999999 C 720.38171 566.5567699999999 706.38171 530.5567699999999 631.38171 507.5567699999999 C 631.38171 507.5567699999999 610.38171 503.5567699999999 610.38171 500.5567699999999 C 610.38171 497.5567699999999 608.38171 478.5567699999999 604.38171 477.5567699999999 C 600.38171 476.5567699999999 577.38171 475.5567699999999 577.38171 475.5567699999999 L 548.38171 484.5567699999999 L 508.38171 477.5567699999999 Z" stroke-linecap="round" />
</g>
		<g transform="matrix(1 0 0 1 -61.38 229.8)"  >
<path style="stroke: none; stroke-width: 1; stroke-dasharray: none; stroke-linecap: butt; stroke-dashoffset: 0; stroke-linejoin: miter; stroke-miterlimit: 4; fill: rgb(47,46,65); fill-rule: nonzero; opacity: 1;" vector-effect="non-scaling-stroke"  transform=" translate(-538.62, -679.8)" d="M 523.38171 647.55677 L 518.38171 665.55677 C 518.38171 665.55677 514.38171 694.55677 519.38171 701.55677 C 523.3091 707.05511 530.32136 713.7874 543.3262 714.96897 C 550.834579645294 715.6577871470636 557.812347585957 711.0342046715441 560.10475 703.85123 C 560.253972002487 703.4339059958336 560.3471193604338 702.9986152775384 560.38175 702.55677 C 560.38175 700.55677 557.38175 676.55677 557.38175 676.55677 L 552.38175 651.55677 L 551.38175 644.55677 Z" stroke-linecap="round" />
</g>
		<g transform="matrix(1 0 0 1 111.12 296.4)"  >
<path style="stroke: none; stroke-width: 1; stroke-dasharray: none; stroke-linecap: butt; stroke-dashoffset: 0; stroke-linejoin: miter; stroke-miterlimit: 4; fill: rgb(47,46,65); fill-rule: nonzero; opacity: 1;" vector-effect="non-scaling-stroke"  transform=" translate(-711.12, -746.4)" d="M 669.38171 733.55677 C 669.38171 733.55677 664.38171 728.55677 663.38171 733.55677 C 662.38171 738.55677 658.38171 759.55677 665.38171 760.55677 C 672.38171 761.55677 739.38171 771.55677 746.38171 767.55677 C 753.38171 763.55677 766.38171 757.55677 758.38171 754.55677 C 750.38171 751.55677 727.38171 742.55677 727.38171 742.55677 C 727.38171 742.55677 714.38171 725.55677 712.38171 724.55677 C 710.38171 723.55677 699.38171 725.55677 694.38171 729.55677 C 689.38171 733.55677 669.38171 733.55677 669.38171 733.55677 Z" stroke-linecap="round" />
</g>
		<g transform="matrix(1 0 0 1 -37.62 -156.44)"  >
<circle style="stroke: none; stroke-width: 1; stroke-dasharray: none; stroke-linecap: butt; stroke-dashoffset: 0; stroke-linejoin: miter; stroke-miterlimit: 4; fill: rgb(160,97,106); fill-rule: nonzero; opacity: 1;" vector-effect="non-scaling-stroke"  cx="0" cy="0" r="31" />
</g>
		<g transform="matrix(1 0 0 1 -54.26 -43.45)"  >
<path style="stroke: none; stroke-width: 1; stroke-dasharray: none; stroke-linecap: butt; stroke-dashoffset: 0; stroke-linejoin: miter; stroke-miterlimit: 4; fill: rgb(87,90,137); fill-rule: nonzero; opacity: 1;" vector-effect="non-scaling-stroke"  transform=" translate(-545.74, -406.55)" d="M 559.38171 363.55677 L 547.38171 350.55677 L 534.08024 324.55677 C 534.08024 324.55677 524.38171 321.55677 522.38171 326.55677 C 520.38171 331.55677 484.38171 347.55677 484.38171 347.55677 C 484.38171 347.55677 493.38171 431.55677 489.38171 439.55677 C 485.38171 447.55677 478.38171 479.55677 484.38171 482.55677 C 490.38171 485.55677 518.38171 482.55677 527.38171 486.55677 C 536.38171 490.55677 562.38171 490.55677 569.38171 485.55677 C 576.38171 480.55677 578.38171 476.55677 585.38171 479.55677 C 591.34097 482.11076999999995 605.27246 394.79576999999995 609.28335 368.77576999999997 C 609.9727613023995 364.3175746146437 608.0697285527566 359.8548519825515 604.3752800000001 357.26606 C 595.4025200000001 350.97222 579.24251 340.12640999999996 576.3817100000001 341.55681 C 572.38171 343.55677 559.38171 363.55677 559.38171 363.55677 Z" stroke-linecap="round" />
</g>
		<g transform="matrix(1 0 0 1 3.12 -36.92)"  >
<path style="stroke: none; stroke-width: 1; stroke-dasharray: none; stroke-linecap: butt; stroke-dashoffset: 0; stroke-linejoin: miter; stroke-miterlimit: 4; fill: rgb(87,90,137); fill-rule: nonzero; opacity: 1;" vector-effect="non-scaling-stroke"  transform=" translate(-603.12, -413.08)" d="M 602.38171 359.55677 L 602.38171 359.55677 C 607.1908883254147 360.75906417061424 610.7449145205401 364.82567154399567 611.29234 369.75253999999995 L 619.3816999999999 442.55677 C 619.3816999999999 442.55677 599.3816999999999 485.55677 589.3816999999999 456.55677 C 579.3816999999999 427.55677 602.38171 359.55677 602.38171 359.55677 Z" stroke-linecap="round" />
</g>
		<g transform="matrix(1 0 0 1 7.63 14.64)"  >
<path style="stroke: none; stroke-width: 1; stroke-dasharray: none; stroke-linecap: butt; stroke-dashoffset: 0; stroke-linejoin: miter; stroke-miterlimit: 4; fill: rgb(87,90,137); fill-rule: nonzero; opacity: 1;" vector-effect="non-scaling-stroke"  transform=" translate(-607.63, -464.64)" d="M 600.38171 449.55677 L 622.38171 443.55677 C 622.38171 443.55677 626.38171 471.55677 630.38171 471.55677 C 634.38171 471.55677 616.38171 487.55677 607.38171 485.55677 C 598.38171 483.55677 585.38171 476.55677 584.38171 471.55677 C 583.38171 466.55677 593.38171 445.55677 593.38171 445.55677 Z" stroke-linecap="round" />
</g>
		<g transform="matrix(1 0 0 1 -42.53 -176.34)"  >
<path style="stroke: none; stroke-width: 1; stroke-dasharray: none; stroke-linecap: butt; stroke-dashoffset: 0; stroke-linejoin: miter; stroke-miterlimit: 4; fill: rgb(47,46,65); fill-rule: nonzero; opacity: 1;" vector-effect="non-scaling-stroke"  transform=" translate(-557.47, -273.66)" d="M 538.98 306.92974 C 541.08792 302.28173999999996 540.72193 296.86008 542.46463 292.06320999999997 C 544.3562185359084 286.85653338737274 548.573024718407 282.833461115668 553.8628479338403 281.1886635940494 C 559.1526711492736 279.54386607243083 564.9072666558388 280.46646860870374 569.4177800000001 283.68249999999995 C 571.65956 285.28090999999995 573.9070600000001 287.52666999999997 576.6433700000001 287.22149999999993 C 579.5900800000002 286.8929099999999 582.2183700000002 283.60556999999994 584.9275700000002 284.81033999999994 C 587.9303400000002 286.14566999999994 587.1193100000002 291.52709999999996 590.1614800000002 292.77005999999994 C 591.7627800000002 293.42431999999997 593.6550300000002 292.41694999999993 594.5786300000002 290.95435999999995 C 595.386344980171 289.4173947692348 595.8264924936589 287.7140040725112 595.8644600000002 285.97813999999994 C 596.2842200000002 281.7130599999999 596.6635500000002 277.19913999999994 594.8138400000003 273.33320999999995 C 594.035818880361 272.0228687394405 593.3577968452544 270.6556796876662 592.7855500000003 269.24328999999994 C 592.4619284991436 267.92432931814477 592.3320298941193 266.56528356434154 592.3999400000002 265.20889999999997 C 592.3830500000003 260.19581 592.0171300000003 254.96674999999996 589.4942600000003 250.63472999999996 C 586.6947100000003 245.82761999999997 581.5197900000003 242.75372999999996 576.1210000000003 241.41245999999995 C 570.7222100000004 240.07118999999994 565.0660000000004 240.27684999999994 559.5229300000003 240.74610999999996 C 550.3596900000003 241.52184999999997 540.8036600000003 243.18468999999996 533.5843700000003 248.88110999999995 C 532.6031008606678 249.59794338538447 531.7585711076758 250.48520837072746 531.0910100000002 251.50063999999995 C 530.4573263171623 252.7069213847714 530.0095679340369 254.00203615207874 529.7629000000002 255.34211999999994 C 528.2020449113835 261.6982434260087 525.8617666218603 267.8371427867884 522.7952600000002 273.61927999999995 C 521.3201908252565 276.07049468168174 520.1146973603209 278.67412962168913 519.1998300000002 281.38471999999996 C 518.4342400000003 284.13913999999994 518.4859600000002 287.27815 520.0885300000002 289.64556999999996 C 521.3932800000002 291.57302 523.4791800000003 292.6002 525.1179800000002 294.17600999999996 C 526.7418500000002 295.73747 527.5016600000002 298.74038999999993 529.3005000000002 299.92274 C 530.8708300000002 300.95489 532.7518000000001 300.2263 534.3534000000002 301.32025999999996 C 536.40966 302.72479 536.55818 305.80443 538.98 306.92974 Z" stroke-linecap="round" />
</g>
		<g transform="matrix(1 0 0 1 15.38 -53.44)"  >
<path style="stroke: none; stroke-width: 1; stroke-dasharray: none; stroke-linecap: butt; stroke-dashoffset: 0; stroke-linejoin: miter; stroke-miterlimit: 4; fill: rgb(242,242,242); fill-rule: nonzero; opacity: 1;" vector-effect="non-scaling-stroke"  transform=" translate(-615.38, -396.56)" d="M 564.38171 378.55677 L 567.38171 372.55677 C 567.38171 372.55677 611.38171 385.55677 620.38171 397.55677 C 620.38171 397.55677 642.38171 383.55677 654.38171 385.55677 L 666.38171 387.55677 L 629.38171 420.55677 L 582.38171 416.55677 Z" stroke-linecap="round" />
</g>
		<g transform="matrix(1 0 0 1 -6.12 -33.78)"  >
<path style="stroke: none; stroke-width: 1; stroke-dasharray: none; stroke-linecap: butt; stroke-dashoffset: 0; stroke-linejoin: miter; stroke-miterlimit: 4; fill: rgb(94,63,115); fill-rule: nonzero; opacity: 1;" vector-effect="non-scaling-stroke"  transform=" translate(-593.88, -416.22)" d="M 562.38171 372.55677 L 521.38171 429.55677 L 580.38171 458.55677 C 580.38171 458.55677 585.89743 461.55677 590.13957 458.55677 L 629.38171 440.55677 L 666.38171 387.55677 L 629.38171 406.55677 C 629.38171 406.55677 625.38171 398.55677 617.38171 402.55677 Z" stroke-linecap="round" />
</g>
		<g transform="matrix(1 0 0 1 32.39 -4.84)"  >
<path style="stroke: none; stroke-width: 1; stroke-dasharray: none; stroke-linecap: butt; stroke-dashoffset: 0; stroke-linejoin: miter; stroke-miterlimit: 4; fill: rgb(160,97,106); fill-rule: nonzero; opacity: 1;" vector-effect="non-scaling-stroke"  transform=" translate(-632.39, -445.16)" d="M 625.38171 473.55677 L 633.38171 452.55677 C 633.38171 452.55677 651.38171 429.55677 641.38171 418.55677 C 631.38171 407.55677 620.38171 450.55677 620.38171 450.55677 Z" stroke-linecap="round" />
</g>
		<g transform="matrix(1 0 0 1 -46.08 -1.48)"  >
<path style="stroke: none; stroke-width: 1; stroke-dasharray: none; stroke-linecap: butt; stroke-dashoffset: 0; stroke-linejoin: miter; stroke-miterlimit: 4; fill: rgb(160,97,106); fill-rule: nonzero; opacity: 1;" vector-effect="non-scaling-stroke"  transform=" translate(-553.92, -448.52)" d="M 533.07939 470.20556 L 550.53563 456.05356 C 550.53563 456.05356 577.64563 445.18856 574.51414 430.6561 C 571.38265 416.12363999999997 540.29361 447.80123 540.29361 447.80123 Z" stroke-linecap="round" />
</g>
		<g transform="matrix(1 0 0 1 -96.3 -25.29)"  >
<path style="stroke: none; stroke-width: 1; stroke-dasharray: none; stroke-linecap: butt; stroke-dashoffset: 0; stroke-linejoin: miter; stroke-miterlimit: 4; fill: rgb(0,0,0); fill-rule: nonzero; opacity: 0.1;" vector-effect="non-scaling-stroke"  transform=" translate(-503.7, -424.71)" d="M 489.88171 369.05677 L 488.88171 369.05677 C 488.88171 369.05677 473.38171 350.55677 470.38171 375.55677 C 467.38171 400.55677 457.38171 483.55677 483.38171 486.55677 C 509.38171 489.55677 527.88171 474.05677 527.88171 474.05677 C 527.88171 474.05677 546.88171 445.05677 539.88171 445.05677 C 536.4948 445.05677 527.28336 443.53560999999996 518.88171 444.05677 C 509.91899 444.61276999999995 501.86556 447.13755 502.38171 444.55677 C 503.38171 439.55677 517.88171 376.05677 489.88171 369.05677 Z" stroke-linecap="round" />
</g>
		<g transform="matrix(1 0 0 1 -98.27 -32.57)"  >
<path style="stroke: none; stroke-width: 1; stroke-dasharray: none; stroke-linecap: butt; stroke-dashoffset: 0; stroke-linejoin: miter; stroke-miterlimit: 4; fill: rgb(87,90,137); fill-rule: nonzero; opacity: 1;" vector-effect="non-scaling-stroke"  transform=" translate(-501.73, -417.43)" d="M 488.38171 349.55677 L 484.38171 347.55677 C 484.38171 347.55677 468.38171 350.55677 465.38171 375.55677 C 462.38171 400.55677 452.38171 483.55677 478.38171 486.55677 C 504.38171 489.55677 539.38171 482.55677 539.38171 482.55677 C 539.38171 482.55677 546.38171 444.55677 539.38171 444.55677 C 532.38171 444.55677 496.38171 449.55677 497.38171 444.55677 C 498.38171 439.55677 516.38171 356.55677 488.38171 349.55677 Z" stroke-linecap="round" />
</g>
		<g transform="matrix(1 0 0 1 19.88 13.11)"  >
<polygon style="stroke: none; stroke-width: 1; stroke-dasharray: none; stroke-linecap: butt; stroke-dashoffset: 0; stroke-linejoin: miter; stroke-miterlimit: 4; fill: rgb(87,90,137); fill-rule: nonzero; opacity: 1;" vector-effect="non-scaling-stroke"  points="-9,-1.05 2.03,-17.95 9,9.95 -9,17.95 -9,-1.05 " />
</g>
		<g transform="matrix(1 0 0 1 -215.65 -255.94)"  >
<circle style="stroke: none; stroke-width: 1; stroke-dasharray: none; stroke-linecap: butt; stroke-dashoffset: 0; stroke-linejoin: miter; stroke-miterlimit: 4; fill: rgb(242,242,242); fill-rule: nonzero; opacity: 1;" vector-effect="non-scaling-stroke"  cx="0" cy="0" r="27" />
</g>
		<g transform="matrix(1 0 0 1 -215.65 -22.94)"  >
<rect style="stroke: none; stroke-width: 1; stroke-dasharray: none; stroke-linecap: butt; stroke-dashoffset: 0; stroke-linejoin: miter; stroke-miterlimit: 4; fill: rgb(242,242,242); fill-rule: nonzero; opacity: 1;" vector-effect="non-scaling-stroke"  x="-32" y="-32" rx="0" ry="0" width="64" height="64" />
</g>
		<g transform="matrix(1 0 0 1 44.88 -313)"  >
<polygon style="stroke: none; stroke-width: 1; stroke-dasharray: none; stroke-linecap: butt; stroke-dashoffset: 0; stroke-linejoin: miter; stroke-miterlimit: 4; fill: rgb(242,242,242); fill-rule: nonzero; opacity: 1;" vector-effect="non-scaling-stroke"  points="0,-28.06 16.2,0 32.4,28.06 0,28.06 -32.4,28.06 -16.2,0 0,-28.06 " />
</g>
		<g transform="matrix(1 0 0 1 265.44 -192.46)"  >
<path style="stroke: none; stroke-width: 1; stroke-dasharray: none; stroke-linecap: butt; stroke-dashoffset: 0; stroke-linejoin: miter; stroke-miterlimit: 4; fill: rgb(94,63,115); fill-rule: nonzero; opacity: 1;" vector-effect="non-scaling-stroke"  transform=" translate(-865.44, -257.54)" d="M 927.11829 277.17226 Q 926.53751 295.12765 918.37316 305.95578 Q 910.20745 316.78509 898.97171 316.78607 Q 889.8199500000001 316.78607 882.92929 306.18746 Q 876.03646 295.58905999999996 876.03729 273.58154 Q 876.03729 268.71674 876.2689799999999 264.31512000000004 Q 876.49987 259.91448 876.8481899999999 255.97544000000005 L 880.9022799999999 217.86744000000004 L 854.14538 217.86744000000004 Q 847.196 290.14515 842.73627 303.871 Q 838.2761399999999 317.59655999999995 827.62059 317.597 C 824.41404747047 317.5181216834691 821.3543978404018 316.2363960076957 819.04904 314.00627 C 816.3423612552767 311.60783346157484 814.8543853407756 308.1216733696417 814.99494 304.50797 Q 814.99494 299.18197 823.39254 289.62397 Q 831.78975 280.06786 832.7168800000001 272.19164 L 839.66664 217.86741 L 828.43149 217.86741 C 825.2641057436198 217.88630342630123 822.1469322487734 218.66058386435287 819.33884 220.12595000000002 C 816.7541953807956 221.3130395144197 814.50523787521 223.12410647042373 812.7943300000001 225.39619000000002 L 807.8134900000001 232.80932 L 803.7594 232.80932 Q 809.43352 215.20412000000002 817.71704 206.34226 Q 825.99704 197.4812 836.77097 197.48126000000002 L 925.2652 197.48126000000002 L 925.2652 217.86737000000002 L 895.381 217.86737000000002 Q 893.9908899999999 231.76700000000002 893.23811 245.66637000000003 Q 892.48356 259.56600000000003 892.48533 273.58147 Q 892.48533 283.08047000000005 896.88695 288.98695000000004 Q 901.2875899999999 294.89433 907.89081 294.89413 Q 911.94393 294.89413 916.4042499999999 291.59281000000004 C 919.2614413086619 289.5885392219706 921.1015887106153 286.4370873898502 921.4428099999999 282.96373000000006 Q 921.7903499999999 280.41706000000005 921.9638999999999 278.9675500000001 Q 922.1376699999998 277.52060000000006 922.1378999999998 277.17219000000006 Z" stroke-linecap="round" />
</g>
		<g transform="matrix(1 0 0 1 265.44 -192.46)"  >
<path style="stroke: none; stroke-width: 1; stroke-dasharray: none; stroke-linecap: butt; stroke-dashoffset: 0; stroke-linejoin: miter; stroke-miterlimit: 4; fill: rgb(0,0,0); fill-rule: nonzero; opacity: 0.1;" vector-effect="non-scaling-stroke"  transform=" translate(-865.44, -257.54)" d="M 927.11829 277.17226 Q 926.53751 295.12765 918.37316 305.95578 Q 910.20745 316.78509 898.97171 316.78607 Q 889.8199500000001 316.78607 882.92929 306.18746 Q 876.03646 295.58905999999996 876.03729 273.58154 Q 876.03729 268.71674 876.2689799999999 264.31512000000004 Q 876.49987 259.91448 876.8481899999999 255.97544000000005 L 880.9022799999999 217.86744000000004 L 854.14538 217.86744000000004 Q 847.196 290.14515 842.73627 303.871 Q 838.2761399999999 317.59655999999995 827.62059 317.597 C 824.41404747047 317.5181216834691 821.3543978404018 316.2363960076957 819.04904 314.00627 C 816.3423612552767 311.60783346157484 814.8543853407756 308.1216733696417 814.99494 304.50797 Q 814.99494 299.18197 823.39254 289.62397 Q 831.78975 280.06786 832.7168800000001 272.19164 L 839.66664 217.86741 L 828.43149 217.86741 C 825.2641057436198 217.88630342630123 822.1469322487734 218.66058386435287 819.33884 220.12595000000002 C 816.7541953807956 221.3130395144197 814.50523787521 223.12410647042373 812.7943300000001 225.39619000000002 L 807.8134900000001 232.80932 L 803.7594 232.80932 Q 809.43352 215.20412000000002 817.71704 206.34226 Q 825.99704 197.4812 836.77097 197.48126000000002 L 925.2652 197.48126000000002 L 925.2652 217.86737000000002 L 895.381 217.86737000000002 Q 893.9908899999999 231.76700000000002 893.23811 245.66637000000003 Q 892.48356 259.56600000000003 892.48533 273.58147 Q 892.48533 283.08047000000005 896.88695 288.98695000000004 Q 901.2875899999999 294.89433 907.89081 294.89413 Q 911.94393 294.89413 916.4042499999999 291.59281000000004 C 919.2614413086619 289.5885392219706 921.1015887106153 286.4370873898502 921.4428099999999 282.96373000000006 Q 921.7903499999999 280.41706000000005 921.9638999999999 278.9675500000001 Q 922.1376699999998 277.52060000000006 922.1378999999998 277.17219000000006 Z" stroke-linecap="round" />
</g>
		<g transform="matrix(1 0 0 1 265.44 -196.08)"  >
<path style="stroke: none; stroke-width: 1; stroke-dasharray: none; stroke-linecap: butt; stroke-dashoffset: 0; stroke-linejoin: miter; stroke-miterlimit: 4; fill: rgb(94,63,115); fill-rule: nonzero; opacity: 1;" vector-effect="non-scaling-stroke"  transform=" translate(-865.44, -253.92)" d="M 927.11829 273.55326 Q 926.53751 291.50865000000005 918.37316 302.33678000000003 Q 910.20745 313.16609000000005 898.97171 313.16707 Q 889.8199500000001 313.16707 882.92929 302.56847000000005 Q 876.03646 291.97006000000005 876.03729 269.96254000000005 Q 876.03729 265.09774000000004 876.2689799999999 260.69612000000006 Q 876.49987 256.29548000000005 876.8481899999999 252.35645000000005 L 880.9022799999999 214.24839000000006 L 854.14538 214.24839000000006 Q 847.196 286.52615 842.73627 300.252 Q 838.2761399999999 313.97757 827.62059 313.978 C 824.41404747047 313.8991216834691 821.3543978404018 312.61739600769573 819.04904 310.38727 C 816.342361661564 307.9888374139337 814.8543855151308 304.50268044890913 814.99494 300.88898 Q 814.99494 295.56298 823.39254 286.00498 Q 831.78975 276.44885999999997 832.7168800000001 268.57265 L 839.66664 214.24841 L 828.43149 214.24841 C 825.2641057436198 214.26730342630123 822.1469322487734 215.04158386435287 819.33884 216.50695000000002 C 816.7541953807956 217.6940395144197 814.50523787521 219.50510647042373 812.7943300000001 221.77719000000002 L 807.8134900000001 229.19033000000002 L 803.7594 229.19033000000002 Q 809.43352 211.58511000000001 817.71704 202.72327 Q 825.99704 193.8622 836.77097 193.86227000000002 L 925.2652 193.86227000000002 L 925.2652 214.24838000000003 L 895.381 214.24838000000003 Q 893.9908899999999 228.14801000000003 893.23811 242.04744000000002 Q 892.48356 255.94706000000002 892.48533 269.96253 Q 892.48533 279.46153000000004 896.88695 285.36801 Q 901.2875899999999 291.27539 907.89081 291.27519 Q 911.94393 291.27519 916.4042499999999 287.97387000000003 C 919.2614413086619 285.9695992219706 921.1015887106153 282.8181473898502 921.4428099999999 279.34479000000005 Q 921.7903499999999 276.79812000000004 921.9638999999999 275.34862000000004 Q 922.1376699999998 273.90162000000004 922.1378999999998 273.55325000000005 Z" stroke-linecap="round" />
</g>
		<g transform="matrix(1 -0.15 0.06 0.4 -42.78 -195.22)"  >
<circle style="stroke: rgb(0,0,0); stroke-width: 0; stroke-dasharray: none; stroke-linecap: butt; stroke-dashoffset: 0; stroke-linejoin: miter; stroke-miterlimit: 4; fill: rgb(255,255,255); fill-rule: nonzero; opacity: 1;" vector-effect="non-scaling-stroke"  cx="0" cy="0" r="35" />
</g>
		<g transform="matrix(1.06 -0.08 0.02 0.23 -42.22 -186.02)"  >
<rect style="stroke: rgb(0,0,0); stroke-width: 0; stroke-dasharray: none; stroke-linecap: butt; stroke-dashoffset: 0; stroke-linejoin: miter; stroke-miterlimit: 4; fill: rgb(255,255,255); fill-rule: nonzero; opacity: 1;" vector-effect="non-scaling-stroke"  x="-33.0835" y="-33.0835" rx="0" ry="0" width="66.167" height="66.167" />
</g>
</g>
</g>
</svg>