<svg xmlns="http://www.w3.org/2000/svg" viewBox="0 0 500 500"><g id="freepik--Floor--inject-18"><path id="freepik--floor--inject-18" d="M79.17,243.61c-94.86,54.76-94.85,143.56,0,198.32s248.65,54.77,343.51,0,94.85-143.56,0-198.32S174,188.84,79.17,243.61Z" style="fill:#f5f5f5"></path></g><g id="freepik--Plants--inject-18"><g id="freepik--plants--inject-18"><path d="M437.38,382.16,447.49,388c-.16-4.16-.52-10.34.05-14.51,3.52-25.47,13.45-33.87,18.17-46.27,5-13.06-1.09-17.26-9-14.92-7,2.1-17.18,12.49-20.38,31.5C434.24,356.42,436.17,371.07,437.38,382.16Z" style="fill:#BA68C8"></path><path d="M437.38,382.16,447.49,388c-.16-4.16-.52-10.34.05-14.51,3.52-25.47,13.45-33.87,18.17-46.27,5-13.06-1.09-17.26-9-14.92-7,2.1-17.18,12.49-20.38,31.5C434.24,356.42,436.17,371.07,437.38,382.16Z" style="fill:#fff;opacity:0.65"></path><path d="M442,384.81l1.17.67c-4.17-29.7,6-55.46,16-66.1a.52.52,0,0,0,0-.72.53.53,0,0,0-.73,0C448.42,329.33,438.27,355.26,442,384.81Z" style="fill:#fff"></path><path d="M444.21,386.08l6.56,3.79h0c3.48-10.27,7.07-14.38,11.51-21.13,4-6.15,8.76-10,11.27-14.27,2.21-3.83,3.88-8.63.59-11.54-5.25-4.63-12.09.27-16.79,5.56C453.29,353.07,445.11,365.25,444.21,386.08Z" style="fill:#BA68C8"></path><path d="M444.21,386.08l6.56,3.79h0c3.48-10.27,7.07-14.38,11.51-21.13,4-6.15,8.76-10,11.27-14.27,2.21-3.83,3.88-8.63.59-11.54-5.25-4.63-12.09.27-16.79,5.56C453.29,353.07,445.11,365.25,444.21,386.08Z" style="fill:#fff;opacity:0.30000000000000004"></path><path d="M446.9,387.64l1,.55c2.75-16.24,13.78-35,20.64-39.47a.52.52,0,0,0-.57-.88C460.83,352.45,449.83,371.15,446.9,387.64Z" style="fill:#fff"></path></g></g><g id="freepik--Shadows--inject-18"><ellipse id="freepik--Shadow--inject-18" cx="403.06" cy="402.81" rx="52.64" ry="30.39" style="fill:#e0e0e0"></ellipse><path id="freepik--shadow--inject-18" d="M173.32,447l39.13-22.6c.56-.32.56-.84,0-1.17l-61.29-35.38a2.18,2.18,0,0,0-2,0L110,410.41a.62.62,0,0,0,0,1.17L171.3,447A2.25,2.25,0,0,0,173.32,447Z" style="fill:#e0e0e0"></path></g><g id="freepik--Brain--inject-18"><g id="freepik--brain--inject-18"><path d="M301,236.9s4.78,5,1.46,13.74c-3.18,8.48-13.61,9.41-13.61,9.41s1.38,14.2-21.33,14.82a14.32,14.32,0,0,0-.06-3s10.45.11,10.62-16.25-12-19.46-12-19.46A14.68,14.68,0,0,0,268,223.14c-3-9.11-9.26-8.46-9.26-8.46s4.56-3.16,2.56-11.61c-1.86-7.85-7.64-9.15-7.64-9.15s4.29-7.52-3.54-18.33-15.85-9.6-15.85-9.6a24.67,24.67,0,0,0-5.54-14.24c-5.56-6.81-14.34-6.31-14.34-6.31A23.85,23.85,0,0,0,207,127.51c-8.32-8.33-16.67-8.38-16.67-8.38a14.14,14.14,0,0,0-5.61-12c-7.67-6.1-15.07-2.92-15.07-2.92s-1.43-10.33-10.24-12.73c-11.5-3.09-17.2,3.46-17.2,3.46s-3.83-5.28-12.58-7.15A41.54,41.54,0,0,1,141.28,77.7c10.38-5.89,26.07-1,26.07-1A19.43,19.43,0,0,1,181,73.53,16.58,16.58,0,0,1,192.68,81s4.8-3.33,16.44-2,14.42,10.65,14.42,10.65,7.62-.39,16.21,5.4,8.61,17.27,8.61,17.27,10.4-2.29,19.5,7.6,5.08,18.63,5.08,18.63a21.65,21.65,0,0,1,16.2,11.5,20.54,20.54,0,0,1,0,19.93,9.79,9.79,0,0,1,5.81,5.89c1.78,4.69,0,7.41,0,7.41s8.86,4.25,11.15,13.81S303.81,212,303.81,212a15.64,15.64,0,0,1,7.34,13.65C311.15,235.36,301,236.9,301,236.9Z" style="fill:#BA68C8"></path><path d="M301,236.9s4.78,5,1.46,13.74c-3.18,8.48-13.61,9.41-13.61,9.41s1.38,14.2-21.33,14.82a14.32,14.32,0,0,0-.06-3s10.45.11,10.62-16.25-12-19.46-12-19.46A14.68,14.68,0,0,0,268,223.14c-3-9.11-9.26-8.46-9.26-8.46s4.56-3.16,2.56-11.61c-1.86-7.85-7.64-9.15-7.64-9.15s4.29-7.52-3.54-18.33-15.85-9.6-15.85-9.6a24.67,24.67,0,0,0-5.54-14.24c-5.56-6.81-14.34-6.31-14.34-6.31A23.85,23.85,0,0,0,207,127.51c-8.32-8.33-16.67-8.38-16.67-8.38a14.14,14.14,0,0,0-5.61-12c-7.67-6.1-15.07-2.92-15.07-2.92s-1.43-10.33-10.24-12.73c-11.5-3.09-17.2,3.46-17.2,3.46s-3.83-5.28-12.58-7.15A41.54,41.54,0,0,1,141.28,77.7c10.38-5.89,26.07-1,26.07-1A19.43,19.43,0,0,1,181,73.53,16.58,16.58,0,0,1,192.68,81s4.8-3.33,16.44-2,14.42,10.65,14.42,10.65,7.62-.39,16.21,5.4,8.61,17.27,8.61,17.27,10.4-2.29,19.5,7.6,5.08,18.63,5.08,18.63a21.65,21.65,0,0,1,16.2,11.5,20.54,20.54,0,0,1,0,19.93,9.79,9.79,0,0,1,5.81,5.89c1.78,4.69,0,7.41,0,7.41s8.86,4.25,11.15,13.81S303.81,212,303.81,212a15.64,15.64,0,0,1,7.34,13.65C311.15,235.36,301,236.9,301,236.9Z" style="fill:#fff;opacity:0.55"></path><path d="M303.81,212s4.56-5.38,2.29-14.94a19.29,19.29,0,0,0-2.32-5.56,19.43,19.43,0,0,1-.14,2.95c-.55,4.24-3,8.49-7,10,2.5,5.89-.9,11.44-5.92,14.66-.89-3.07-4.18-6.58-7-8a13.22,13.22,0,0,0-8.44-1.27c.39,0,0-6.37-.14-7a11,11,0,0,0-2.23-4.19c-2.47-3.39-5.22-6.32-9.54-7.23a25.38,25.38,0,0,0-28.13-29.11,12.45,12.45,0,0,0-1.36.23,19.48,19.48,0,0,1,.43,3.4s8-1.21,15.85,9.6,3.54,18.33,3.54,18.33,5.78,1.3,7.64,9.15c2,8.45-2.56,11.61-2.56,11.61S265,214,268,223.14a14.68,14.68,0,0,1-1.89,13.05s12.21,3.14,12,19.46-10.62,16.25-10.62,16.25a14.32,14.32,0,0,1,.06,3c22.71-.62,21.33-14.82,21.33-14.82s10.43-.93,13.61-9.41c3.32-8.71-1.46-13.74-1.46-13.74s10.13-1.54,10.13-11.23A15.64,15.64,0,0,0,303.81,212Z" style="fill:#BA68C8;opacity:0.25"></path><path d="M270,234.92a17.53,17.53,0,0,0,.56-12.53c-1.69-5.2-4.55-8-7.22-9.34,1.05-2.31,1.72-5.74.6-10.49-1.35-5.71-4.5-8.61-6.87-10,.87-3.59,1.15-10.29-4.8-18.5s-12-10.2-15.56-10.69a28.16,28.16,0,0,0-5.93-13.28A20.61,20.61,0,0,0,217,142.86a27.58,27.58,0,0,0-8.16-17.24A31,31,0,0,0,193,116.73a17.26,17.26,0,0,0-6.64-11.68,18.56,18.56,0,0,0-14.74-4.14c-1.24-3.82-4.33-10-11.6-12-8.84-2.39-14.72.3-17.66,2.36a26,26,0,0,0-10.72-5.75,45.41,45.41,0,0,0-3.8,4.71c8.36,1.32,12.05,6,12.25,6.31a2.9,2.9,0,0,0,2.07,1.17,2.64,2.64,0,0,0,2.14-.84c.19-.22,4.93-5.31,14.56-2.7,6.83,1.85,8.12,10,8.17,10.34a2.92,2.92,0,0,0,1.38,2.06,2.75,2.75,0,0,0,2.43.21c.25-.1,6.11-2.42,12.31,2.5a11.31,11.31,0,0,1,4.55,9.4,2.86,2.86,0,0,0,.7,2.19,2.56,2.56,0,0,0,2.08,1c.26,0,7.4.24,14.7,7.55s6.56,15.32,6.53,15.64a2.85,2.85,0,0,0,.78,2.23,2.82,2.82,0,0,0,2.18.9c.07,0,7.47-.3,12,5.24a22.06,22.06,0,0,1,4.89,12.43,2.85,2.85,0,0,0,1,2.12,2.79,2.79,0,0,0,2.21.72c.26,0,6.61-.66,13.21,8.44s3.46,15.15,3.34,15.37a2.75,2.75,0,0,0-.07,2.47,3,3,0,0,0,1.94,1.63c.16,0,4.12,1.11,5.5,7,1.52,6.41-1.45,8.76-1.53,8.82a2.63,2.63,0,0,0-.89,3.13,2.93,2.93,0,0,0,2.83,1.87c.42,0,4.24,0,6.35,6.47a12,12,0,0,1-1.46,10.58,2.68,2.68,0,0,0-.38,2.57,2.92,2.92,0,0,0,2,1.83c.41.11,10,2.89,9.88,16.66-.14,13.36-7.74,13.67-8,13.68a2.53,2.53,0,0,0-2,.89,2.66,2.66,0,0,0-.6,2.11,11.49,11.49,0,0,1,.06,2.12,7,7,0,0,0,2.67.58c1,0,1.83-.11,2.71-.19,0-.17,0-.37,0-.53,3.83-1.14,10.39-5,10.53-18.34C280.93,244,274.91,237.63,270,234.92Z" style="fill:#BA68C8;opacity:0.25"></path><path d="M267.49,271.9c.2,0,10.45-.06,10.61-16.24.17-16.34-12-19.46-12-19.46A14.74,14.74,0,0,0,268,223.12c-2.95-9.09-9.25-8.45-9.25-8.45s4.56-3.15,2.56-11.6c-1.85-7.87-7.64-9.14-7.64-9.14s4.29-7.54-3.55-18.34S234.23,166,234.23,166a24.69,24.69,0,0,0-5.54-14.24c-5.54-6.79-14.31-6.29-14.31-6.29A24,24,0,0,0,207,127.51c-8.31-8.33-16.65-8.39-16.65-8.39a14.13,14.13,0,0,0-5.63-12c-7.67-6.09-15-2.92-15-2.92s-1.45-10.33-10.26-12.71c-11.5-3.11-17.2,3.46-17.2,3.46s-7.78-10.76-26.5-7.08C100,91,98.88,102.77,98.88,102.77s-16.12-3.83-23.51,7-3.07,25.64-3.06,25.69-3.33,3.34-3.56,3.65a29.5,29.5,0,0,0-5,8.82,20.53,20.53,0,0,0,4.47,19.49c-6.49,3-10.46,10.33-10.06,17.67s4.9,14.42,11.21,18.38c-2.82,1.1-4.67,3.82-5.67,6.7a20.17,20.17,0,0,0,1.71,16.44A20.92,20.92,0,0,0,79,236.45a19.5,19.5,0,0,0,4.63,16.47,21.3,21.3,0,0,0,16.82,6.86,1.73,1.73,0,0,1,1,.09,1.92,1.92,0,0,1,.72.91,14,14,0,0,0,8.69,7,18.75,18.75,0,0,0,5.63.5c4-.17,8.39-1.41,10.14-5a12.66,12.66,0,0,0,9,2c2.64-.43,5.49-1.6,6.74-4.13a10.88,10.88,0,0,0,7.17,7.47,19.19,19.19,0,0,0,10.68.18c.51,4.72,4.34,8.65,8.84,10.16,4.3,1.45,9.41,1.58,13.37-.76a13.77,13.77,0,0,0,3.19,7.41c2.5,2.92,7.75,4.32,11.59,4.35A20.88,20.88,0,0,0,208,286.89a13.73,13.73,0,0,0,8.56,6.94,28.18,28.18,0,0,0,11.95.28,16.29,16.29,0,0,0,9.28-6.62A18.71,18.71,0,0,0,257,290a18.51,18.51,0,0,0,8.46-7.93C265.87,281.31,269.05,271.9,267.49,271.9Z" style="fill:#BA68C8"></path><path d="M267.49,271.9c.2,0,10.45-.06,10.61-16.24.17-16.34-12-19.46-12-19.46A14.74,14.74,0,0,0,268,223.12c-2.95-9.09-9.25-8.45-9.25-8.45s4.56-3.15,2.56-11.6c-1.85-7.87-7.64-9.14-7.64-9.14s4.29-7.54-3.55-18.34S234.23,166,234.23,166a24.69,24.69,0,0,0-5.54-14.24c-5.54-6.79-14.31-6.29-14.31-6.29A24,24,0,0,0,207,127.51c-8.31-8.33-16.65-8.39-16.65-8.39a14.13,14.13,0,0,0-5.63-12c-7.67-6.09-15-2.92-15-2.92s-1.45-10.33-10.26-12.71c-11.5-3.11-17.2,3.46-17.2,3.46s-7.78-10.76-26.5-7.08C100,91,98.88,102.77,98.88,102.77s-16.12-3.83-23.51,7-3.07,25.64-3.06,25.69-3.33,3.34-3.56,3.65a29.5,29.5,0,0,0-5,8.82,20.53,20.53,0,0,0,4.47,19.49c-6.49,3-10.46,10.33-10.06,17.67s4.9,14.42,11.21,18.38c-2.82,1.1-4.67,3.82-5.67,6.7a20.17,20.17,0,0,0,1.71,16.44A20.92,20.92,0,0,0,79,236.45a19.5,19.5,0,0,0,4.63,16.47,21.3,21.3,0,0,0,16.82,6.86,1.73,1.73,0,0,1,1,.09,1.92,1.92,0,0,1,.72.91,14,14,0,0,0,8.69,7,18.75,18.75,0,0,0,5.63.5c4-.17,8.39-1.41,10.14-5a12.66,12.66,0,0,0,9,2c2.64-.43,5.49-1.6,6.74-4.13a10.88,10.88,0,0,0,7.17,7.47,19.19,19.19,0,0,0,10.68.18c.51,4.72,4.34,8.65,8.84,10.16,4.3,1.45,9.41,1.58,13.37-.76a13.77,13.77,0,0,0,3.19,7.41c2.5,2.92,7.75,4.32,11.59,4.35A20.88,20.88,0,0,0,208,286.89a13.73,13.73,0,0,0,8.56,6.94,28.18,28.18,0,0,0,11.95.28,16.29,16.29,0,0,0,9.28-6.62A18.71,18.71,0,0,0,257,290a18.51,18.51,0,0,0,8.46-7.93C265.87,281.31,269.05,271.9,267.49,271.9Z" style="fill:#fff;opacity:0.65"></path><path d="M211.61,282.75c-9.88,6.15-25-.64-27-12.11-5.6,3.19-13,1.55-18.07-2.39s-8.36-9.76-11.2-15.54a22.46,22.46,0,0,1-21-2.1c-5.89-4-11.33-10.79-10.81-18.27a5.49,5.49,0,0,0-.1-2.25c-.4-1.11-1.54-1.73-2.56-2.33a27.71,27.71,0,0,1-12.62-29.13c-7.88.15-19.89-2.57-22-11.28C84.63,180.5,87.44,172.2,94,169a16,16,0,0,1,.7-31.13,21.14,21.14,0,0,1-7.61-35.32,17.54,17.54,0,0,0-11.76,7.18c-7.37,10.79-3.07,25.64-3.06,25.69s-3.33,3.34-3.56,3.65a29.5,29.5,0,0,0-5,8.82,20.53,20.53,0,0,0,4.47,19.49c-6.49,3-10.46,10.33-10.06,17.67s4.9,14.42,11.21,18.38c-2.82,1.1-4.67,3.82-5.67,6.7a20.17,20.17,0,0,0,1.71,16.44A20.92,20.92,0,0,0,79,236.45a19.5,19.5,0,0,0,4.63,16.47,21.3,21.3,0,0,0,16.82,6.86,1.73,1.73,0,0,1,1,.09,1.92,1.92,0,0,1,.72.91,14,14,0,0,0,8.69,7,18.75,18.75,0,0,0,5.63.5c4-.17,8.39-1.41,10.14-5a12.66,12.66,0,0,0,9,2c2.64-.43,5.49-1.6,6.74-4.13a10.88,10.88,0,0,0,7.17,7.47,19.19,19.19,0,0,0,10.68.18c.51,4.72,4.34,8.65,8.84,10.16,4.3,1.45,9.41,1.58,13.37-.76a13.77,13.77,0,0,0,3.19,7.41c2.5,2.92,7.75,4.32,11.59,4.35A20.88,20.88,0,0,0,208,286.89a13.73,13.73,0,0,0,8.56,6.94,32,32,0,0,0,8.15.76A28.89,28.89,0,0,1,211.61,282.75Z" style="fill:#BA68C8;opacity:0.25"></path><path d="M105.75,183.61a22.63,22.63,0,0,0,6.57-1.89A26.13,26.13,0,0,0,118,178.2a22.36,22.36,0,0,0,2.42-2.35,3.81,3.81,0,0,0,1.28-2.52c0-.43-.44-1.06-.91-.88a6.92,6.92,0,0,0-2.19,1.65c-.79.73-1.61,1.44-2.46,2.1a24.9,24.9,0,0,1-5.63,3.32,21.8,21.8,0,0,1-6,1.6,24,24,0,0,1-2.94.17,10,10,0,0,0-2.79.1c-.71.23-.32,1.22.16,1.54C100.74,184.16,103.72,183.86,105.75,183.61Zm38.74,1.3a52.49,52.49,0,0,0-18.79.08,62.55,62.55,0,0,0-14.49,4,33.43,33.43,0,0,0-6.82,3.79c-1.43,1-4.32,3-3.48,5.09.13.33.52.81.92.72,2.08-.5,3.68-2.66,5.4-3.86a31.56,31.56,0,0,1,5.83-3.09A61.19,61.19,0,0,1,125.72,188a59.36,59.36,0,0,1,16.31-1,37.17,37.17,0,0,1,5.63.94,13.42,13.42,0,0,1,5,2.63c.17.13.47.17.57-.06.67-1.55-1.34-2.88-2.51-3.55A20.15,20.15,0,0,0,144.49,184.91Zm-11.14-64c2.5.58,4.24,2.8,5.64,4.85a62.61,62.61,0,0,1,3.95,6.89,48.27,48.27,0,0,1,5.37,19.88c.22,5.77-1.18,11.6-6.64,14.17-6.43,3-14.71.51-20.76-2.89a18.23,18.23,0,0,1-9.62-13.51c-.1-.72-1.21-1.39-1.19-.33a18.16,18.16,0,0,0,2.24,9,19.57,19.57,0,0,0,6.55,6.34c6.21,4,13.72,6.37,20.85,4.92,16.79-3.42,12-25.77,6-37.25a49.59,49.59,0,0,0-5.69-8.85c-1.65-2-4.21-4.9-7-4.73C132.27,119.48,132.79,120.82,133.35,121Zm57,62.25c6.16,3,13.12,4.71,19.72,6.11,7.11,1.5,14.7,2.37,21.73.76,2.48-.57,4.79-1.7,6-4.07a8.4,8.4,0,0,0-.08-6.77c-2.43-5.95-8.8-8.72-14.29-11-6.1-2.49-12.26-5.15-17.69-9a31.82,31.82,0,0,1-6.88-6.48c-3.08-4.06-4.34-8.62-5-13.55-.1-.78-1.86-1.67-2.06-.6-2.22,11.9,7.59,21,17.12,26.4,5.13,2.91,10.57,4.8,15.93,7.13C229.2,174,236,177.73,235,183.52c-.46,2.8-3.06,3.58-5.51,4a39.41,39.41,0,0,1-10,.35A97,97,0,0,1,199,183.53a52.19,52.19,0,0,1-29.77-23.78,49.12,49.12,0,0,1-6.32-21.39,51,51,0,0,1,.56-11.05c.65-4.27,1.49-8.94,3.94-12.53.16-.23-.06-1-.4-.68-2.33,2.08-3.35,5.17-4.12,8.18A75.92,75.92,0,0,0,161,132a47.42,47.42,0,0,0,2.57,22A54.93,54.93,0,0,0,190.38,183.2Zm-5.62-19.68A35.92,35.92,0,0,0,197.58,174a53.14,53.14,0,0,0,8.59,3c2.39.64,5.69,1.82,8.13,1.25.49-.12.26-.94-.12-1.09-2.55-1-5.31-1.42-7.89-2.39a58.41,58.41,0,0,1-7.68-3.4,37.26,37.26,0,0,1-11.54-10c-3.36-4.37-6.35-9.73-7.32-15.13-1-5.79.53-11.27.83-17,0-.48-.78-1.69-1.13-.85-2.45,5.93-3.69,13-2.4,19.52C178.16,153.59,181.2,159,184.76,163.52Zm-60.29-16.38c-.07.46.51,1.48,1,1,1.79-1.73,2.36-4.57,2.16-7.06a16.63,16.63,0,0,0-2.31-6.71,23.08,23.08,0,0,0-4.56-5.57,17.78,17.78,0,0,0-6.17-3.91c-1-.3-.91,1.1-.31,1.52a38.26,38.26,0,0,1,5.27,3.8,20.61,20.61,0,0,1,3.86,5.09,15.17,15.17,0,0,1,1.7,5.74,14.1,14.1,0,0,1-.11,3.18C124.89,145.2,124.62,146.15,124.47,147.14ZM240.1,210.65c-.11-.53-1.1-1.14-1.18-.32-.62,7,7.71,12,12.77,15.26a16.91,16.91,0,0,1,6.88,8.16c1.65,4.18,1.06,8-.33,12-.16.47.4,1.29.9,1,6.81-4.4,2.78-15.31-2-20.08C251.66,221.24,241.83,219.22,240.1,210.65Zm-22.78,52.88a10.52,10.52,0,0,0,2.3-7.25c0-.48-.62-1.13-.85-.39a12.39,12.39,0,0,1-4.13,6.41,32.37,32.37,0,0,1-6.46,3.74,31.48,31.48,0,0,0-6.32,3.78,10.71,10.71,0,0,0-2.52,2.81,5.86,5.86,0,0,0-.66,3.8c0,.27.38,1.07.79.73a29.66,29.66,0,0,0,3.11-3.68,14.58,14.58,0,0,1,2.7-2.44,47.44,47.44,0,0,1,6-3.29A19,19,0,0,0,217.32,263.53ZM95.36,144.2c.51.43,1.44.25,1.15-.57a21.07,21.07,0,0,1-1.65-8.76A38.54,38.54,0,0,1,96,127.43,25.64,25.64,0,0,1,104.08,115a27.19,27.19,0,0,1,14.51-6.88,37.46,37.46,0,0,1,8.72.2c2.84.34,5.89,1.06,8.71.85.8-.05.27-1.38-.24-1.55a46.11,46.11,0,0,0-15.59-2.26,27,27,0,0,0-13.82,4.2C99.1,114,93.64,121,92.27,129.7,91.51,134.52,91.09,140.58,95.36,144.2ZM269.57,258c-2.93,2.5-5.82,4.37-9.86,4.34a19.93,19.93,0,0,1-9.83-2.88c-3.34-2-5.64-4.62-6.14-8.5a17.36,17.36,0,0,1,.36-6.43,34.23,34.23,0,0,0,1.3-6.19c.09.08.2.14.29.23,1.94,1.7,2.81,3.64,4,5.87.16.32.88.79,1.14.32,1.24-2.26-.55-4.85-2.19-6.54a31.85,31.85,0,0,0-5.86-4.55,65.84,65.84,0,0,1-6.87-4.89,30,30,0,0,1-3.09-3c-1.4-1.57-2.47-3.36-3.79-5-.24-.3-.55,0-.53.29.16,2.76,2.51,5.58,4.35,7.51a41.2,41.2,0,0,0,7,5.73c1.12.75,2.25,1.52,3.35,2.31a.94.94,0,0,0-.46.67c-.42,2.11-1.22,4.11-1.77,6.18a19.45,19.45,0,0,0-.64,6,13.47,13.47,0,0,0,3.59,9.07,23.09,23.09,0,0,0,18.23,6.4,13.13,13.13,0,0,0,4.87-1.52,6.65,6.65,0,0,0,3.61-4.52C270.8,258.45,270.08,257.58,269.57,258Zm-22.45,18.92a29.18,29.18,0,0,0-3.24-5.66,16.48,16.48,0,0,0-5-4.35,20.52,20.52,0,0,0-3-1.43l-.62-.22a9.67,9.67,0,0,0,.65-2.92,29.37,29.37,0,0,0-1.15-9.29c-.82-3-2.13-6.12-5-7.61-1.17-.6-1.24,1.09-.42,1.65,1.26.85,1.9,3.33,2.33,4.68a28.77,28.77,0,0,1,1.14,5.33c.32,2.64.56,5.49-.62,7.8a.39.39,0,0,0-.21.36,6,6,0,0,1-.49.75c-2.33,2.92-6.23,4.07-9.54,5.53s-6.95,3.27-7.45,7.18c-.08.62.88,1.56,1.38.94a21.21,21.21,0,0,1,8.26-6c2.89-1.25,6-2.35,8.37-4.42a10.93,10.93,0,0,0,1.72-1.91l.23.07c.4.13.81.27,1.21.43a19.47,19.47,0,0,1,2.36,1.11,13,13,0,0,1,3.83,3.25,34.55,34.55,0,0,1,2.27,3.35,26.48,26.48,0,0,1,1.31,2.54,21.79,21.79,0,0,1,1,2.37,5.37,5.37,0,0,0,.52,1.38c.1.16.34.44.57.34.81-.35.67-1.59.59-2.35A10.46,10.46,0,0,0,247.12,276.94Zm-97.53-33c-4.06-3.15-9-4.13-13.78-5.47s-9.53-2.54-14.2-4.19a63.9,63.9,0,0,1-6.85-2.86c-3.2-1.55-6-3.8-9.12-5.39-.6-.3-1.28.2-1,.87.94,2.08,3.36,3.7,5.2,4.93a39.87,39.87,0,0,0,5.81,3.16c1.7.77,3.44,1.43,5.2,2-.32,1-.54,1.94-.86,2.9a25.74,25.74,0,0,1-1.27,3.07,24.41,24.41,0,0,1-6.07,8.13,57,57,0,0,0-28.53-28.58,52.84,52.84,0,0,0-11-3.77c-.66-.13-1,1.4-.3,1.57a54,54,0,0,1,10,3.49,57.91,57.91,0,0,1,8.81,5.42,57.44,57.44,0,0,1,14,14.59,53.2,53.2,0,0,1,4.88,9,26.38,26.38,0,0,1-5.87,3.11c-.79.3-.24,2.06.58,1.82a23.85,23.85,0,0,0,7.48-3.73,1.43,1.43,0,0,0,.47-.33,25.75,25.75,0,0,0,3.91-3.76,26.84,26.84,0,0,0,3.72-5.79,16,16,0,0,0,1.77-6.59c2.06.69,4.14,1.3,6.22,1.89,5.34,1.51,11.14,2.4,16.29,4.57a18.67,18.67,0,0,1,4.42,2.67c1.63,1.29,4,3.3,4.19,5.48.05.71,1.25,1.42,1.37.44C155.5,249.05,152.29,246,149.59,243.94Zm1-16.21c-1.18-.61-2.37-1.17-3.58-1.72a18.88,18.88,0,0,0,3.62-4.16,35.12,35.12,0,0,0,4.71-10,12.89,12.89,0,0,0-1.35-10.6,12,12,0,0,0-4-3.91c-1.62-.95-4.36-2-6.14-1.31-.72.3.08,1.41.55,1.55,1.85.54,3.45.62,5.07,1.87a9,9,0,0,1,2.94,4.21,12.84,12.84,0,0,1-.34,8.33,34.72,34.72,0,0,1-4.05,8.19,17.37,17.37,0,0,1-2.79,3.31,7.92,7.92,0,0,1-1.7,1.06c-6.09-2.45-12.38-4.35-18.53-6.61-8.93-3.27-17.08-8.14-23.4-15.56-3.77-4.42-6.79-9.53-7.82-15.24a33.19,33.19,0,0,1-.43-7.1,11.62,11.62,0,0,1,1-5,10.17,10.17,0,0,0,5.58,0,7.89,7.89,0,0,0,5.39-4.45c1.3-3.27-.24-7.42-2-10.36-4.37-7.28-12.66-13.34-21.07-13.59-6.6-.19-16.78,3-15.84,11.39a15.88,15.88,0,0,0,6.44,10.56,7,7,0,0,0,1.09.56c-.12.63-.18,1.28-.29,1.91-.19,1.07-.39,2.14-.61,3.2a47.49,47.49,0,0,0-1,6.39,16.6,16.6,0,0,0,3.24,11.09c1.81,2.47,4.06,4.59,5.84,7.09a10.76,10.76,0,0,1,1.82,3.74c.51,2.27-.25,4.32-.74,6.48-.08.32.27,1.33.74.93a7.75,7.75,0,0,0,1.83-9.11c-1.24-2.83-3.49-5.1-5.51-7.4-2.9-3.3-5-6.72-5-11.2a38.79,38.79,0,0,1,.91-7,20.53,20.53,0,0,0,.66-5.71,4.29,4.29,0,0,0,2.28-.45c2-1,2.18-3.54,2.7-5.48.09-.32-.27-1-.63-.67-1.63,1.68-3.21,5.92-6.23,3.63a14,14,0,0,1-4.7-7.79c-1.2-6.47,6.15-9.2,11.21-9.68,7-.67,13.52,3.39,18.1,8.77,3,3.48,6.9,10.6,2.07,13.83a7.15,7.15,0,0,1-5.49,1,3.81,3.81,0,0,1-.65-.23,1.14,1.14,0,0,0-.29-.15c-1.36-.77-1.59-2.24-2-3.89-.22-1-1.94-1.47-2.27-.41A5.28,5.28,0,0,0,92.12,174c-1.45,2.25-1.43,5.77-1.44,8.26a30.38,30.38,0,0,0,3.55,14.45A50.6,50.6,0,0,0,115.12,217c14.83,7.89,33.72,9,45.7,22.13a24.4,24.4,0,0,1,6.39,12,18.75,18.75,0,0,1,0,7.35c-.51,2.26-1.94,3.84-2.68,5.94-.19.55.6,1.59,1.21,1.33,3.5-1.53,4.72-6.24,5-9.85A23.39,23.39,0,0,0,168.25,244C164.57,236.67,157.68,231.39,150.59,227.73Zm69,11.55a36.54,36.54,0,0,0,.51-12.44,41.47,41.47,0,0,0-2.92-12.33,35.51,35.51,0,0,0-3.17-5.6,11.45,11.45,0,0,1,.89-2.3,14.09,14.09,0,0,1,3.23-3.57c3-2.36,6.94-1.92,10.57-1.25,4.17.78,8.32,1.56,12.46.67a23.81,23.81,0,0,0,5.87-2.12,14.05,14.05,0,0,0,4.66-3.22c.43-.52-.28-1.58-.93-1.47-2.28.41-4.09,1.68-6.16,2.6a19.48,19.48,0,0,1-7.16,1.63c-4.42.11-8.72-1.55-13.14-1.74a12.9,12.9,0,0,0-10.25,4.06,16.33,16.33,0,0,0-2.54,3.42c-.89-1.05-1.81-2.07-2.79-3a39.37,39.37,0,0,0-12.63-8.4C190.91,192.07,185.44,191,180,190c-4.94-.91-9.73-1.79-14.23-4.3-3.74-2.08-8.11-5-9.24-9.39-.19-.76-1.35-1-1.27-.06.3,3.79,3.11,6.79,5.92,9.14A29.47,29.47,0,0,0,171.66,191c10,2.88,20.66,3.12,29.55,9.42A35.36,35.36,0,0,1,216,223.12c1.33,7.66,1.92,17.18-4,22.7a59.7,59.7,0,0,1-14.05,9.29c-1.19.59-2.5,1.27-3.76,2.05a33.14,33.14,0,0,0,1.36-6.87,37.11,37.11,0,0,0-1.2-14.39,34.7,34.7,0,0,0-6.76-12.16c-3.6-4.24-8.09-7.15-12.41-10.54a33.24,33.24,0,0,1-6.76-6.95c-2.14-3.05-3.93-6.39-5.83-9.58-.37-.64-.8.14-.6.6,2.17,5,4.27,10,7.93,14.14s8.32,7,12.23,10.71a34.06,34.06,0,0,1,10.62,24.46,30.43,30.43,0,0,1-1,8.57c-.8,2.9-2.62,5.41-3.79,8.18a47.3,47.3,0,0,0-2.88,9.45c-.14.73-.17,1.66.49,2a1.23,1.23,0,0,0,1.31-.23c1.44-1.23,1.84-3.85,2.47-5.52a22.16,22.16,0,0,1,3.49-6.22c2-2.5,4.64-3.88,7.48-5.27a62.35,62.35,0,0,0,12.88-8.26A18.29,18.29,0,0,0,219.63,239.28Z" style="fill:#BA68C8;opacity:0.15"></path><path d="M251,134.36c.69-3.52-2.67-6.81-5.17-8.84-3.2-2.6-7.31-5-11.42-5.14-.82,0-.24,1.51.4,1.6,2.91.38,6,2.44,8.35,4.25,1.93,1.52,4.93,4.1,4.87,6.81-.08,3.79-6.52,4.08-9.14,3.91-5.09-.35-9.92-2.9-14-6a31.43,31.43,0,0,1-5.74-5.43c-1.92-2.44-2.73-5.29-4.09-8-.21-.42-1-.84-1.09-.13-.34,3.12,1.15,6.65,2.83,9.3a26.84,26.84,0,0,0,6,6.48c4.59,3.69,10.33,6.38,16.11,6.77C242.84,140.2,250,139.14,251,134.36ZM255,157.44a28,28,0,0,0,15.78,3c3.54-.36,7.81-1.72,8.17-5.87.28-3.28-1.6-8.51-5.5-8.58-.86,0-.17,1.38.33,1.55,2.27.74,3,5.66,2,7.54-1.5,2.82-6.14,2.7-8.9,2.58a26.12,26.12,0,0,1-12.74-3.95c-3.67-2.3-6.61-5.5-10.15-8-.59-.41-.74.5-.44.88C246.84,150.77,250.29,154.94,255,157.44ZM225.23,107c2.27-3.66,4-9.26.74-13.16-.24-.29-.52,0-.57.22-.27,1.35,0,2.88-.19,4.26a15.93,15.93,0,0,1-1.69,5.46c-1.68,3.28-4.55,6.55-8.23,7.52-9.07,2.39-16.84-4-23.14-10.1a37.1,37.1,0,0,0-1.27-3.49,33.06,33.06,0,0,0-5.16-8.17A56,56,0,0,0,179.4,83a21,21,0,0,0-3.81-2.69,6.28,6.28,0,0,0-3.71-1.07c-.72.13-.36,1.26.21,1.44,2.37.72,4.31,2.46,6.08,4.19a68.73,68.73,0,0,1,5.34,6,29.4,29.4,0,0,1,4.62,7.54,26.42,26.42,0,0,1,1.48,5.06c.15.76.27,1.53.43,2.29a14.53,14.53,0,0,0,1.08,2.78c.16.36.7.79,1,.31a7,7,0,0,0,.76-3.42,26.36,26.36,0,0,0,7.81,6.36,22.43,22.43,0,0,0,15.12,2.45A15.12,15.12,0,0,0,225.23,107Zm47.85,64.27a68,68,0,0,0,7.28-.73c1.24-.18,2.46-.41,3.69-.63.83-.15,2.21-.14,2.7-.92a1,1,0,0,0-.6-1.4c-1.7-.57-3.79,0-5.5.16-2,.22-4.09.47-6.15.58a37.33,37.33,0,0,1-12.16-1.13A31.11,31.11,0,0,1,253,162.9c-3.49-2.39-5.84-5.28-8.54-8.48-.44-.53-1.08-.34-1.05.34.08,1.73,1.27,3.72,2.25,5.13a20.46,20.46,0,0,0,3.84,4.15A32.22,32.22,0,0,0,260,169.52,37.76,37.76,0,0,0,273.08,171.26Zm24.29,43.59c-2.87-6.34-9.78-10.49-16.25-11.9a26,26,0,0,0-3.84-.55l-.33-.29a17,17,0,0,1-3.49-3.55c-2.78-4.22-1.28-10.21,2.91-12.43a27.68,27.68,0,0,1,7.18-2.44,13.2,13.2,0,0,1,8.2.41.53.53,0,0,0,.58-.55,5.16,5.16,0,0,0-1.63-2,3.94,3.94,0,0,0-.55-.26,6.32,6.32,0,0,0-.84-.27,11.53,11.53,0,0,0-1.64-.3,15.69,15.69,0,0,0-3.56.07,30.32,30.32,0,0,0-7.7,1.94,13.5,13.5,0,0,0-5.43,3.7c-1.68,2-2.24,5-2.39,7.66a10,10,0,0,0,1.1,5.46,9.68,9.68,0,0,0,3,3.19,5.87,5.87,0,0,0-3.55,2.17,1.07,1.07,0,0,0-.25.61.9.9,0,0,0,.65.74,2.3,2.3,0,0,0,1,0c2.88-.39,5.39-1.21,8.38-.8,5.29.71,11.26,4,14.28,8.63,2.39,3.7,3,9.67.31,13.16-2.33,3-6.57,2.79-10,1.69-1.78-.58-4-1.49-5.22-3s-.37-3,.67-4.22c.55-.64-.44-2.15-1.23-1.68-2.35,1.42-4.29,3.83-2.68,6.73,1.1,2,3.31,3.32,5.32,4.2,4.68,2,10.37,2.76,14.5-.42C299.3,227.14,299.62,219.82,297.37,214.85Zm-6.48,29.9a17.76,17.76,0,0,0-4.42-6c-1.8-1.54-4.16-2.8-6.51-2.49-.78.1-.3,1.36.33,1.44,4,.49,6.75,4.56,8.12,8.1a18.1,18.1,0,0,1,1.23,5.46,16.73,16.73,0,0,1-.08,2.65c0,.32-.12.63-.16,1a5.84,5.84,0,0,0-.16,1.86c.11.5.52,1.07,1.08.87.95-.33,1.65-1.79,1.94-2.7a9.84,9.84,0,0,0,.4-3.47A17.87,17.87,0,0,0,290.89,244.75Z" style="fill:#BA68C8;opacity:0.15"></path><path d="M84.48,140.62a4.09,4.09,0,0,0,2-.28c2-.93,1.8-3.73,1.61-5.94a30.81,30.81,0,0,1,4.3-18.68c1-1.55,2.09-3.3,1.56-5.11a4.41,4.41,0,0,0-3.43-2.79c-4.06-.8-7.46,1.56-9.89,4.46a25.68,25.68,0,0,0-5.89,16C74.63,134.77,77.34,140.22,84.48,140.62Zm30.4,3.65a15.83,15.83,0,0,0,1.89,2.47c.78.68,2.07.95,2.74.22a2.32,2.32,0,0,0,.46-1c3.64-12.61-20-28.08-20.85-11.55a12,12,0,0,0,1,6.42C103.74,147.48,109.85,137.77,114.88,144.27ZM97.44,169.49c1.09-.41,1.46-1.76,1.52-2.94a12,12,0,0,0-1.5-6.36c-3.13-5.63-8.85-8.23-14.75-8.49a10.57,10.57,0,0,0-4.23.48,4.31,4.31,0,0,0-2.79,3c-.45,2.05,1.06,4.19,2.9,5.3s4,1.5,6,2.14a24.23,24.23,0,0,1,8.92,5.17C94.65,168.77,96.07,170,97.44,169.49Zm15.48,30.14a3.84,3.84,0,0,0-2.54.74,3,3,0,0,0-.51,3.28,8.13,8.13,0,0,0,2.21,2.84c5.39,5,12.16,8.06,19,10.45,4.32,1.51,9.33,2.71,13.05.33,2.8-1.8,4.14-5.3,4.24-8.72a11.28,11.28,0,0,0-2.5-7.82c-1.87-2.12-5.09-3.15-7.49-1.93a32,32,0,0,0-3.25,2.47c-3.24,2.19-7.73,2.33-11.58,1.73-3.12-.48-6.07-2.64-9-3.23A7.58,7.58,0,0,0,112.92,199.63Zm13.17-36c3.66,1.67,7.85,2.47,11.66,1.09a10.49,10.49,0,0,0,3.63-2.34c3.92-3.76,4.43-9.18,3.94-14.5-.48-5.17-2.57-10.51-6.52-14.13-1.18-1.08-3-2-4.21-1.13a3.44,3.44,0,0,0-1.15,2.41c-.65,4-.11,8.13-.7,12.12-.08.5-.17,1-.29,1.48a7.48,7.48,0,0,1-1.4,2.94,7.57,7.57,0,0,1-5.26,2.45c-1.56.14-3.34-.05-4.2,1.45a4.45,4.45,0,0,0,.1,4.06A10.31,10.31,0,0,0,126.09,163.6ZM106.8,103.39c5.59.53,11.19-1.75,17-1.35a34.92,34.92,0,0,1,17.28,5.52c3.34,2.26,6.28,5.25,10,6.82,8.37,3.56,15.95-5.61,10.79-13.44a12.59,12.59,0,0,0-10.49-5.26,19,19,0,0,0-10.94,4A26.74,26.74,0,0,0,120.06,93c-5.38.52-11,2.68-14.24,7.09-.62.84-1.09,2.15-.27,2.86A2.16,2.16,0,0,0,106.8,103.39Zm36,126.88c-8.39-4-17.41-6.29-25.81-10.24A76.32,76.32,0,0,1,94.5,203.74c-3-3.15-6.31-3.86-6,1.36.84,13.82,18.66,19.93,29.31,24L138,236.85a53.64,53.64,0,0,1,11,5.23,18.59,18.59,0,0,1,7.61,9.41c.6,1.89,1,4.23,2.87,5,1.66.67,3.51-.61,4-2.28a8,8,0,0,0-.66-5.2C159.33,240.33,151.24,234.24,142.84,230.27Zm108,7.59c1.45,2.21,2.23,9.08,6.14,5.44,2.79-2.59,1.33-9-.54-11.76-2.31-3.41-5.93-5.67-9.41-7.83-3.69-2.3-8.61-5.28-10.56-9.28a7.13,7.13,0,0,0-.69-1.15c-2.16-2.91-5-.92-5.11,3s2.78,7.66,6,10.14,7,4.25,10,7A26.61,26.61,0,0,1,250.87,237.86Zm-18.34-57c-.36-2.67-3.57-5.11-6.11-6-12.57-4.6-17.87-8.34-26.29-13-1.62-.9-3.82-1.74-5-.46s-.43,3.32.81,4.52a32.13,32.13,0,0,0,6.71,4.89A93.92,93.92,0,0,0,216,176.54c3.3,1.15-1.12,4.06-4.09,3.46a62.34,62.34,0,0,1-23.7-10.25c-5.71-4.08-9.63-10.31-11.94-17-.85-2.45-1.17-5.92-1.61-8.44-.25-1.48-1.09-4-2.39-5.1-4.09-3.45-3.67,9.34-3.39,11,.93,5.64,3.12,11.44,6.87,15.81,5.93,6.92,10.37,10.64,18.64,14.25,7.85,3.42,22.21,7.75,33.61,6C230.71,185.88,232.9,183.7,232.53,180.89Zm15.91,83.05a16.26,16.26,0,0,1-2.21-1.11,17.34,17.34,0,0,1-7.26-8.3c-.25-.67-.74-1.54-1.4-1.35s-.61,1-.51,1.61c.37,2.39.42,5,1.62,7.17a23.92,23.92,0,0,0,5.1,6.07,15.52,15.52,0,0,1,3.93,5c.85,2,.73,4.24,2,6.13a6.43,6.43,0,0,0,2.66,2.24,7.53,7.53,0,0,0,10-3.92C265.76,268.3,255,266.76,248.44,263.94Zm-38.28-71c-4.41-2.4-9.34-3.46-14.08-5a60.76,60.76,0,0,1-22-12.13,43.34,43.34,0,0,1-13.38-21.16c-1.33-5.18-1.47-10.5-2.19-15.75-.38-2.77-.2-5.86-1.3-8.51a4.7,4.7,0,0,0-2.81-2.94c-1-.23-2,.36-2.54,2.15-1.28,4.06.05,11,.42,15.18a117.39,117.39,0,0,0,3,18.08c1.19,4.83,2.77,9.73,5.91,13.64,3,3.68,7.1,6.22,11.35,8.14,11.6,5.26,24.64,6.6,35.69,13,1.35.78,3.1,1.64,4.29.71a2.53,2.53,0,0,0,.3-3.18A6.54,6.54,0,0,0,210.16,193Zm-23.81,6.36c-2.77-.56-12.55-.95-9.09,4.44a12,12,0,0,0,2.88,2.75c9.91,7.67,18.32,18.63,19.32,30.94.22,2.65.47,5.93,2.9,7.06a5.07,5.07,0,0,0,4.35-.43c3.59-1.81,5.26-6.83,5.85-10.66C215.1,216.88,202,202.51,186.35,199.32ZM174,221.52c-3.05-2.34-9.09-6.17-12.75-3.79-3.49,2.27-2.62,7.47-.42,10.61s5.53,5.39,8,8.38a25.35,25.35,0,0,1,5.13,13.42c.46,4.25-1,7.8-.84,11.81a4.67,4.67,0,0,0,1.75,3.68,4.61,4.61,0,0,0,2.52.77c3,.09,5.67-1.91,7.18-4.45a18.38,18.38,0,0,0,2.19-6.75,43.24,43.24,0,0,0-.94-15A32.93,32.93,0,0,0,174,221.52Z" style="fill:#fff;opacity:0.2"></path><path d="M238.36,124.43c-3.63-1.63-8.93-1.75-12.77-2-1.12-.08-2.45,0-3,1-.69,1.19.33,2.73,1.37,3.72a23.08,23.08,0,0,0,16,6.4,3.14,3.14,0,0,0,1.43-.25C244.84,131.51,240.72,125.5,238.36,124.43Zm31.27,26.75c1.39-1.9.69-4.82-.95-6.67s-3.95-2.89-6.19-3.86c4.16-4.32,4-11.89.41-17s-10.06-7.87-16.16-7.8a5.92,5.92,0,0,1-3.56-.63c-2.25-1.59-1.17-5-1.31-7.18-.24-4-3.18-10.08-7.86-7.21-3.69,2.26-4.27,8.29-5.83,12a1.5,1.5,0,0,0-.13,1.22,1.54,1.54,0,0,0,1,.65c2.75.79,5.56,1.29,8.28,2.18a32.42,32.42,0,0,1,13.67,8.8c2.43,2.63,4.49,5.85,4.7,9.36s-2,7.2-5.44,7.63c-.54,1.73,1.12,3.42,2.65,4.5a47.4,47.4,0,0,0,7.77,4.42C263.71,152.93,267.76,153.74,269.63,151.18ZM213.77,85.35a14.85,14.85,0,0,0-16.94-.25,2.45,2.45,0,0,1-1.15.57,2.38,2.38,0,0,1-1.48-.58c-2.55-1.71-8.27-7.3-11.46-6.35-4.29,1.28,4.75,9.62,5.94,11.29,3.17,4.45,5.85,9.33,9.85,13s9.89,6,14.69,4a10.31,10.31,0,0,0,5.84-7.8C219.82,94.72,217.68,88.16,213.77,85.35Zm-70.28-3.76c-1.16.69-2.45,1.63-2.4,3a3,3,0,0,0,2.39,2.51,8.87,8.87,0,0,0,3.59-.14c8-1.3,17.33-.09,23,6.16a21.34,21.34,0,0,0,3.28,3.43c3.55,2.48,8.22,2.31,12.12,3.53a4,4,0,0,0-.57-2.37C177.61,83.26,157.52,73.23,143.49,81.59Zm94.13,60.68c-1.71-.76-3.83-.78-5.61-1.23-3.31-.84-6.56-1.86-9.89-2.62-.48-.11-1.05-.2-1.39.14a1.07,1.07,0,0,0,0,1.34,3.25,3.25,0,0,0,1.19.88c3.28,1.69,6.66,3.29,9.52,5.65s5.24,5.62,5.65,9.26c.1.91.16,2,.92,2.51a1.76,1.76,0,0,0,2.36-.58,5.21,5.21,0,0,0,.7-2.6C241.46,150.84,242.49,144.44,237.62,142.27Zm52.31,93.44c-.88.12-1.89.45-2.09,1.32s.45,1.57,1,2.19l2.66,2.83a12.63,12.63,0,0,1,1.7,2.09c1.16,2,1.14,4.32,1.59,6.53.14.68.49,1.49,1.17,1.56a1.36,1.36,0,0,0,1-.41c2.12-1.8,2.33-5,2.32-7.86C299.3,237.74,295.92,234.93,289.93,235.71Zm8.87-43.29a19.12,19.12,0,0,0-10-3.78c-4.66-.21-12.11,3.25-12.11,8.7.56,1.75,2.87,2,4.67,2.14a20.43,20.43,0,0,1,14.32,8,6.7,6.7,0,0,0,1.82,1.89,3.26,3.26,0,0,0,3.63-.48,6.16,6.16,0,0,0,1.81-3.36C303.93,201.38,302.54,195.08,298.8,192.42ZM290,225.66a3.64,3.64,0,0,0,1.85-2.71,11,11,0,0,0-2-8.94,11.19,11.19,0,0,0-4.55-3.48l.26.06a18,18,0,0,0-8.7-1.66,5.33,5.33,0,0,0-3.16,1,2.38,2.38,0,0,0-.54,3.07,3.86,3.86,0,0,0,1.3,1,59.74,59.74,0,0,1,6.91,4.82,5.87,5.87,0,0,1,2,2.25c.37.93.28,2,.79,2.85.67,1.12,2.09,1.47,3.34,1.71A4.6,4.6,0,0,0,290,225.66Zm-1.52-48.56a4.12,4.12,0,0,0,1.54-.55,1.51,1.51,0,0,0,.72-1.39c-.23-1.94-4-1.69-5.22-1.56a96.9,96.9,0,0,1-28.15-1.4,2.55,2.55,0,0,0-2.16.24,1.88,1.88,0,0,0-.15,2.25c.9,1.63,2.36,3,3.32,4.68a13.41,13.41,0,0,1,1.85,6.7c0,1.85-.36,3.83.55,5.48.5.89,1.32,1.57,1.77,2.48.27.55.4,1.15.67,1.7a1.81,1.81,0,0,0,1.35,1.09c.95.05,1.45-1,1.69-1.94.88-3.28.81-7.15,2.29-10.19,1.67-3.46,4.81-4.3,8.1-5.45C280.44,177.92,284.53,177.88,288.47,177.1Z" style="fill:#fff;opacity:0.15"></path></g></g><g id="freepik--Scheme--inject-18"><g id="freepik--Screen--inject-18"><g style="opacity:0.2"><path d="M235.94,341.68l110.23-63.61c.78-.45,1.42-.09,1.42.82v72.88a3.14,3.14,0,0,1-1.42,2.45L235.94,417.83c-.78.45-1.42.09-1.42-.82V344.13A3.14,3.14,0,0,1,235.94,341.68Z"></path></g><path d="M345.4,283.42,241.06,343.61a3.46,3.46,0,0,0-1.56,2.7v70.15a3.41,3.41,0,0,0,1.57,2.69l3,1.68a3.52,3.52,0,0,0,3.13,0l104.34-60.2a3.4,3.4,0,0,0,1.56-2.7V287.78a3.4,3.4,0,0,0-1.57-2.69l-3-1.69A3.48,3.48,0,0,0,345.4,283.42Z" style="fill:#BA68C8"></path><path d="M247.17,420.82a3.55,3.55,0,0,1-3.13,0l-3-1.69a3.4,3.4,0,0,1-1.57-2.68V346.31a3.18,3.18,0,0,1,.5-1.59l6.07,3.52a3.05,3.05,0,0,0-.46,1.53v70.14C245.61,420.82,246.25,421.35,247.17,420.82Z" style="opacity:0.2"></path><g style="opacity:0.2"><path d="M353.05,287.49c-.12-.78-.76-1.06-1.54-.62l-104.33,60.2a3.13,3.13,0,0,0-1.11,1.17L240,344.72a3.17,3.17,0,0,1,1.07-1.11l104.35-60.19a3.46,3.46,0,0,1,3.12,0l3,1.69A3.41,3.41,0,0,1,353.05,287.49Z" style="fill:#fff"></path></g><path d="M351.51,286.88,247.17,347.07a3.46,3.46,0,0,0-1.56,2.7v70.15c0,1,.7,1.39,1.56.9l104.34-60.2a3.4,3.4,0,0,0,1.56-2.7V287.78C353.07,286.78,352.38,286.38,351.51,286.88Z" style="fill:#fff"></path><path d="M351.83,288.14v69.78a2.24,2.24,0,0,1-.94,1.62l-104,60V349.77a2.23,2.23,0,0,1,.94-1.62l104-60m.38-1.48a1.38,1.38,0,0,0-.7.22L247.17,347.07a3.46,3.46,0,0,0-1.56,2.7v70.15c0,.7.35,1.11.87,1.11a1.43,1.43,0,0,0,.69-.21l104.34-60.2a3.4,3.4,0,0,0,1.56-2.7V287.78c0-.71-.35-1.12-.86-1.12Z" style="fill:#BA68C8"></path><g id="freepik--brain--inject-18"><path d="M274.61,392.43c1-.56,1.05-1.23,1.05-1.31a23.72,23.72,0,0,1,.44-5.52,14.64,14.64,0,0,1,1.13-2.38,10.77,10.77,0,0,0,.91-1.86l.05-.17.11-.12c2-2.14,3-4,3-5.93v-.26l.17-.2c1.49-1.75,2.94-4.21,2.44-9.22l0-.42.34-.2c5.92-3.44,6.44-4.22,8.51-8.32l.18-.35c1.56-3.09,1.45-4.29,1.32-5.68a10.11,10.11,0,0,1-.05-1.95c.23-2.94-.51-4.22-2.65-4.54a7,7,0,0,1-2.63-1.24,7.44,7.44,0,0,0-5.05-1.62,20,20,0,0,0-6.41,2.63c-2.92,1.69-10.19,6.45-14.55,14.25-6.89,12.31-9.66,21.57-8.48,28.29.73,4.15,2.28,6.54,4.49,6.91a4,4,0,0,0,1.6-.07l.21,0v.28a2.22,2.22,0,0,0,.95,2c.74.37,1.88.13,3.31-.69h0a18.27,18.27,0,0,0,2.53-1.83l.1-.08h.09a3.08,3.08,0,0,0,1.72-.43,7.54,7.54,0,0,0,2.76-3.57c.08-.18.17-.36.25-.53l.15-.3.22-.05c.45,0,.7.32.7.85v3.61S273.62,393,274.61,392.43Z" style="fill:#fff"></path><path d="M281.31,374.86c.1,3-2.11,5.36-4.4,7.57a19.29,19.29,0,0,0-4.73,6.37c-1.41,3.16-3.07,4.1-4.55,4-3.62,3.08-6.87,4.15-6.89.3h0a11.9,11.9,0,0,0,5.05-3.51c5.9-6.19,4-5,10.71-10.46a39.91,39.91,0,0,0,4.81-4.23" style="fill:#BA68C8"></path><path d="M281.31,374.86c.1,3-2.11,5.36-4.4,7.57a19.29,19.29,0,0,0-4.73,6.37c-1.41,3.16-3.07,4.1-4.55,4-3.62,3.08-6.87,4.15-6.89.3h0a11.9,11.9,0,0,0,5.05-3.51c5.9-6.19,4-5,10.71-10.46a39.91,39.91,0,0,0,4.81-4.23" style="fill:#fff;opacity:0.35000000000000003"></path><path d="M265.79,389.55a20.32,20.32,0,0,1-1.88,1.75c-2.3,1.85-4.63,2.48-6.35,1.34a6.18,6.18,0,0,1-2.09-2.77,15.33,15.33,0,0,1-.72-2.2,5.89,5.89,0,0,1-.31-1.1c-.06-.6-.11-1.21-.17-1.82a16.42,16.42,0,0,1,0-2.11,25.15,25.15,0,0,1,.65-5.19c.33-1.37.8-2.74,1.2-4.11.35-1.18.64-2.35,1-3.52a28.08,28.08,0,0,1,2.39-5.37,12.18,12.18,0,0,0-.38,2.08,2.36,2.36,0,0,0,.13,1.26c.17.3.56.33.87-.05a9.25,9.25,0,0,1-1.46,1.86,2,2,0,0,0-.38.43c-.1.17,0,.19,0,.31-.1.07-.12.27-.12.4.06,1.8-.51,3.95-.32,5.66,0,.16.05.33.16.35a.27.27,0,0,0,.21-.07,1.46,1.46,0,0,0,.51-.94,11.3,11.3,0,0,1-.3,2.18,17.5,17.5,0,0,1-.69,1.91,9.49,9.49,0,0,0-.61,1.92c-.1.65-.08,1.18.26,1.41s.64.19.78.59a2.19,2.19,0,0,0-1.1.45,3.38,3.38,0,0,0-1,1.23c-.07.15-.13.35-.06.42s.08,0,.14,0c.39-.13.8-.55,1.18-.63a1,1,0,0,1,.83.36c.37.35.47,1,.84,1.39a1.79,1.79,0,0,0,1.43.63,6.59,6.59,0,0,0,3.15-2.06,1.82,1.82,0,0,0,.51-.88.59.59,0,0,0-.32-.72c-.21-.09-.47-.08-.67-.19,1.88-1.06,3.85-2.78,5.72-3.54.53-.22,1.06-.35,1.6-.63a4,4,0,0,0,1.54-1.4c.33-.51.56-1.1.87-1.62a13.31,13.31,0,0,1,2.68-2.72,2,2,0,0,0,.55-.84c.09-.34-.12-.63-.33-.39a2.68,2.68,0,0,0,1.06-.52,1.34,1.34,0,0,0,.33-.34,1.37,1.37,0,0,0,.17-1,1,1,0,0,0-1.19-.82,4.69,4.69,0,0,0-1.7.9,15.51,15.51,0,0,1-3.85,2.21,5.26,5.26,0,0,1-1.82.34c-.55,0-.94-.38-1.45-.44,2,.23,4.35-1.34,6.55-3.09a13.55,13.55,0,0,1,2.83-1.91,2.34,2.34,0,0,1,1.28-.23c.21,0,.84.19,1-.51a.45.45,0,0,0-.1-.36.85.85,0,0,0-.74-.34c-.35,0-.75.21-1.06.12s-.45-.34-.73-.39-.68.17-1,.26a1,1,0,0,1-1-.18.8.8,0,0,1-.26-.82,2.6,2.6,0,0,0,1.09-.38,4.46,4.46,0,0,0,.73-.61,1,1,0,0,1,.83-.18,1.91,1.91,0,0,0,1.39,0,4.11,4.11,0,0,0,1.89-1.61c-.1,1.27.85,1.73,1.76,1.25a7.66,7.66,0,0,0,2.23-2.16,1,1,0,0,0,0,.88c.21.29.66.13,1-.2s.71-.79,1.07-1.17a18.88,18.88,0,0,1,2.35-1.78,5,5,0,0,0,1.84-2.78,1.55,1.55,0,0,0,0-.68c-.19-.56-.87-.18-1.41.06a2,2,0,0,1-2.34-.28,4.34,4.34,0,0,0,2.29-.67,2.36,2.36,0,0,0,1-.91c.26-.46.29-1.11,0-1.18a3,3,0,0,0,3-2.85c.05-.43,0-.83,0-1.26a8.06,8.06,0,0,0,.1-2.51c-.16-.45-.55-.58-.86-.82a2.45,2.45,0,0,1-.82-1.54s.68.17.74.2a9.64,9.64,0,0,1,1,.48,1.74,1.74,0,0,1,.84.85,7,7,0,0,1,.31,2.94c-.21,2.65.95,3.24-1.26,7.6s-2.42,5.05-9.05,8.87c.95,7.87-2.68,10.28-7.36,14.07C269.77,384.54,271.69,383.36,265.79,389.55Z" style="fill:#BA68C8"></path><path d="M265.79,389.55a20.32,20.32,0,0,1-1.88,1.75c-2.3,1.85-4.63,2.48-6.35,1.34a6.18,6.18,0,0,1-2.09-2.77,15.33,15.33,0,0,1-.72-2.2,5.89,5.89,0,0,1-.31-1.1c-.06-.6-.11-1.21-.17-1.82a16.42,16.42,0,0,1,0-2.11,25.15,25.15,0,0,1,.65-5.19c.33-1.37.8-2.74,1.2-4.11.35-1.18.64-2.35,1-3.52a28.08,28.08,0,0,1,2.39-5.37,12.18,12.18,0,0,0-.38,2.08,2.36,2.36,0,0,0,.13,1.26c.17.3.56.33.87-.05a9.25,9.25,0,0,1-1.46,1.86,2,2,0,0,0-.38.43c-.1.17,0,.19,0,.31-.1.07-.12.27-.12.4.06,1.8-.51,3.95-.32,5.66,0,.16.05.33.16.35a.27.27,0,0,0,.21-.07,1.46,1.46,0,0,0,.51-.94,11.3,11.3,0,0,1-.3,2.18,17.5,17.5,0,0,1-.69,1.91,9.49,9.49,0,0,0-.61,1.92c-.1.65-.08,1.18.26,1.41s.64.19.78.59a2.19,2.19,0,0,0-1.1.45,3.38,3.38,0,0,0-1,1.23c-.07.15-.13.35-.06.42s.08,0,.14,0c.39-.13.8-.55,1.18-.63a1,1,0,0,1,.83.36c.37.35.47,1,.84,1.39a1.79,1.79,0,0,0,1.43.63,6.59,6.59,0,0,0,3.15-2.06,1.82,1.82,0,0,0,.51-.88.59.59,0,0,0-.32-.72c-.21-.09-.47-.08-.67-.19,1.88-1.06,3.85-2.78,5.72-3.54.53-.22,1.06-.35,1.6-.63a4,4,0,0,0,1.54-1.4c.33-.51.56-1.1.87-1.62a13.31,13.31,0,0,1,2.68-2.72,2,2,0,0,0,.55-.84c.09-.34-.12-.63-.33-.39a2.68,2.68,0,0,0,1.06-.52,1.34,1.34,0,0,0,.33-.34,1.37,1.37,0,0,0,.17-1,1,1,0,0,0-1.19-.82,4.69,4.69,0,0,0-1.7.9,15.51,15.51,0,0,1-3.85,2.21,5.26,5.26,0,0,1-1.82.34c-.55,0-.94-.38-1.45-.44,2,.23,4.35-1.34,6.55-3.09a13.55,13.55,0,0,1,2.83-1.91,2.34,2.34,0,0,1,1.28-.23c.21,0,.84.19,1-.51a.45.45,0,0,0-.1-.36.85.85,0,0,0-.74-.34c-.35,0-.75.21-1.06.12s-.45-.34-.73-.39-.68.17-1,.26a1,1,0,0,1-1-.18.8.8,0,0,1-.26-.82,2.6,2.6,0,0,0,1.09-.38,4.46,4.46,0,0,0,.73-.61,1,1,0,0,1,.83-.18,1.91,1.91,0,0,0,1.39,0,4.11,4.11,0,0,0,1.89-1.61c-.1,1.27.85,1.73,1.76,1.25a7.66,7.66,0,0,0,2.23-2.16,1,1,0,0,0,0,.88c.21.29.66.13,1-.2s.71-.79,1.07-1.17a18.88,18.88,0,0,1,2.35-1.78,5,5,0,0,0,1.84-2.78,1.55,1.55,0,0,0,0-.68c-.19-.56-.87-.18-1.41.06a2,2,0,0,1-2.34-.28,4.34,4.34,0,0,0,2.29-.67,2.36,2.36,0,0,0,1-.91c.26-.46.29-1.11,0-1.18a3,3,0,0,0,3-2.85c.05-.43,0-.83,0-1.26a8.06,8.06,0,0,0,.1-2.51c-.16-.45-.55-.58-.86-.82a2.45,2.45,0,0,1-.82-1.54s.68.17.74.2a9.64,9.64,0,0,1,1,.48,1.74,1.74,0,0,1,.84.85,7,7,0,0,1,.31,2.94c-.21,2.65.95,3.24-1.26,7.6s-2.42,5.05-9.05,8.87c.95,7.87-2.68,10.28-7.36,14.07C269.77,384.54,271.69,383.36,265.79,389.55Z" style="fill:#fff;opacity:0.6000000000000001"></path><path d="M278.53,380.79c0,1.23-1.65,3.23-2.16,4.84A23.07,23.07,0,0,0,276,391a2.41,2.41,0,0,1-1.35,1.85c-1.31.76-1.39-.27-1.39-.27V389c0-.82-.86-.54-.86-.54a12.79,12.79,0,0,1,2.34-3.64C276.33,383,278.53,380.79,278.53,380.79Z" style="fill:#455a64"></path><path d="M267.59,393.24c-2.71,2.29-4.87,3.2-6.09,2.58-.71-.36-1.08-1.22-1.08-2.57a.81.81,0,0,1,.12-.41.5.5,0,0,1,.27-.24,11.58,11.58,0,0,0,4.87-3.4c1.84-1.93,2.94-3.16,3.73-4.06,1.83-2.05,2.38-2.67,7-6.44l.76-.61a32.15,32.15,0,0,0,4-3.56.34.34,0,0,1,.3-.14c.09,0,.14.12.15.26.13,3.55-2.74,6.32-4.63,8.15a18.39,18.39,0,0,0-4.57,6.13,8.13,8.13,0,0,1-3,3.85A3.29,3.29,0,0,1,267.59,393.24Zm9.72-14.36-.76.61c-4.58,3.71-5.11,4.31-6.89,6.31-.8.91-1.91,2.15-3.76,4.09a13.22,13.22,0,0,1-4.81,3.5,1.78,1.78,0,0,0,.82,1.52c1.07.54,3.13-.38,5.66-2.53a.32.32,0,0,1,.21-.09c1.62.15,3-1.07,4.15-3.61a19.59,19.59,0,0,1,4.89-6.61c2.07-2,3.93-4,4.14-6.38A36.39,36.39,0,0,1,277.31,378.88Z" style="fill:#455a64"></path><path d="M287,356.42a2.47,2.47,0,0,0,2.66-.41,3,3,0,0,0,1.07-1.38,2.56,2.56,0,0,0,.1-.34,1.93,1.93,0,0,0,1.25-.23,4,4,0,0,0,1.6-1.56c.31-.52.78-1.62.54-2-.07-.11-.21.12-.25.22-.14.34-.18.69-.33,1a3.37,3.37,0,0,1-.57.93,2.45,2.45,0,0,1-1.7.91c-.51,0-.73-.49-1.1-.77a1.54,1.54,0,0,0-.58-.27,1.91,1.91,0,0,0-.83.11c-.05,0-.05.16,0,.16a2.15,2.15,0,0,1,1,.53,1.24,1.24,0,0,1,.46.67,1.6,1.6,0,0,1-.6,1.28,3.11,3.11,0,0,1-1.26.54,1.37,1.37,0,0,1-1-.19.91.91,0,0,0-.81-.12c-.17.05-.46.31-.54.1a1.05,1.05,0,0,1,.1-.61,6.59,6.59,0,0,1,.72-1.15,14.31,14.31,0,0,1,1.46-1.69,12.11,12.11,0,0,1,1.53-1.31,11.73,11.73,0,0,1,1.77-1.14c.05,0,.05-.2,0-.19-.31.11-.61.17-.92.3a5.77,5.77,0,0,0-.91.53,13.47,13.47,0,0,0-1.78,1.51,15.28,15.28,0,0,0-1.72,2.05,6.8,6.8,0,0,0-.71,1.27,3.44,3.44,0,0,1-.32.79.69.69,0,0,1-.77.16,1.59,1.59,0,0,1-.82-.49,2.12,2.12,0,0,1-.3-.44c-.06-.13-.15-.19-.09-.41a1.27,1.27,0,0,1,.26-.47,10.51,10.51,0,0,0,1.28-1.62,17.44,17.44,0,0,0,1.34-2.95c0-.12,0-.32-.1-.14-.43.81-.79,1.68-1.25,2.46a6,6,0,0,1-1.63,1.86,2.46,2.46,0,0,1-1.55.53,2.09,2.09,0,0,1-1.13-.56c.05-.12.11-.25.15-.38a3.49,3.49,0,0,0,.17-1.53,3.63,3.63,0,0,1-.09-1.38c.05-.22.1-.44.16-.65a11.31,11.31,0,0,1,.42-1.24,12.29,12.29,0,0,1,1.46-2.53c.06-.08.06-.32,0-.23a8.65,8.65,0,0,0-1.63,2.5,11.65,11.65,0,0,0-.56,1.49,6.82,6.82,0,0,0-.19.71c0,.1-.05.2-.07.3-.69-.45-1.64.61-2.49.77-.16,0-.42.57-.24.61.74.19,1.75-1.21,2.4-.66a2.17,2.17,0,0,1-.1,2.62,4,4,0,0,1-2.3,1.54c-.87.26-1.65.07-1.82-1.08a6.11,6.11,0,0,1,.53-3.07,14.18,14.18,0,0,1,.78-1.56c.14-.24.27-.5.42-.73s.35-.47.51-.73.33-.53.51-.79a22.68,22.68,0,0,1,2.67-3.4c.52-.5.95-.71,1.4-.54a1.43,1.43,0,0,0,1.09,0,1.41,1.41,0,0,1,1.76.3,3.28,3.28,0,0,1,.46,2.58,6.31,6.31,0,0,0-1.64,2.37s0,0,0,0a6.63,6.63,0,0,1,1.52-1.86,5.42,5.42,0,0,1,1.77-1.1c.66-.2,1.12.18,1.34.89a8.23,8.23,0,0,1,.08,2.83c0,.43.41.05.44-.29a9.76,9.76,0,0,0-.07-3c-.21-.74-.65-1.21-1.3-1.12a4.49,4.49,0,0,0-2.06,1.2,3.63,3.63,0,0,0-.37-3,1.28,1.28,0,0,0-1-.53c-.57,0-1.17.44-1.69.21-.88-.39-1.85.68-2.76,1.8-.42.53-.84,1.08-1.25,1.64l-.6.85c-.11.16-.37.67-.51.61a.25.25,0,0,1-.09-.16,6.24,6.24,0,0,1-.2-1.49,3.38,3.38,0,0,1,0-.54c0-.15.07-.3.11-.45s.07-.26.11-.39-.12,0-.17.12a1,1,0,0,0-.12.25c0,.12-.09.25-.12.38-.17.58-.55.52-.84.55a2.58,2.58,0,0,0-1.21.48.86.86,0,0,0-.18.16s0,.05,0,.07h0c.35,0,.71-.14,1.05-.15a.9.9,0,0,1,.87.37,1.34,1.34,0,0,1,.15.34,2.18,2.18,0,0,1,.14.75,5.09,5.09,0,0,1-.9,2.18,10.61,10.61,0,0,0-.91,2.38,3.5,3.5,0,0,1-.76.74,1.23,1.23,0,0,1-.72.16,1.22,1.22,0,0,1-.9-.93,3.64,3.64,0,0,1,0-2,4,4,0,0,0,.23-2.18c-.05-.13-.14.09-.11.19a3.92,3.92,0,0,1-.35,1.88,7.38,7.38,0,0,0-.33,1.33,3,3,0,0,0,.31,1.91,1.11,1.11,0,0,0,1.28.53,2.55,2.55,0,0,0,1.18-.79,4.61,4.61,0,0,0,0,1.44,10.4,10.4,0,0,0-.52,1.86,10,10,0,0,0-.25,2c0,1.65.76,4.13,2.37,2.26a6.81,6.81,0,0,0,1.26-3.05,14.41,14.41,0,0,1,.39-1.64A5.2,5.2,0,0,1,279,356a3.72,3.72,0,0,0,.19-.34,5,5,0,0,0,1-1.05,1.48,1.48,0,0,0,1.33.63c.31,0,.63-.14.9,0s.52.84.83,1.17a1.74,1.74,0,0,0,1.17.58,2.31,2.31,0,0,0,1.2-.23c.24-.1.48-.27.71-.38A.63.63,0,0,1,287,356.42Zm-8.46-.34a11,11,0,0,0-.7,2.26,10.2,10.2,0,0,1-.54,1.9c-.25.54-.67,1.1-1.06,1.1s-.67-.37-.85-.73a3.86,3.86,0,0,1-.31-1.43,9.61,9.61,0,0,1,.15-2c.06-.38.15-.76.24-1.14,0-.1.05-.2.08-.31a1.27,1.27,0,0,0,.46.65C276.65,356.87,277.65,356.56,278.53,356.08Zm-6.13,2.34c-.37-.63-.9-1-1.25-1.65a2.73,2.73,0,0,1-.32-1.18c0-.38.11-.81.07-1.17,0-.12-.12-.05-.17.05a3.11,3.11,0,0,0-.17,2.29,3.75,3.75,0,0,0,.91,1.46,5,5,0,0,1,1,4.78c0,.06,0,.16.06.06A5.75,5.75,0,0,0,272.4,358.42Zm-1.73-9.67c-.34,0-.8.71-1,1.16a6.64,6.64,0,0,0-.52,1.72,5.49,5.49,0,0,0-.06,1.7c.06.44.16,1,.45,1.13,0,0,0-.06,0-.08a7.06,7.06,0,0,1,.29-4.16,2.84,2.84,0,0,1,.34-.59,3.71,3.71,0,0,1,.39-.4C270.68,349.13,270.82,348.76,270.67,348.75Zm-3.1,8.7s0-.13,0-.14a1.3,1.3,0,0,1-.42-.18,1.1,1.1,0,0,1-.27-.36,3.09,3.09,0,0,1-.34-1,4.73,4.73,0,0,1-.09-1.27c0-.23,0-.45.07-.68a2.38,2.38,0,0,1,.16-.65c.23-.38,0-.6-.25-.21a4.18,4.18,0,0,0-.36,1.66,5.34,5.34,0,0,0,.09,1.47,2.42,2.42,0,0,0,.54,1.1C266.9,357.44,267.21,357.74,267.57,357.45Zm-2,1.38s0-.09,0-.08a3.92,3.92,0,0,0-1.62.68,5.12,5.12,0,0,0-1.32,1.67,41.08,41.08,0,0,0-1.57,4.31,12.29,12.29,0,0,1-2.54,4.07,10.85,10.85,0,0,0-2.47,3.45c0,.07,0,.23.05.13a10.11,10.11,0,0,1,1.87-2.45v.06a9.22,9.22,0,0,1-.16,3.47,15,15,0,0,1-1.34,3.59c-.05.09,0,.32.05.19a12.26,12.26,0,0,0,1.62-4,9.87,9.87,0,0,0,.18-3.67c.13-.12.25-.25.37-.38a12.86,12.86,0,0,0,2.24-3.23,42.2,42.2,0,0,0,1.56-4.28,6.48,6.48,0,0,1,.92-1.84A6.58,6.58,0,0,1,265.61,358.83Zm-9.9,22.77c.75-.2,1.59-1.61,2.08-2.56a9.29,9.29,0,0,0,.79-1.81c.33-1.41.65-2.83,1-4.24a7.42,7.42,0,0,1,1.46-3.28c.56-.62,1.36-.83,1.6-.15.29.86-.45,2.27-.9,3.24a20.37,20.37,0,0,0-1.15,3,9.56,9.56,0,0,0-.3,2.59,3.17,3.17,0,0,1-.72,2.07c-.08.09-.18.22-.17.32s.09.07.16,0a1.37,1.37,0,0,0,.48-.48,4.31,4.31,0,0,0,.8-1.9c.06-.63,0-1.2.08-1.84a15.3,15.3,0,0,1,1.31-3.84,7.91,7.91,0,0,0,1.05-3.45c-.06-.83-.6-1.15-1.22-1-1.71.51-2.62,3.51-3,5.52-.5,2.55-1.25,5.72-3.25,7.28C255.67,381.27,255.58,381.63,255.71,381.6Zm11.63-16.1h0v0ZM255.94,386c-.22.92.09,1.45.57,1.64s1.77.23,1.23,1.52c0,.09,0,.32.07.18a1.61,1.61,0,0,0-.24-2.05c-.46-.32-1.57-.21-1.19-1.55a1.88,1.88,0,0,1,2.35-1.56c.61.2,1.12.63,1.75.78a3.12,3.12,0,0,0,2.16-.6c.81-.46,1.66-.94,2.25-.42a2.21,2.21,0,0,1-.32,2.81,3.51,3.51,0,0,1-2,1,2.35,2.35,0,0,0-1.72,1.45c-.28.66-.18,1.36.29,1.3.1,0,.11-.25,0-.28-.31-.11-.19-.76.12-1.16a1.55,1.55,0,0,1,.94-.56,6.65,6.65,0,0,0,1.16-.35,3.93,3.93,0,0,0,1.9-1.79,3.42,3.42,0,0,0,.33-2.66,1.12,1.12,0,0,0-.54-.62l.57-.29c1.19-.64,2.47-1.53,3.59-1.51s1.82,1,1.41,2.74c-.12.49.37.11.47-.25.4-1.51,0-2.7-.79-3.1-1.78-.94-4.27,1.75-6.31,2.12a1.56,1.56,0,0,1-2-1.35,2.74,2.74,0,0,1,.7-2.29,3.08,3.08,0,0,1,.88-.65,1.57,1.57,0,0,1,.46-.21c.16,0,.29.05.44.05a1.31,1.31,0,0,1,.34,0,4.25,4.25,0,0,0,.89.12,11.81,11.81,0,0,0,2-.12,4.81,4.81,0,0,0,2.58-1.05,23.11,23.11,0,0,0,2.4-2.36,10.61,10.61,0,0,1,2.42-2.15,2.58,2.58,0,0,1,2.47.14l.22.08-.53.36a12.52,12.52,0,0,0-1.39,1.09,11.89,11.89,0,0,0-2.13,2.48,11,11,0,0,0-1.36,3,4.41,4.41,0,0,0-.15,1.41c0,.38.14.85.47.75.08,0,.17-.2.19-.31a.45.45,0,0,0-.08-.43,1.33,1.33,0,0,1-.11-.66,4.91,4.91,0,0,1,.26-1.3,9.71,9.71,0,0,1,1.29-2.55,11.67,11.67,0,0,1,1.93-2.12c.39-.35.79-.66,1.19-1s.57-.41.86-.63a1.75,1.75,0,0,0,1.64-.49c.67-.62,1.31-2,.88-2.67-.13-.19-.36.31-.34.5a2,2,0,0,1-.87,1.76,1.5,1.5,0,0,1-1.26,0,4.66,4.66,0,0,0-2.13-.52c-1.29.18-2.61,1.6-3.82,2.9a19.34,19.34,0,0,1-2,2,4.38,4.38,0,0,1-2.4,1c-1.43.17-3.11.35-4.08-.76a2.43,2.43,0,0,1-.22-2.67,2.76,2.76,0,0,1,1-1.14c.81-.49,1.35.1,2,.24,1.81.4,4-.81,6-2.36s4.23-3.39,5.74-2.24c.59.45.92,1.66,1.89,1.17.6-.3,1.29-1.51.9-2.09-.08-.13-.26.24-.26.37,0,.55-.35,1-.72,1.06a.76.76,0,0,1-.61-.34,5.82,5.82,0,0,0-.76-.92,2.31,2.31,0,0,0-2.1-.21c-1.78.52-3.57,2.3-5.35,3.48s-3.64,1.79-5.05,1.06A2.74,2.74,0,0,1,265,370.6a2.26,2.26,0,0,1,0-1.5,1,1,0,0,1,1.21-.63c.65.21,1,.92,1.81.81a3.33,3.33,0,0,0,2.09-1.69s0,0,0-.06a1.8,1.8,0,0,0,1.8-.16,3.05,3.05,0,0,0,1.16-1.07,6.6,6.6,0,0,0,.49-1.08.65.65,0,0,0,.9.58,2.57,2.57,0,0,0,.76-.46c.28-.24.8-.89,1.07-.78s.33.3.54.38a1.24,1.24,0,0,0,.58,0,2.81,2.81,0,0,0,1.49-.78,5.92,5.92,0,0,0,.67-.73c-.09,1.78,1.62,1.34,2.7.51a1.59,1.59,0,0,0,.34,1.13.71.71,0,0,0,.68.22,1.16,1.16,0,0,0,.33-.11,2.59,2.59,0,0,0,.38-.31s0-.16,0-.14a1,1,0,0,1-.33,0h-.24a.85.85,0,0,1-.45-.21,1.44,1.44,0,0,1-.29-1,15.3,15.3,0,0,0,1.7-2.24,5.42,5.42,0,0,1,1.16-1.29,8.56,8.56,0,0,1,1.44-.79c.07,0,.08-.24,0-.23a3.79,3.79,0,0,0-2,1.11c-.61.64-1.12,1.5-1.69,2.22-1.06,1.33-3.12,2.53-3.25.52,0,0,0-.07,0-.08a9.32,9.32,0,0,0,1-2.51,4.56,4.56,0,0,0,.16-2.13c-.14-.51-.59-.83-1.08-.31-.05.05,0,.17,0,.16,1.23-.25.85,1.83.31,3.23a5.36,5.36,0,0,1-2.17,2.84,1.47,1.47,0,0,1-1.17.15c-.26-.09-.44-.54-.78-.41s-.87.78-1.28,1.07-1.45.43-1-.57c.08-.17.21-.32.29-.5a.53.53,0,0,0,0-.12c0-.07-.05-.1-.09-.08a.33.33,0,0,0-.15.1,3.66,3.66,0,0,0-.82,1.17,3.28,3.28,0,0,1-1.07,1.67,2.38,2.38,0,0,1-1.45.45c-.47,0-.72-.47-.82-1.08-.22-1.25-.05-2.77-.29-4-.17-.88-.56-1.85-1.36-1.66-.06,0-.06.15,0,.17a3.78,3.78,0,0,1,.74.92,5,5,0,0,1,.42,1.87c.07,1.24-.16,2.92.28,3.87a1.24,1.24,0,0,0,.19.28,3.54,3.54,0,0,1-1.24,1.07,5.13,5.13,0,0,0-.2-2.87,1.2,1.2,0,0,0-.73-.73c-.25-.06-.54.15-.78,0s-.23-.68-.22-1.13a3.39,3.39,0,0,0-.19-1.58.76.76,0,0,0-1-.34,3,3,0,0,0-.75.46,3,3,0,0,0-.69.72s0,.14,0,.13a1.57,1.57,0,0,0,.59-.36,2.57,2.57,0,0,1,.68-.41.58.58,0,0,1,.78.24,1.54,1.54,0,0,1,.13.56c0,.21,0,.42,0,.64a.34.34,0,0,1,0,.1.21.21,0,0,1-.2.14,2.6,2.6,0,0,0-1.08.32,3.05,3.05,0,0,0-1,.9.76.76,0,0,0-.15.45,5.29,5.29,0,0,1,1.08-.87,1.7,1.7,0,0,1,1.06-.27c.26.05.29.3.43.54s.47.27.75.27a1,1,0,0,1,.6.15c.08.07.09.17.14.28s.14.27.2.42a4.61,4.61,0,0,1,.14,2.32,1.22,1.22,0,0,1-.33,0c-.53-.12-.86-.67-1.36-.85-.67-.24-1.7.27-2.12,1.61a3.06,3.06,0,0,0,.34,2.61c.09.13.19.24.28.36a3.35,3.35,0,0,0-1.64,1.62,3.48,3.48,0,0,0-.24,3.19,2.36,2.36,0,0,0,.65.77,1.78,1.78,0,0,0-.38.17,3.44,3.44,0,0,0-.66.51,4.15,4.15,0,0,0-1.11,1.81c-.45,1.52.05,2.62.8,3a1.48,1.48,0,0,0,.42.14,4.51,4.51,0,0,1-1.6.72c-.77.08-1.33-.43-2-.7a2,2,0,0,0-2.05.2A4.15,4.15,0,0,0,255.94,386Z" style="fill:#455a64"></path><path d="M258.77,393.66c-2.28-.39-3.88-2.84-4.63-7.1-1.21-6.86,1.59-16.25,8.57-28.72,5.84-10.43,17.55-16.74,21.26-17.13a7.55,7.55,0,0,1,5.15,1.64,7,7,0,0,0,2.58,1.22c2.23.33,3,1.74,2.79,4.84a11,11,0,0,0,.05,1.86c.14,1.43.27,2.77-1.4,6.05l-.18.35c-2.11,4.19-2.68,5.06-8.72,8.57.75,7.47-2.64,10.2-6.91,13.63l-.78.62c-4.58,3.71-5.11,4.31-6.89,6.31-.8.91-1.91,2.15-3.76,4.09a16.19,16.19,0,0,1-3.5,2.89A5.53,5.53,0,0,1,258.77,393.66Zm4.38-35.43c-6.79,12.13-9.53,21.22-8.38,27.78.71,4,2.21,6.35,4.32,6.71,1.83.3,4.11-.91,6.59-3.52,1.84-1.93,2.94-3.16,3.73-4.06,1.83-2.05,2.38-2.67,7-6.44l.78-.62c4.32-3.47,7.17-5.77,6.32-12.81a.72.72,0,0,1,.08-.39.71.71,0,0,1,.24-.29c6.31-3.64,6.62-4.25,8.63-8.24l.18-.36c1.45-2.86,1.35-3.91,1.23-5.24a10.3,10.3,0,0,1,0-2.06c.18-2.32-.16-3.84-2.46-4.18a7.15,7.15,0,0,1-2.7-1.27,7.35,7.35,0,0,0-4.94-1.59,19.1,19.1,0,0,0-6.2,2.57C272.76,347,266.72,351.85,263.15,358.23Z" style="fill:#455a64"></path></g><path d="M323.61,333.8,321,329.19l2.58-7.47.06,0,5.22-3,.08.14,2.58,4.46-2.59,7.47-.05,0Zm-2.31-4.64,2.42,4.2,4.9-2.82,2.5-7.22-2.43-4.21-4.89,2.83Z"></path><path d="M331.24,335.26l-.08-.13-2.58-4.47,2.59-7.47.05,0,5.22-3,2.66,4.6-2.59,7.47-.05,0Zm-2.31-4.63,2.42,4.2,4.9-2.83,2.5-7.21-2.42-4.21-4.9,2.83Z"></path><path d="M323.61,345.55,321,340.94l2.58-7.47.06,0,5.22-3,2.66,4.6-2.59,7.47-.05,0Zm-2.32-4.64,2.43,4.2,4.9-2.83,2.5-7.21-2.43-4.21-4.89,2.83Z"></path><path d="M316,355.82l-2.66-4.6,2.58-7.47.06,0,5.22-3,2.66,4.6-2.59,7.47-.05,0Zm-2.31-4.64,2.42,4.21,4.9-2.83,2.5-7.22-2.43-4.2L316.17,344Z"></path><path d="M316,367.57l-2.66-4.6,2.58-7.47.06,0,5.22-3,2.66,4.61-2.59,7.47-.05,0Zm-2.31-4.64,2.42,4.21,4.9-2.83,2.5-7.22-2.43-4.2-4.89,2.82Z"></path><path d="M308.35,366.1l-.08-.13-2.58-4.47,2.58-7.47.06,0,5.22-3,2.66,4.61-2.59,7.47-.05,0ZM306,361.46l2.43,4.21,4.9-2.83,2.5-7.22-2.43-4.2-4.89,2.83Z"></path><path d="M330.16,329.83a3.36,3.36,0,0,1-1.41,2.69c-.77.45-1.4,0-1.4-1.06a3.38,3.38,0,0,1,1.4-2.69C329.53,328.32,330.16,328.8,330.16,329.83Z" style="fill:#BA68C8"></path><path d="M332.7,322.49a3.36,3.36,0,0,1-1.4,2.68c-.78.45-1.41,0-1.41-1.06a3.36,3.36,0,0,1,1.41-2.68C332.07,321,332.7,321.45,332.7,322.49Z" style="fill:#BA68C8"></path><path d="M325.07,344.52a3.34,3.34,0,0,1-1.41,2.68c-.77.45-1.4,0-1.4-1.06a3.36,3.36,0,0,1,1.4-2.68C324.44,343,325.07,343.48,325.07,344.52Z" style="fill:#BA68C8"></path><path d="M317.44,354.8a3.38,3.38,0,0,1-1.4,2.68c-.78.45-1.41,0-1.41-1.06a3.36,3.36,0,0,1,1.41-2.69C316.81,353.28,317.44,353.76,317.44,354.8Z" style="fill:#BA68C8"></path><path d="M314.9,350.39a3.38,3.38,0,0,1-1.41,2.69c-.77.44-1.4,0-1.4-1.07a3.38,3.38,0,0,1,1.4-2.68C314.27,348.88,314.9,349.35,314.9,350.39Z" style="fill:#BA68C8"></path><path d="M324.29,321.47a1.5,1.5,0,0,1-.62,1.19c-.35.2-.63,0-.63-.47a1.48,1.48,0,0,1,.63-1.19C324,320.81,324.29,321,324.29,321.47Z" style="fill:#BA68C8"></path><path d="M329.37,318.54a1.48,1.48,0,0,1-.62,1.18c-.34.2-.62,0-.62-.47a1.5,1.5,0,0,1,.62-1.18C329.09,317.87,329.37,318.08,329.37,318.54Z" style="fill:#BA68C8"></path><path d="M321.74,328.82a1.48,1.48,0,0,1-.62,1.18c-.34.2-.62,0-.62-.47a1.48,1.48,0,0,1,.62-1.18C321.46,328.15,321.74,328.36,321.74,328.82Z" style="fill:#BA68C8"></path><path d="M324.29,333.22a1.48,1.48,0,0,1-.63,1.19c-.34.2-.62,0-.62-.47a1.5,1.5,0,0,1,.62-1.19C324,332.56,324.29,332.77,324.29,333.22Z" style="fill:#BA68C8"></path><path d="M337,320a1.47,1.47,0,0,1-.62,1.18c-.34.2-.62,0-.62-.47a1.48,1.48,0,0,1,.62-1.18C336.73,319.34,337,319.55,337,320Z" style="fill:#BA68C8"></path><path d="M339.55,324.41a1.5,1.5,0,0,1-.62,1.19c-.35.2-.63,0-.63-.47a1.48,1.48,0,0,1,.63-1.19C339.27,323.74,339.55,324,339.55,324.41Z" style="fill:#BA68C8"></path><path d="M337,331.75a1.47,1.47,0,0,1-.62,1.19c-.34.2-.62,0-.62-.47a1.5,1.5,0,0,1,.62-1.19C336.73,331.09,337,331.3,337,331.75Z" style="fill:#BA68C8"></path><path d="M331.92,334.69a1.5,1.5,0,0,1-.62,1.19c-.35.2-.63,0-.63-.47a1.48,1.48,0,0,1,.63-1.19C331.64,334,331.92,334.23,331.92,334.69Z" style="fill:#BA68C8"></path><path d="M329.37,342a1.5,1.5,0,0,1-.62,1.19c-.34.2-.62,0-.62-.47a1.5,1.5,0,0,1,.62-1.19C329.09,341.37,329.37,341.58,329.37,342Z" style="fill:#BA68C8"></path><path d="M321.74,340.57a1.5,1.5,0,0,1-.62,1.18c-.34.2-.62,0-.62-.47a1.48,1.48,0,0,1,.62-1.18C321.46,339.9,321.74,340.11,321.74,340.57Z" style="fill:#BA68C8"></path><path d="M316.66,343.5a1.5,1.5,0,0,1-.62,1.19c-.35.2-.63,0-.63-.47A1.48,1.48,0,0,1,316,343C316.38,342.83,316.66,343,316.66,343.5Z" style="fill:#BA68C8"></path><path d="M321.74,352.31a1.47,1.47,0,0,1-.62,1.19c-.34.2-.62,0-.62-.47a1.5,1.5,0,0,1,.62-1.19C321.47,351.64,321.74,351.85,321.74,352.31Z" style="fill:#BA68C8"></path><path d="M324.29,356.72a1.48,1.48,0,0,1-.62,1.18c-.35.2-.63,0-.63-.47a1.46,1.46,0,0,1,.63-1.18C324,356.05,324.29,356.26,324.29,356.72Z" style="fill:#BA68C8"></path><path d="M321.74,364.06a1.47,1.47,0,0,1-.62,1.19c-.34.19-.62,0-.62-.47a1.5,1.5,0,0,1,.62-1.19C321.47,363.39,321.74,363.6,321.74,364.06Z" style="fill:#BA68C8"></path><path d="M316.66,367a1.48,1.48,0,0,1-.62,1.18c-.35.2-.63,0-.63-.47a1.46,1.46,0,0,1,.63-1.18C316.38,366.33,316.66,366.54,316.66,367Z" style="fill:#BA68C8"></path><path d="M309,365.53a1.45,1.45,0,0,1-.63,1.18c-.34.2-.62,0-.62-.47a1.5,1.5,0,0,1,.62-1.18C308.75,364.86,309,365.07,309,365.53Z" style="fill:#BA68C8"></path><path d="M314.11,362.59a1.5,1.5,0,0,1-.62,1.19c-.34.2-.62,0-.62-.47a1.5,1.5,0,0,1,.62-1.19C313.83,361.92,314.11,362.13,314.11,362.59Z" style="fill:#BA68C8"></path><path d="M309,353.78a1.48,1.48,0,0,1-.63,1.19c-.34.19-.62,0-.62-.47a1.5,1.5,0,0,1,.62-1.19C308.75,353.11,309,353.32,309,353.78Z" style="fill:#BA68C8"></path><path d="M306.48,361.12a1.5,1.5,0,0,1-.62,1.19c-.34.2-.62,0-.62-.47a1.5,1.5,0,0,1,.62-1.19C306.2,360.45,306.48,360.66,306.48,361.12Z" style="fill:#BA68C8"></path><path d="M327.55,353.6l18.77-10.83a1.39,1.39,0,0,0,.7-1c0-.31-.32-.39-.7-.16l-18.77,10.83a1.35,1.35,0,0,0-.7,1C326.85,353.75,327.16,353.83,327.55,353.6Z" style="fill:#e0e0e0"></path><path d="M327.55,350.63l18.77-10.83a1.38,1.38,0,0,0,.7-1c0-.31-.32-.39-.7-.16l-18.77,10.83a1.37,1.37,0,0,0-.7,1C326.85,350.78,327.16,350.86,327.55,350.63Z" style="fill:#e0e0e0"></path><path d="M299.77,343.15l13.1-7.6a1.35,1.35,0,0,0,.7-1c0-.32-.31-.39-.7-.17l-13.1,7.6a1.35,1.35,0,0,0-.7,1C299.07,343.3,299.38,343.37,299.77,343.15Z" style="fill:#e0e0e0"></path><path d="M299.77,340.18l13.1-7.6a1.35,1.35,0,0,0,.7-1c0-.32-.31-.39-.7-.17l-13.1,7.6a1.35,1.35,0,0,0-.7,1C299.07,340.33,299.38,340.4,299.77,340.18Z" style="fill:#e0e0e0"></path><path d="M337.72,341.69a.16.16,0,0,1-.16-.16v-3.9l-5.06-2a.16.16,0,0,1,.12-.3l5.15,2.07a.18.18,0,0,1,.1.15v4A.16.16,0,0,1,337.72,341.69Z" style="fill:#BA68C8"></path><path d="M314.89,343.81h0L307,342.55a.16.16,0,0,1-.13-.16v-2.08a.16.16,0,0,1,.32,0v1.95l7.7,1.24a.16.16,0,0,1,.13.18A.15.15,0,0,1,314.89,343.81Z" style="fill:#BA68C8"></path></g></g><g id="freepik--Microscope--inject-18"><g id="freepik--microscope--inject-18"><path d="M115.55,404.83v4l56.89,32.85v-4c0-2.23-2.22-5.31-5-6.9l-47-27.11c-1.65-1-3.11-1.14-4-.66A1.93,1.93,0,0,0,115.55,404.83Z" style="fill:#263238"></path><path d="M149,384.27l.06,0h0c.9-.52,2.38-.34,4.06.63l47,27.12c2.73,1.58,5,4.67,5,6.89v4l-32.58,18.81v-4c0-2.23-2.22-5.31-5-6.9l-47-27.11c-1.65-1-3.11-1.14-4-.66Z" style="fill:#455a64"></path><path d="M185.72,407c-3.94-2.28-9.31-3.23-14.45-2.86l-19.71-11.38-15.19,8.76,19.7,11.38c-.63,3,1,6.07,5,8.35,6.81,3.93,17.86,3.93,24.67,0S192.54,410.93,185.72,407Z" style="fill:#37474f"></path><path d="M132.73,392.69v6.72l11.63,6.72v-6.72a12.86,12.86,0,0,0-5.82-10.08c-1.62-.94-3.09-1-4.14-.38S132.73,390.86,132.73,392.69Z" style="fill:#BA68C8"></path><path d="M132.73,392.69v6.72l11.63,6.72v-6.72a12.86,12.86,0,0,0-5.82-10.08c-1.62-.94-3.09-1-4.14-.38S132.73,390.86,132.73,392.69Z" style="fill:#fff;opacity:0.6000000000000001"></path><path d="M148.32,380.91l.09-.06a4.11,4.11,0,0,1,4.09.42,12.84,12.84,0,0,1,5.82,10.08v6.72l-14,8.06v-6.72a12.86,12.86,0,0,0-5.82-10.08,4.15,4.15,0,0,0-4-.48Z" style="fill:#BA68C8"></path><path d="M148.32,380.91l.09-.06a4.11,4.11,0,0,1,4.09.42,12.84,12.84,0,0,1,5.82,10.08v6.72l-14,8.06v-6.72a12.86,12.86,0,0,0-5.82-10.08,4.15,4.15,0,0,0-4-.48Z" style="fill:#fff;opacity:0.7000000000000001"></path><path d="M138.55,395.23c-.86-.49-1.56-.09-1.56.9a3.44,3.44,0,0,0,1.56,2.69c.85.49,1.55.09,1.55-.9A3.46,3.46,0,0,0,138.55,395.23Z" style="fill:#455a64"></path><path d="M129.75,366.83c3.12,10.17,5.32,14.47,11.15,22.22l10.81-6.25c-5.33-8.38-8.28-14.74-9.64-23.08-2.37-14.52,3-27.27,8.63-32.51l-4.21-5.82c-2.53,1.51-10.82,6.25-10.82,6.25l3.53,5.91C129.09,339.08,126.63,356.66,129.75,366.83Z" style="fill:#37474f"></path><path d="M135.67,327.64c-5.72,3.42-14.48,13.45-13.17,32.42a60.5,60.5,0,0,0,11,29.73,2.54,2.54,0,0,1,.9-.84l1.48-.86c1.05-.63,2.52-.56,4.15.38.29.17.58.37.87.58-4.69-8.65-9.61-16.24-10.81-24.6-2.62-18.22,5.37-28.67,9.11-30.9Z" style="fill:#263238"></path><path d="M135.67,327.64a20.19,20.19,0,0,1,9.6-2.67l1.11,6.36s-2.84-.46-7.18,2.22Z" style="fill:#263238"></path><polygon points="162.95 406.54 162.95 401.16 178.13 392.39 178.13 397.77 162.95 406.54" style="fill:#BA68C8"></polygon><polygon points="162.95 406.54 162.95 401.16 178.13 392.39 178.13 397.77 162.95 406.54" style="opacity:0.15"></polygon><polygon points="162.95 406.54 136.37 391.19 136.37 385.82 162.95 401.16 162.95 406.54" style="fill:#BA68C8"></polygon><polygon points="162.95 406.54 136.37 391.19 136.37 385.82 162.95 401.16 162.95 406.54" style="opacity:0.25"></polygon><polygon points="178.13 392.39 151.56 377.05 136.37 385.82 162.95 401.16 178.13 392.39" style="fill:#BA68C8"></polygon><path d="M190.83,403.35v-4.92c0-2.58-1.7-5.16-5.11-7.13-6.81-3.93-17.86-3.94-24.67,0-3.41,2-5.11,4.54-5.11,7.12h0v4.93h0c0,2.62,1.65,5.23,5.1,7.23,6.81,3.93,17.86,3.93,24.67,0,3.46-2,5.15-4.61,5.11-7.23Z" style="fill:#BA68C8"></path><path d="M190.83,403.35v-4.92c0-2.58-1.7-5.16-5.11-7.13-6.81-3.93-17.86-3.94-24.67,0-3.41,2-5.11,4.54-5.11,7.12h0v4.93h0c0,2.62,1.65,5.23,5.1,7.23,6.81,3.93,17.86,3.93,24.67,0,3.46-2,5.15-4.61,5.11-7.23Z" style="opacity:0.25"></path><path d="M161.05,391.3c6.81-3.94,17.86-3.93,24.67,0s6.82,10.31,0,14.25-17.86,3.93-24.67,0S154.24,395.23,161.05,391.3Z" style="fill:#BA68C8"></path><path d="M186.47,398.15v-3.69c0-1.94-1.28-3.87-3.83-5.35-5.11-2.95-13.4-2.95-18.51,0-2.55,1.48-3.82,3.41-3.82,5.35h0v3.69h0c0,2,1.24,3.93,3.82,5.42,5.11,2.95,13.4,2.95,18.51,0,2.59-1.49,3.86-3.46,3.82-5.42Z" style="fill:#e0e0e0"></path><ellipse cx="173.39" cy="394.46" rx="13.08" ry="7.55" style="fill:#fafafa"></ellipse><path d="M164.66,389.42c4.82-2.78,12.63-2.78,17.45,0s4.82,7.29,0,10.07-12.63,2.78-17.45,0S159.84,392.2,164.66,389.42Z" style="fill:#e6e6e6"></path><path d="M182.11,392.84c-4.82-2.78-12.63-2.78-17.45,0a7.36,7.36,0,0,0-3.25,3.33,7.39,7.39,0,0,0,3.25,3.32c4.82,2.78,12.63,2.78,17.45,0a7.42,7.42,0,0,0,3.26-3.32A7.39,7.39,0,0,0,182.11,392.84Z" style="fill:#f0f0f0"></path><path d="M171.17,394.89a4.87,4.87,0,0,1,4.43,0,1.35,1.35,0,0,1,0,2.55,4.87,4.87,0,0,1-4.43,0A1.35,1.35,0,0,1,171.17,394.89Z" style="fill:#BA68C8"></path><path d="M176.78,397.48a1.5,1.5,0,0,1,1.37,0,.42.42,0,0,1,0,.79,1.5,1.5,0,0,1-1.37,0A.42.42,0,0,1,176.78,397.48Z" style="fill:#BA68C8"></path><path d="M175.53,395.55c0,.34-.48.62-1.07.62s-1.07-.28-1.07-.62.48-.61,1.07-.61S175.53,395.22,175.53,395.55Z" style="fill:#fff;opacity:0.6000000000000001"></path><path d="M178,397.68c0,.11-.14.19-.33.19s-.33-.08-.33-.19.15-.19.33-.19S178,397.58,178,397.68Z" style="fill:#fff;opacity:0.6000000000000001"></path><path d="M179.07,367.94V354.31l9.5,0V368h0a2.34,2.34,0,0,1-1.39,1.94,7.45,7.45,0,0,1-6.71,0A2.36,2.36,0,0,1,179.07,367.94Z" style="fill:#263238"></path><path d="M188.56,365.13a2.34,2.34,0,0,1-1.39,1.93,7.38,7.38,0,0,1-6.71,0,2.36,2.36,0,0,1-1.39-1.94v2.84a2.36,2.36,0,0,0,1.39,1.95,7.45,7.45,0,0,0,6.71,0,2.34,2.34,0,0,0,1.39-1.94h0v-2.84Z" style="fill:#BA68C8"></path><path d="M188.56,365.13a2.34,2.34,0,0,1-1.39,1.93,7.38,7.38,0,0,1-6.71,0,2.36,2.36,0,0,1-1.39-1.94v2.84a2.36,2.36,0,0,0,1.39,1.95,7.45,7.45,0,0,0,6.71,0,2.34,2.34,0,0,0,1.39-1.94h0v-2.84Z" style="fill:#fff;opacity:0.6000000000000001"></path><path d="M167.72,367.94V354.31l-9.49,0V368h0a2.35,2.35,0,0,0,1.4,1.94,7.45,7.45,0,0,0,6.71,0A2.37,2.37,0,0,0,167.72,367.94Z" style="fill:#263238"></path><path d="M158.23,365.13a2.35,2.35,0,0,0,1.4,1.93,7.38,7.38,0,0,0,6.71,0,2.37,2.37,0,0,0,1.38-1.94v2.84a2.37,2.37,0,0,1-1.38,1.95,7.45,7.45,0,0,1-6.71,0,2.35,2.35,0,0,1-1.4-1.94h0v-2.84Z" style="fill:#BA68C8"></path><path d="M158.23,365.13a2.35,2.35,0,0,0,1.4,1.93,7.38,7.38,0,0,0,6.71,0,2.37,2.37,0,0,0,1.38-1.94v2.84a2.37,2.37,0,0,1-1.38,1.95,7.45,7.45,0,0,1-6.71,0,2.35,2.35,0,0,1-1.4-1.94h0v-2.84Z" style="opacity:0.25"></path><path d="M168.64,374V360.32l9.49,0V374h0a2.35,2.35,0,0,1-1.4,1.93,7.45,7.45,0,0,1-6.71,0A2.37,2.37,0,0,1,168.64,374Z" style="fill:#37474f"></path><path d="M178.13,371.14a2.35,2.35,0,0,1-1.4,1.93,7.38,7.38,0,0,1-6.71,0,2.36,2.36,0,0,1-1.38-1.94V374A2.37,2.37,0,0,0,170,375.9a7.45,7.45,0,0,0,6.71,0,2.35,2.35,0,0,0,1.4-1.93h0v-2.85Z" style="fill:#BA68C8"></path><path d="M189.52,342.43c0-1.92-1-3.84-3.14-5.45a20.5,20.5,0,0,1-3.35-3.3l-4.53-5.51A21.54,21.54,0,0,0,155.78,321a18.25,18.25,0,0,0-3.77,1.59c-3.35,1.92-4.86,4.51-4.53,7l0,15.84c-.19,2.42,1.32,4.89,4.52,6.75l11,6.34c6.06,3.53,15.91,3.56,22,.07,3-1.74,4.56-4,4.58-6.31S189.51,344.72,189.52,342.43Z" style="fill:#37474f"></path><polygon points="151.56 347.65 155.35 349.84 155.35 347.65 151.56 345.45 151.56 347.65" style="fill:#BA68C8"></polygon><path d="M158.45,343.22a21.54,21.54,0,0,0,22.72,7.12,17.22,17.22,0,0,0,3.77-1.59c5.58-3.19,6.06-8.24,1.43-11.77a20.32,20.32,0,0,1-3.33-3.29l-4.54-5.52A21.54,21.54,0,0,0,155.78,321a18.25,18.25,0,0,0-3.77,1.59c-5.58,3.2-6.06,8.25-1.43,11.78a20.32,20.32,0,0,1,3.33,3.29Z" style="fill:#455a64"></path><path d="M184.94,356.77c-6.08,3.49-15.93,3.46-22-.07l-11-6.34c-3-1.76-4.54-4.06-4.54-6.36v1.9c0,2.3,1.51,4.6,4.54,6.36l11,6.34c6.06,3.53,15.91,3.56,22,.07,3-1.74,4.56-4,4.58-6.31v-1.9C189.5,352.75,188,355,184.94,356.77Z" style="fill:#BA68C8"></path><path d="M147.43,329V318.18l31.11.09v10.8h0c0,2.29-1.53,4.59-4.57,6.33-6.09,3.49-15.94,3.46-22-.07C148.93,333.57,147.42,331.27,147.43,329Z" style="fill:#37474f"></path><path d="M178.54,318.27l-31.11-.09s0,.1,0,2.4,1.51,4.6,4.54,6.36c6.06,3.53,15.91,3.56,22,.07,3-1.74,4.56-4,4.57-6.34S178.54,318.27,178.54,318.27Z" style="fill:#BA68C8"></path><path d="M174,311.91c-6.07-3.53-15.92-3.56-22-.07s-6.1,9.18,0,12.7,15.91,3.56,22,.07S180.07,315.44,174,311.91Z" style="fill:#BA68C8"></path><path d="M174,311.91c-6.07-3.53-15.92-3.56-22-.07s-6.1,9.18,0,12.7,15.91,3.56,22,.07S180.07,315.44,174,311.91Z" style="fill:#fff;opacity:0.5"></path><path d="M156.26,317.32V298l13.45,0v19.32h0a3.34,3.34,0,0,1-2,2.74,10.53,10.53,0,0,1-9.5,0A3.33,3.33,0,0,1,156.26,317.32Z" style="fill:#37474f"></path><path d="M169.71,298l-13.45,0s0,1.83,0,2.83a3.35,3.35,0,0,0,2,2.75,10.55,10.55,0,0,0,9.51,0,3.38,3.38,0,0,0,2-2.74C169.7,299.88,169.71,298,169.71,298Z" style="fill:#BA68C8"></path><path d="M167.74,295.29a10.47,10.47,0,0,0-9.5,0c-2.63,1.5-2.64,4,0,5.49a10.55,10.55,0,0,0,9.51,0C170.36,299.27,170.37,296.81,167.74,295.29Z" style="fill:#BA68C8"></path><path d="M167.74,295.29a10.47,10.47,0,0,0-9.5,0c-2.63,1.5-2.64,4,0,5.49a10.55,10.55,0,0,0,9.51,0C170.36,299.27,170.37,296.81,167.74,295.29Z" style="opacity:0.25"></path><path d="M166.41,296.05a7.59,7.59,0,0,0-6.84,0c-1.89,1.09-1.9,2.85,0,4a7.53,7.53,0,0,0,6.84,0C168.29,298.92,168.29,297.15,166.41,296.05Z" style="fill:#263238"></path><path d="M159.57,298.82a4.07,4.07,0,0,0-.77.58,3.61,3.61,0,0,0,.76.58,7.53,7.53,0,0,0,6.84,0,3.61,3.61,0,0,0,.76-.58,3.51,3.51,0,0,0-.75-.57A7.56,7.56,0,0,0,159.57,298.82Z" style="fill:#455a64"></path><path d="M161.46,299.09c.06.26-.19.54-.55.61s-.7-.06-.76-.32.19-.54.56-.62S161.41,298.83,161.46,299.09Z" style="fill:#fafafa"></path><path d="M162.31,298.8a.26.26,0,1,1-.51.11.26.26,0,0,1,.51-.11Z" style="fill:#fafafa"></path><path d="M143.62,321a3.55,3.55,0,0,1,3.68.31,9.16,9.16,0,0,1,2.19,1.84c.16.18.32.37.46.56l0,0a12.28,12.28,0,0,1,1.92,3.58,9,9,0,0,1,.5,2.83,3.65,3.65,0,0,1-1.43,3.26l-1.7,1a2.57,2.57,0,0,0,.69-.63,4.3,4.3,0,0,0,.74-2.63,11.31,11.31,0,0,0-5.1-8.84,4.26,4.26,0,0,0-2.67-.66,2.38,2.38,0,0,0-1,.33h0Z" style="fill:#BA68C8"></path><path d="M143.62,321a3.55,3.55,0,0,1,3.68.31,9.16,9.16,0,0,1,2.19,1.84c.16.18.32.37.46.56l0,0a12.28,12.28,0,0,1,1.92,3.58,9,9,0,0,1,.5,2.83,3.65,3.65,0,0,1-1.43,3.26l-1.7,1a2.57,2.57,0,0,0,.69-.63,4.3,4.3,0,0,0,.74-2.63,11.31,11.31,0,0,0-5.1-8.84,4.26,4.26,0,0,0-2.67-.66,2.38,2.38,0,0,0-1,.33h0Z" style="fill:#fff;opacity:0.7000000000000001"></path><path d="M142,321.91a2.38,2.38,0,0,1,1-.33,4.26,4.26,0,0,1,2.67.66,11.31,11.31,0,0,1,5.1,8.84,4.3,4.3,0,0,1-.74,2.63,2.57,2.57,0,0,1-.69.63l-.08.05a2.72,2.72,0,0,1-1.41.33,4.73,4.73,0,0,1-2.18-.7,11.26,11.26,0,0,1-5.11-8.83A3.62,3.62,0,0,1,142,321.91Z" style="fill:#BA68C8"></path><path d="M142,321.91a2.38,2.38,0,0,1,1-.33,4.26,4.26,0,0,1,2.67.66,11.31,11.31,0,0,1,5.1,8.84,4.3,4.3,0,0,1-.74,2.63,2.57,2.57,0,0,1-.69.63l-.08.05a2.72,2.72,0,0,1-1.41.33,4.73,4.73,0,0,1-2.18-.7,11.26,11.26,0,0,1-5.11-8.83A3.62,3.62,0,0,1,142,321.91Z" style="fill:#fff;opacity:0.6000000000000001"></path><path d="M145.6,325.76c-1.14-.65-2.06-.12-2.06,1.19a4.54,4.54,0,0,0,2.06,3.56c1.13.65,2.05.12,2.05-1.19A4.56,4.56,0,0,0,145.6,325.76Z" style="fill:#455a64"></path></g></g><g id="freepik--magnifying-glass--inject-18"><g id="freepik--magnifier-glass--inject-18"><path d="M63.65,402.61v-.12l2.71-71.6h0a3.34,3.34,0,0,1,2-2.78,10.69,10.69,0,0,1,9.71.13,3.47,3.47,0,0,1,2,2.84h0l2.73,71.68v.11c0,.06,0,.12,0,.19a9.44,9.44,0,0,1-9.59,9.48,9.76,9.76,0,0,1-9.6-9.74C63.64,402.73,63.65,402.67,63.65,402.61Z" style="fill:#37474f"></path><path d="M78.08,328.24c2.68,1.59,2.68,4.11,0,5.62a10.69,10.69,0,0,1-9.71-.13c-2.68-1.59-2.68-4.11,0-5.62A10.69,10.69,0,0,1,78.08,328.24Z" style="fill:#263238"></path><path d="M76.78,400.21l-1.55-65.4a8.86,8.86,0,0,0,2.85-.94,3.36,3.36,0,0,0,2-2.77l2.73,71.66v.11c0,.06,0,.12,0,.19a9.44,9.44,0,0,1-9.59,9.48C76.22,411.82,77,406.64,76.78,400.21Z" style="fill:#455a64"></path><path d="M70.29,304.07a6.46,6.46,0,0,1,5.87.08,2.11,2.11,0,0,1,1.22,1.72h0V331h0a2,2,0,0,1-1.22,1.69,6.46,6.46,0,0,1-5.87-.09,2.11,2.11,0,0,1-1.22-1.71V305.75h0A2,2,0,0,1,70.29,304.07Z" style="fill:#e0e0e0"></path><path d="M77.38,316.29v-7.05c-2.79.63-5.57,1.13-8.31,1.5v6.93C71.84,317.33,74.62,316.87,77.38,316.29Z" style="opacity:0.25"></path><path d="M116.73,204l-14-8.11C94.83,191.31,84,192,72,198.88c-24,13.86-43.45,47.56-43.45,75.27,0,13.86,4.86,23.59,12.73,28.13l14,8.09a22.27,22.27,0,0,0,11.32,2.89c5.84,0,12.43-1.9,19.41-5.93,24-13.85,43.45-47.55,43.45-75.26C129.44,218.22,124.58,208.49,116.73,204Zm-20,59.4c-7.61,13.18-17.63,23.8-28.2,29.91-5.54,3.2-10.93,4.93-15.61,5-2.26-4-3.47-9.45-3.47-16,0-12.21,4.18-26.19,11.8-39.37S78.86,219.06,89.44,213c5.54-3.21,10.93-4.93,15.61-5,2.25,4,3.47,9.46,3.47,16C108.52,236.19,104.33,250.17,96.72,263.35Z" style="fill:#BA68C8"></path><path d="M39.88,233.77l20,11.54c.44-.81.9-1.63,1.37-2.44a98.82,98.82,0,0,1,7.86-11.65l-20-11.57A105.8,105.8,0,0,0,39.88,233.77Zm19.78-25.72q-3,2.79-5.87,5.93L73.91,225.6a78.42,78.42,0,0,1,6-5.83Z" style="fill:#fff;opacity:0.1"></path><path d="M55.21,310.34l-14-8.06c-7.87-4.54-12.73-14.27-12.73-28.13,0-.53,0-1.06,0-1.6l14,8.09c0,.54,0,1.07,0,1.6C42.53,296.06,47.38,305.78,55.21,310.34Z" style="opacity:0.25"></path><path d="M105.39,208h-.34c2.25,4,3.47,9.46,3.47,16,0,12.21-4.19,26.19-11.8,39.37s-17.63,23.8-28.2,29.91c-5.54,3.2-10.93,4.93-15.61,5a15,15,0,0,0,13.67,8.09c4.76,0,10.27-1.73,16-5,10.58-6.1,20.59-16.72,28.2-29.9s11.81-27.18,11.81-39.38C122.54,217,116.13,208,105.39,208Z" style="fill:#BA68C8"></path><path d="M105.39,208h-.34c2.25,4,3.47,9.46,3.47,16,0,12.21-4.19,26.19-11.8,39.37s-17.63,23.8-28.2,29.91c-5.54,3.2-10.93,4.93-15.61,5a15,15,0,0,0,13.67,8.09c4.76,0,10.27-1.73,16-5,10.58-6.1,20.59-16.72,28.2-29.9s11.81-27.18,11.81-39.38C122.54,217,116.13,208,105.39,208Z" style="opacity:0.25"></path><path d="M116,228.32c0,12.21-4.19,26.2-11.8,39.38S86.59,291.5,76,297.6c-5.68,3.28-11.19,5-16,5a16.84,16.84,0,0,1-4.28-.53h0a18,18,0,0,1-2.86-3.81c-2.26-4-3.47-9.45-3.47-16,0-12.21,4.18-26.19,11.8-39.37S78.86,219.06,89.44,213c5.54-3.21,10.93-4.93,15.61-5h.34a16.08,16.08,0,0,1,4.3.54C113.76,212.56,116,219.37,116,228.32Z" style="fill:#fff;opacity:0.30000000000000004"></path><path d="M86,207c-24,13.85-43.46,47.55-43.46,75.26S62,321.18,86,307.33s43.45-47.55,43.45-75.26S110,193.12,86,207Zm-3.46,94.37c-5.68,3.28-11.19,5-16,5a15,15,0,0,1-13.67-8.09c-2.26-4-3.47-9.45-3.47-16,0-12.21,4.18-26.19,11.8-39.37S78.86,219.06,89.44,213c5.54-3.21,10.93-4.93,15.61-5h.34c10.74,0,17.15,9,17.15,24.12,0,12.2-4.19,26.19-11.81,39.38S93.11,295.25,82.53,301.35Z" style="fill:#BA68C8"></path><g style="opacity:0.30000000000000004"><path d="M86,207c-24,13.85-43.46,47.55-43.46,75.26S62,321.18,86,307.33s43.45-47.55,43.45-75.26S110,193.12,86,207Zm-3.46,94.37c-5.68,3.28-11.19,5-16,5a15,15,0,0,1-13.67-8.09c-2.26-4-3.47-9.45-3.47-16,0-12.21,4.18-26.19,11.8-39.37S78.86,219.06,89.44,213c5.54-3.21,10.93-4.93,15.61-5h.34c10.74,0,17.15,9,17.15,24.12,0,12.2-4.19,26.19-11.81,39.38S93.11,295.25,82.53,301.35Z" style="fill:#fff"></path></g><g style="opacity:0.30000000000000004"><path d="M53.07,243.4a100.64,100.64,0,0,0-8.82,24.69,70.38,70.38,0,0,0-1.48,13,48.46,48.46,0,0,0,1.43,13A28.71,28.71,0,0,0,50,305.67a20.83,20.83,0,0,0,10.91,6.74,27.19,27.19,0,0,0,13-.2A46.85,46.85,0,0,0,86,307.33a47.13,47.13,0,0,1-12.1,5.13,27.39,27.39,0,0,1-13.1.28A21.22,21.22,0,0,1,49.63,306a29.28,29.28,0,0,1-5.93-11.74,48.76,48.76,0,0,1-1.36-13.12A71,71,0,0,1,43.91,268a91.2,91.2,0,0,1,3.71-12.65A104.87,104.87,0,0,1,53.07,243.4Z" style="fill:#fff"></path></g><g style="opacity:0.30000000000000004"><path d="M105.39,208a16.4,16.4,0,0,1,6.38,1.16,14.73,14.73,0,0,1,5.3,3.78,19.77,19.77,0,0,1,3.42,5.58,29.6,29.6,0,0,1,1.8,6.3,50.2,50.2,0,0,1,.37,13.07,71.9,71.9,0,0,1-2.42,12.85A85.22,85.22,0,0,1,115.75,263a101.31,101.31,0,0,1-6.14,11.55A90.05,90.05,0,0,1,93,294.64a63.28,63.28,0,0,1-10.69,7.62,36.77,36.77,0,0,1-12.39,4.47,20,20,0,0,1-6.68-.07A15,15,0,0,1,57,304a14.56,14.56,0,0,1-2.47-2.3,17.33,17.33,0,0,1-1.94-2.73,24.44,24.44,0,0,1-2.47-6.16,43.58,43.58,0,0,1-1.1-13.06,67.67,67.67,0,0,1,2-12.91,83.42,83.42,0,0,1,4.23-12.33,94.31,94.31,0,0,1,5.92-11.59A94.19,94.19,0,0,0,51.74,267a68.31,68.31,0,0,0-1.81,12.79,42.54,42.54,0,0,0,1.26,12.74,22.84,22.84,0,0,0,2.44,5.85A15.53,15.53,0,0,0,57.75,303a13.85,13.85,0,0,0,5.67,2.46,18.85,18.85,0,0,0,6.27,0,35.36,35.36,0,0,0,11.92-4.38A62.35,62.35,0,0,0,92,293.61a88.93,88.93,0,0,0,16.51-19.74,97.5,97.5,0,0,0,10.67-23.47,70.87,70.87,0,0,0,2.58-12.64,50,50,0,0,0-.17-12.88,28.4,28.4,0,0,0-1.62-6.21,19.22,19.22,0,0,0-3.22-5.54,14.52,14.52,0,0,0-5.11-3.83A16.28,16.28,0,0,0,105.39,208Z" style="fill:#fff"></path></g></g></g><g id="freepik--Molecules--inject-18"><g id="freepik--molecules--inject-18"><path d="M280.56,90a3.41,3.41,0,0,0-2.9-1l-2.77-8.39a3.61,3.61,0,0,0,.75-.55,3.5,3.5,0,0,0,.8-1.21L284,80.28a3.41,3.41,0,1,0,1-2.43,3.28,3.28,0,0,0-.8,1.21l-7.56-1.42a3.42,3.42,0,0,0-1-2.4,3.36,3.36,0,0,0-1.16-.77l2-9.59a3.42,3.42,0,1,0-2.37-1,3.36,3.36,0,0,0,1.15.78l-2,9.59a3.37,3.37,0,0,0-2.45,1,3.55,3.55,0,0,0-.79,1.18l-13.33-2.62a3.41,3.41,0,0,0-5.8-2.47,3.41,3.41,0,0,0,4.77,4.88,3.31,3.31,0,0,0,.79-1.19l13.33,2.62A3.42,3.42,0,0,0,273.72,81l2.76,8.4a3,3,0,0,0-.75.55,3.42,3.42,0,1,0,4.83,0Z" style="fill:#f0f0f0"></path><path d="M28.75,208.65a2.35,2.35,0,0,1,.66-3.26,2.27,2.27,0,0,1,.81-.33V201a2.28,2.28,0,0,1-1.46-1,2.37,2.37,0,0,1-.37-1l-4.67-.49a2.31,2.31,0,0,1-.93,1.23,2.35,2.35,0,1,1,.66-3.26,2.29,2.29,0,0,1,.37,1.05l4.68.48a2.31,2.31,0,0,1,3.08-1.45l5.17-7.79a3.63,3.63,0,0,1-.6-.69,3.54,3.54,0,0,1-.56-2.4l-6.46-1.75a2.29,2.29,0,0,1-.78.89,2.36,2.36,0,1,1,.66-3.26,2.28,2.28,0,0,1,.38,1.42l6.46,1.74a3.46,3.46,0,0,1,1.28-1.54l-5.22-10.75a2.35,2.35,0,1,1,1.41-3.58l6.11-2.39a2.35,2.35,0,1,1,.36.93l-6.12,2.39a2.31,2.31,0,0,1-.87,2.21L38,182.65a3.55,3.55,0,0,1,3,6.34l-.46.25,2,6.41a2.34,2.34,0,1,1-1.11.38.6.6,0,0,1,.16-.08l-2-6.42a3.62,3.62,0,0,1-2.08-.3L32.41,197a1.84,1.84,0,0,1,.27.34,2.35,2.35,0,0,1-.66,3.26,2.47,2.47,0,0,1-.81.33v4.11a2.3,2.3,0,0,1,1.46,1,2.35,2.35,0,0,1-3.92,2.6Z" style="fill:#f0f0f0"></path><path d="M470.93,197.12a2.93,2.93,0,0,0,.43,3.16l-6.45,9-.1-.05a4.42,4.42,0,1,0,.15,7.92l5.52,7.54a3,3,0,0,0-.42.63,2.95,2.95,0,1,0,1.53-1.45l-5.52-7.53a4.32,4.32,0,0,0,.86-1.23,4.42,4.42,0,0,0-.9-5l6.46-9a2.92,2.92,0,1,0-1.56-3.95Z" style="fill:#f0f0f0"></path><path d="M67.27,68.53a2.93,2.93,0,0,0-2.49,2l-11.11-.87a.37.37,0,0,0,0-.11,4.44,4.44,0,1,0-6.74,4.23L43.3,82.44a2.75,2.75,0,0,0-.76,0,3,3,0,1,0,2,.57l3.62-8.66a4.41,4.41,0,0,0,5.36-3.27l11.12.87a2.94,2.94,0,1,0,2.59-3.39Z" style="fill:#f0f0f0"></path><path d="M430.91,101.85a2.54,2.54,0,0,0,1.34-.33l5.53,5.69a3.76,3.76,0,0,0,6,4.58l10.75,6.07a3.48,3.48,0,0,0-.22,1.12,3.78,3.78,0,0,0,2,3.46l-2.41,7a2.49,2.49,0,1,0,2.43,2.59,2.52,2.52,0,0,0-1.23-2.24l2.4-6.93a3.4,3.4,0,0,0,.46.06,3.91,3.91,0,0,0,1.9-.43l5.41,7.13a2.49,2.49,0,1,0,1-.76l-5.42-7.13a3.76,3.76,0,0,0,.05-5.1L469,106.19a2.49,2.49,0,1,0-1.49-2.38,2.4,2.4,0,0,0,.51,1.6l-8.22,10.43a3.67,3.67,0,0,0-1.65-.46,3.73,3.73,0,0,0-3.07,1.39l-10.75-6.06a3.84,3.84,0,0,0,.22-1.13,3.75,3.75,0,0,0-2.1-3.52l2.6-8.63a2.52,2.52,0,1,0-1.2-.37l-2.59,8.64c-.11,0-.21,0-.32,0a3.77,3.77,0,0,0-2.29.67l-5.54-5.7a2.45,2.45,0,0,0,.37-1.18,2.5,2.5,0,1,0-2.6,2.39Z" style="fill:#f0f0f0"></path><path d="M85.68,40.55a4.15,4.15,0,1,1-4.15-4.15A4.15,4.15,0,0,1,85.68,40.55Z" style="fill:#f0f0f0"></path><path d="M172.63,48.59a4.15,4.15,0,1,1-4.15-4.14A4.15,4.15,0,0,1,172.63,48.59Z" style="fill:#f0f0f0"></path><path d="M468.4,163.13a4.15,4.15,0,1,1-4.14-4.15A4.14,4.14,0,0,1,468.4,163.13Z" style="fill:#f0f0f0"></path><path d="M414.88,76.17A4.15,4.15,0,1,1,410.73,72,4.15,4.15,0,0,1,414.88,76.17Z" style="fill:#f0f0f0"></path><path d="M340.13,48.59A4.15,4.15,0,1,1,336,44.45,4.14,4.14,0,0,1,340.13,48.59Z" style="fill:#f0f0f0"></path><circle cx="122.36" cy="59.31" r="2.31" style="fill:#f0f0f0"></circle><path d="M230.06,42a2.31,2.31,0,1,1-2.31-2.3A2.31,2.31,0,0,1,230.06,42Z" style="fill:#f0f0f0"></path><path d="M39.88,124a2.31,2.31,0,1,1-2.31-2.31A2.31,2.31,0,0,1,39.88,124Z" style="fill:#f0f0f0"></path><path d="M398.55,42.56a2.31,2.31,0,1,1-2.31-2.31A2.31,2.31,0,0,1,398.55,42.56Z" style="fill:#f0f0f0"></path><path d="M462.43,52.72a2.31,2.31,0,1,1-2.3-2.31A2.31,2.31,0,0,1,462.43,52.72Z" style="fill:#f0f0f0"></path></g></g></svg>
